<?xml version="1.0" encoding="UTF-8"?>
<svg width="178px" height="140px" viewBox="0 0 178 140" version="1.1" xmlns="http://www.w3.org/2000/svg" xmlns:xlink="http://www.w3.org/1999/xlink">
    <!-- Generator: Sketch 47.1 (45422) - http://www.bohemiancoding.com/sketch -->
    <title>B1A</title>
    <desc>Created with Sketch.</desc>
    <defs></defs>
    <g id="Atomframer" stroke="none" stroke-width="1" fill="none" fill-rule="evenodd">
        <g id="标签栏及工具栏-copy-3" transform="translate(-15.000000, -34.000000)">
            <g id="B1A" transform="translate(15.000000, 34.000000)">
                <rect id="Rectangle-13" fill="#FFFFFF" x="0" y="0" width="178" height="140" rx="3"></rect>
                <text id="3x-标签导航" font-family="PingFangSC-Regular, PingFang SC" font-size="12" font-weight="normal" fill="#007AFF">
                    <tspan x="56.348" y="110">3x 标签导航</tspan>
                </text>
                <g id="Group-2-Copy-2" transform="translate(35.000000, 34.000000)" fill="#007AFF">
                    <path d="M4.8,0 L103.2,0 C105.850967,-4.86974701e-16 108,2.1490332 108,4.8 L108,38.4 C108,41.0509668 105.850967,43.2 103.2,43.2 L4.8,43.2 C2.1490332,43.2 4.7655419e-15,41.0509668 4.4408921e-15,38.4 L0,4.8 L0,4.8 C-3.24649801e-16,2.1490332 2.1490332,1.37515312e-15 4.8,8.8817842e-16 L4.8,0 Z M52.8,13 C50.1490332,13 48,15.1490332 48,17.8 L48,20.2 C48,22.8509668 50.1490332,25 52.8,25 L55.2,25 C57.8509668,25 60,22.8509668 60,20.2 L60,17.8 C60,15.1490332 57.8509668,13 55.2,13 L52.8,13 Z M23.8,13 L23.8,13 C21.1490332,13 19,15.1490332 19,17.8 L19,20.2 C19,22.8509668 21.1490332,25 23.8,25 L26.2,25 C28.8509668,25 31,22.8509668 31,20.2 L31,17.8 C31,15.1490332 28.8509668,13 26.2,13 L23.8,13 Z M81.8,13 C79.1490332,13 77,15.1490332 77,17.8 L77,20.2 C77,22.8509668 79.1490332,25 81.8,25 L84.2,25 C86.8509668,25 89,22.8509668 89,20.2 L89,17.8 C89,15.1490332 86.8509668,13 84.2,13 L81.8,13 Z M19,29 L19,32 L30.4971298,32 L30.4971298,29 L19,29 Z M48,29 L48,32 L59.4971298,32 L59.4971298,29 L48,29 Z M77,29 L77,32 L88.4971298,32 L88.4971298,29 L77,29 Z" id="Combined-Shape"></path>
                </g>
            </g>
        </g>
    </g>
</svg>