<?xml version="1.0" encoding="UTF-8"?>
<svg width="178px" height="140px" viewBox="0 0 178 140" version="1.1" xmlns="http://www.w3.org/2000/svg" xmlns:xlink="http://www.w3.org/1999/xlink">
    <!-- Generator: Sketch 47.1 (45422) - http://www.bohemiancoding.com/sketch -->
    <title>B2A</title>
    <desc>Created with Sketch.</desc>
    <defs></defs>
    <g id="Atomframer" stroke="none" stroke-width="1" fill="none" fill-rule="evenodd">
        <g id="标签栏及工具栏-copy-3" transform="translate(-206.000000, -34.000000)">
            <g id="B2A" transform="translate(206.000000, 34.000000)">
                <rect id="Rectangle-13-Copy" fill="#FFFFFF" x="0" y="0" width="178" height="140" rx="3"></rect>
                <text id="4x-标签导航" font-family="PingFangSC-Regular, PingFang SC" font-size="12" font-weight="normal" fill="#007AFF">
                    <tspan x="56.348" y="110">4x 标签导航</tspan>
                </text>
                <g id="Group-2-Copy-3" transform="translate(35.000000, 34.000000)" fill="#007AFF">
                    <path d="M4.8,0 L103.2,0 C105.850967,-4.86974701e-16 108,2.1490332 108,4.8 L108,38.4 C108,41.0509668 105.850967,43.2 103.2,43.2 L4.8,43.2 C2.1490332,43.2 4.7655419e-15,41.0509668 4.4408921e-15,38.4 L0,4.8 L0,4.8 C-3.24649801e-16,2.1490332 2.1490332,1.37515312e-15 4.8,8.8817842e-16 L4.8,0 Z M16.8,13 L16.8,13 C14.1490332,13 12,15.1490332 12,17.8 L12,20.2 C12,22.8509668 14.1490332,25 16.8,25 L19.2,25 C21.8509668,25 24,22.8509668 24,20.2 L24,17.8 C24,15.1490332 21.8509668,13 19.2,13 L16.8,13 Z M40.8,13 C38.1490332,13 36,15.1490332 36,17.8 L36,20.2 C36,22.8509668 38.1490332,25 40.8,25 L43.2,25 C45.8509668,25 48,22.8509668 48,20.2 L48,17.8 C48,15.1490332 45.8509668,13 43.2,13 L40.8,13 Z M64.8,13 C62.1490332,13 60,15.1490332 60,17.8 L60,20.2 C60,22.8509668 62.1490332,25 64.8,25 L67.2,25 C69.8509668,25 72,22.8509668 72,20.2 L72,17.8 C72,15.1490332 69.8509668,13 67.2,13 L64.8,13 Z M88.8,13 C86.1490332,13 84,15.1490332 84,17.8 L84,20.2 C84,22.8509668 86.1490332,25 88.8,25 L91.2,25 C93.8509668,25 96,22.8509668 96,20.2 L96,17.8 C96,15.1490332 93.8509668,13 91.2,13 L88.8,13 Z M12,29 L12,32 L23.4971298,32 L23.4971298,29 L12,29 Z M36,29 L36,32 L47.4971298,32 L47.4971298,29 L36,29 Z M60,29 L60,32 L71.4971298,32 L71.4971298,29 L60,29 Z M84,29 L84,32 L95.4971298,32 L95.4971298,29 L84,29 Z" id="Combined-Shape"></path>
                </g>
            </g>
        </g>
    </g>
</svg>