<?xml version="1.0" encoding="UTF-8"?>
<svg width="178px" height="140px" viewBox="0 0 178 140" version="1.1" xmlns="http://www.w3.org/2000/svg" xmlns:xlink="http://www.w3.org/1999/xlink">
    <!-- Generator: Sketch 47.1 (45422) - http://www.bohemiancoding.com/sketch -->
    <title>B4</title>
    <desc>Created with Sketch.</desc>
    <defs></defs>
    <g id="Atomframer" stroke="none" stroke-width="1" fill="none" fill-rule="evenodd">
        <g id="标签栏及工具栏-copy-2" transform="translate(-206.000000, -227.000000)">
            <g id="B4" transform="translate(206.000000, 227.000000)">
                <rect id="Rectangle-13-Copy-3" fill="#FFFFFF" x="0" y="0" width="178" height="140" rx="3"></rect>
                <text id="舵式导航" font-family="PingFangSC-Regular, PingFang SC" font-size="12" font-weight="normal" fill="#767676">
                    <tspan x="65" y="110">舵式导航</tspan>
                </text>
                <path d="M39.8,34 L138.2,34 C140.850967,34 143,36.1490332 143,38.8 L143,72.4 C143,75.0509668 140.850967,77.2 138.2,77.2 L39.8,77.2 C37.1490332,77.2 35,75.0509668 35,72.4 L35,38.8 L35,38.8 C35,36.1490332 37.1490332,34 39.8,34 L39.8,34 Z M46.8,47 L46.8,47 C44.1490332,47 42,49.1490332 42,51.8 L42,54.2 C42,56.8509668 44.1490332,59 46.8,59 L49.2,59 C51.8509668,59 54,56.8509668 54,54.2 L54,51.8 C54,49.1490332 51.8509668,47 49.2,47 L46.8,47 Z M89,49 C85.1340068,49 82,52.1340068 82,56 C82,59.8659932 85.1340068,63 89,63 C92.8659932,63 96,59.8659932 96,56 L96,56 C96,52.1340068 92.8659932,49 89,49 Z M67.3,47 C64.6490332,47 62.5,49.1490332 62.5,51.8 L62.5,54.2 C62.5,56.8509668 64.6490332,59 67.3,59 L69.7,59 C72.3509668,59 74.5,56.8509668 74.5,54.2 L74.5,51.8 C74.5,49.1490332 72.3509668,47 69.7,47 L67.3,47 Z M108.8,47 C106.149033,47 104,49.1490332 104,51.8 L104,54.2 C104,56.8509668 106.149033,59 108.8,59 L111.2,59 C113.850967,59 116,56.8509668 116,54.2 L116,51.8 C116,49.1490332 113.850967,47 111.2,47 L108.8,47 Z M128.8,47 C126.149033,47 124,49.1490332 124,51.8 L124,54.2 C124,56.8509668 126.149033,59 128.8,59 L131.2,59 C133.850967,59 136,56.8509668 136,54.2 L136,51.8 C136,49.1490332 133.850967,47 131.2,47 L128.8,47 Z M42,63 L42,66 L53.4971298,66 L53.4971298,63 L42,63 Z M62.5,63 L62.5,66 L73.9971298,66 L73.9971298,63 L62.5,63 Z M104,63 L104,66 L115.49713,66 L115.49713,63 L104,63 Z M124,63 L124,66 L135.49713,66 L135.49713,63 L124,63 Z" id="Combined-Shape" fill="#404040"></path>
            </g>
        </g>
    </g>
</svg>