<?xml version="1.0" encoding="UTF-8"?>
<svg width="178px" height="140px" viewBox="0 0 178 140" version="1.1" xmlns="http://www.w3.org/2000/svg" xmlns:xlink="http://www.w3.org/1999/xlink">
    <!-- Generator: Sketch 47.1 (45422) - http://www.bohemiancoding.com/sketch -->
    <title>B6A</title>
    <desc>Created with Sketch.</desc>
    <defs></defs>
    <g id="Atomframer" stroke="none" stroke-width="1" fill="none" fill-rule="evenodd">
        <g id="标签栏及工具栏-copy-3" transform="translate(-206.000000, -420.000000)">
            <g id="B6A" transform="translate(206.000000, 420.000000)">
                <rect id="Rectangle-13-Copy-6" fill="#FFFFFF" x="0" y="0" width="178" height="140" rx="3"></rect>
                <text id="4x-工具栏" font-family="PingFangSC-Regular, PingFang SC" font-size="12" font-weight="normal" fill="#007AFF">
                    <tspan x="62.348" y="110">4x 工具栏</tspan>
                </text>
                <path d="M39.8,44 L138.2,44 L138.2,44 C140.850967,44 143,46.1490332 143,48.8 L143,63.2 C143,65.8509668 140.850967,68 138.2,68 L39.8,68 L39.8,68 C37.1490332,68 35,65.8509668 35,63.2 L35,48.8 L35,48.8 C35,46.1490332 37.1490332,44 39.8,44 L39.8,44 Z M46.8,50 L46.8,50 C44.1490332,50 42,52.1490332 42,54.8 L42,54.8 L42,57.2 C42,59.8509668 44.1490332,62 46.8,62 L49.2,62 C51.8509668,62 54,59.8509668 54,57.2 L54,54.8 C54,52.1490332 51.8509668,50 49.2,50 L49.2,50 L46.8,50 Z M73.8,50 L73.8,50 C71.1490332,50 69,52.1490332 69,54.8 L69,57.2 C69,59.8509668 71.1490332,62 73.8,62 L76.2,62 C78.8509668,62 81,59.8509668 81,57.2 L81,54.8 C81,52.1490332 78.8509668,50 76.2,50 L76.2,50 L73.8,50 Z M101.8,50 L101.8,50 C99.1490332,50 97,52.1490332 97,54.8 L97,57.2 C97,59.8509668 99.1490332,62 101.8,62 L104.2,62 C106.850967,62 109,59.8509668 109,57.2 L109,54.8 C109,52.1490332 106.850967,50 104.2,50 L104.2,50 L101.8,50 Z M128.8,50 L128.8,50 C126.149033,50 124,52.1490332 124,54.8 L124,57.2 C124,59.8509668 126.149033,62 128.8,62 L131.2,62 C133.850967,62 136,59.8509668 136,57.2 L136,54.8 C136,52.1490332 133.850967,50 131.2,50 L131.2,50 L128.8,50 Z" id="Combined-Shape-Copy-11" fill="#007AFF"></path>
            </g>
        </g>
    </g>
</svg>