<?xml version="1.0" encoding="UTF-8"?>
<svg width="178px" height="140px" viewBox="0 0 178 140" version="1.1" xmlns="http://www.w3.org/2000/svg" xmlns:xlink="http://www.w3.org/1999/xlink">
    <!-- Generator: Sketch 47.1 (45422) - http://www.bohemiancoding.com/sketch -->
    <title>B9A</title>
    <desc>Created with Sketch.</desc>
    <defs></defs>
    <g id="Atomframer" stroke="none" stroke-width="1" fill="none" fill-rule="evenodd">
        <g id="标签栏及工具栏-copy-3" transform="translate(-15.000000, -806.000000)">
            <g id="B9A" transform="translate(15.000000, 806.000000)">
                <rect id="Rectangle-13-Copy-8" fill="#FFFFFF" x="0" y="0" width="178" height="140" rx="3"></rect>
                <text id="带概要的文字工具栏" font-family="PingFangSC-Regular, PingFang SC" font-size="12" font-weight="normal" fill="#007AFF">
                    <tspan x="35" y="110">带概要的文字工具栏</tspan>
                </text>
                <g id="Group-2" transform="translate(35.000000, 44.000000)">
                    <path d="M4.8,0 L103.2,0 L103.2,-8.8817842e-16 C105.850967,5.68844139e-15 108,2.1490332 108,4.8 L108,19.2 C108,21.8509668 105.850967,24 103.2,24 L4.8,24 L4.8,24 C2.1490332,24 6.23189498e-15,21.8509668 3.55271368e-15,19.2 L0,4.8 L-8.8817842e-16,4.8 C-1.21282822e-15,2.1490332 2.1490332,-1.28938214e-15 4.8,-1.77635684e-15 L4.8,0 Z M9.6,9.6 L9.6,15.6 L25,15.6 L25,9.6 L9.6,9.6 Z M84.2,9.6 L84.2,15.6 L99.6,15.6 L99.6,9.6 L84.2,9.6 Z" id="Combined-Shape" fill="#007AFF"></path>
                    <path d="M35.94,15.1 C37.33,15.1 38.12,14.46 38.12,13.34 C38.12,11.21 35.88,12.08 35.88,11.21 C35.88,10.92 36.12,10.75 36.57,10.75 C36.9,10.75 37.19,10.79 37.83,10.94 L37.83,9.72 C37.29,9.59 36.68,9.5 36.21,9.5 C35.01,9.5 34.33,10.15 34.33,11.28 C34.33,13.62 36.53,12.55 36.53,13.46 C36.53,13.74 36.32,13.88 35.91,13.88 C35.39,13.88 34.74,13.76 34.32,13.59 L34.32,14.81 C34.85,15 35.41,15.1 35.94,15.1 Z M40.17,15.1 C40.65,15.1 40.96,14.97 41.73,14.45 L41.77,14.45 L41.86,15 L43.27,15 L43.27,9.6 L41.6,9.6 L41.6,13.41 C41.3,13.61 41.1,13.68 40.9,13.68 C40.59,13.68 40.43,13.5 40.43,13.1 L40.43,9.6 L38.76,9.6 L38.76,13.66 C38.76,14.54 39.31,15.1 40.17,15.1 Z M44.19,15 L45.82,15 L45.82,11.21 C46.09,11.05 46.32,10.95 46.51,10.95 C46.82,10.95 46.98,11.15 46.98,11.55 L46.98,15 L48.62,15 L48.62,11.21 C48.88,11.05 49.12,10.95 49.31,10.95 C49.62,10.95 49.77,11.15 49.77,11.55 L49.77,15 L51.41,15 L51.41,10.94 C51.41,10.05 50.93,9.5 50.18,9.5 C49.63,9.5 49.26,9.65 48.52,10.18 L48.46,10.18 C48.25,9.73 47.87,9.5 47.38,9.5 C46.84,9.5 46.5,9.63 45.68,10.18 L45.65,10.18 L45.56,9.6 L44.19,9.6 L44.19,15 Z M52.3,15 L53.93,15 L53.93,11.21 C54.2,11.05 54.43,10.95 54.62,10.95 C54.93,10.95 55.09,11.15 55.09,11.55 L55.09,15 L56.73,15 L56.73,11.21 C56.99,11.05 57.23,10.95 57.42,10.95 C57.73,10.95 57.88,11.15 57.88,11.55 L57.88,15 L59.52,15 L59.52,10.94 C59.52,10.05 59.04,9.5 58.29,9.5 C57.74,9.5 57.37,9.65 56.63,10.18 L56.57,10.18 C56.36,9.73 55.98,9.5 55.49,9.5 C54.95,9.5 54.61,9.63 53.79,10.18 L53.76,10.18 L53.67,9.6 L52.3,9.6 L52.3,15 Z M61.63,15.05 C60.73,15.05 60.12,14.39 60.12,13.43 C60.12,12.38 60.77,11.83 62.06,11.74 L62.97,11.68 C62.96,10.91 62.82,10.76 62.12,10.76 C61.83,10.76 60.99,10.83 60.66,10.9 L60.55,9.7 C61.16,9.6 61.81,9.52 62.39,9.52 C63.97,9.52 64.64,10.04 64.64,11.24 L64.64,15 L63.25,15 L63.13,14.35 L63.05,14.35 C62.72,14.77 62.19,15.05 61.63,15.05 Z M62.26,13.84 C62.47,13.84 62.75,13.68 62.97,13.55 L62.97,12.68 L62.43,12.73 C61.96,12.77 61.78,12.93 61.78,13.28 C61.78,13.63 61.95,13.84 62.26,13.84 Z M65.53,15 L67.2,15 L67.2,11.51 C67.33,11.34 67.8,11.12 68.09,11.07 L68.77,11.07 L68.77,9.51 L68.46,9.51 C67.96,9.71 67.19,10.23 67.1,10.4 L67.03,10.4 L66.94,9.6 L65.53,9.6 L65.53,15 Z M71.79,17.2 L74.26,9.73 L74.26,9.6 L72.56,9.6 L71.74,12.62 L71.61,13.35 L71.51,13.35 L71.39,12.62 L70.57,9.6 L68.87,9.6 L68.87,9.73 L70.7,15 L70.12,16.78 L70.12,16.86 L71.79,17.2 Z" id="summary" fill="#FFFFFF"></path>
                </g>
            </g>
        </g>
    </g>
</svg>