<?xml version="1.0" encoding="UTF-8"?>
<svg width="178px" height="140px" viewBox="0 0 178 140" version="1.1" xmlns="http://www.w3.org/2000/svg" xmlns:xlink="http://www.w3.org/1999/xlink">
    <!-- Generator: Sketch 47.1 (45422) - http://www.bohemiancoding.com/sketch -->
    <title>N3</title>
    <desc>Created with Sketch.</desc>
    <defs></defs>
    <g id="Atomframer" stroke="none" stroke-width="1" fill="none" fill-rule="evenodd">
        <g id="导航栏-copy-2" transform="translate(-15.000000, -227.000000)">
            <g id="N3" transform="translate(15.000000, 227.000000)">
                <rect id="Rectangle-13-Copy-2" fill="#FFFFFF" x="0" y="0" width="178" height="140" rx="3"></rect>
                <path d="M46.7941125,55.939697 L51.0367532,51.6970563 L49.339697,50 L44.2485281,55.0911688 L43.4,55.939697 L49.339697,61.8793939 L51.0367532,60.1823376 L46.7941125,55.939697 Z M39.8,44 L138.2,44 L138.2,44 C140.850967,44 143,46.1490332 143,48.8 L143,63.2 C143,65.8509668 140.850967,68 138.2,68 L39.8,68 L39.8,68 C37.1490332,68 35,65.8509668 35,63.2 L35,48.8 L35,48.8 C35,46.1490332 37.1490332,44 39.8,44 L39.8,44 Z M111.8,53.6 L111.8,59.6 L134.6,59.6 L134.6,53.6 L111.8,53.6 Z" id="Combined-Shape-Copy-3" fill="#404040"></path>
                <text id="子页面导航栏" font-family="PingFangSC-Regular, PingFang SC" font-size="12" font-weight="normal" fill="#767676">
                    <tspan x="53" y="110">子页面导航栏</tspan>
                </text>
            </g>
        </g>
    </g>
</svg>