<?xml version="1.0" encoding="UTF-8"?>
<svg width="178px" height="140px" viewBox="0 0 178 140" version="1.1" xmlns="http://www.w3.org/2000/svg" xmlns:xlink="http://www.w3.org/1999/xlink">
    <!-- Generator: Sketch 47.1 (45422) - http://www.bohemiancoding.com/sketch -->
    <title>N4</title>
    <desc>Created with Sketch.</desc>
    <defs></defs>
    <g id="Atomframer" stroke="none" stroke-width="1" fill="none" fill-rule="evenodd">
        <g id="导航栏-copy-2" transform="translate(-206.000000, -227.000000)">
            <g id="N4" transform="translate(206.000000, 227.000000)">
                <rect id="Rectangle-13-Copy-3" fill="#FFFFFF" x="0" y="0" width="178" height="140" rx="3"></rect>
                <g id="Group-2" transform="translate(35.000000, 34.000000)">
                    <rect id="Combined-Shape-Copy-2" fill="#404040" x="0" y="0" width="108" height="43.2" rx="4.8"></rect>
                    <path d="M9.048,36 L11.112,36 L11.112,32.328 L13.812,32.328 L13.812,36 L15.876,36 L15.876,27.12 L13.812,27.12 L13.812,30.6 L11.112,30.6 L11.112,27.12 L9.048,27.12 L9.048,36 Z M19.788,36.108 C17.844,36.108 16.836,34.98 16.836,32.832 C16.836,30.576 17.832,29.412 19.776,29.412 C21.456,29.412 22.224,30.384 22.224,32.508 C22.224,32.988 22.212,33.168 22.164,33.432 L18.864,33.432 C18.924,34.368 19.176,34.608 19.896,34.608 C20.352,34.608 21.132,34.476 21.948,34.272 L22.008,35.736 C21.408,35.952 20.496,36.108 19.788,36.108 Z M19.728,30.9 C19.164,30.9 18.912,31.236 18.852,32.208 L20.46,32.208 C20.436,31.248 20.232,30.9 19.728,30.9 Z M24.552,36.06 C23.472,36.06 22.74,35.268 22.74,34.116 C22.74,32.856 23.52,32.196 25.068,32.088 L26.16,32.016 C26.148,31.092 25.98,30.912 25.14,30.912 C24.792,30.912 23.784,30.996 23.388,31.08 L23.256,29.64 C23.988,29.52 24.768,29.424 25.464,29.424 C27.36,29.424 28.164,30.048 28.164,31.488 L28.164,36 L26.496,36 L26.352,35.22 L26.256,35.22 C25.86,35.724 25.224,36.06 24.552,36.06 Z M25.308,34.608 C25.56,34.608 25.896,34.416 26.16,34.26 L26.16,33.216 L25.512,33.276 C24.948,33.324 24.732,33.516 24.732,33.936 C24.732,34.356 24.936,34.608 25.308,34.608 Z M31.08,36.108 C29.688,36.108 29.004,35.076 29.004,32.976 C29.004,30.6 30.024,29.412 32.1,29.412 C32.244,29.412 32.388,29.424 32.664,29.46 L32.664,26.304 L34.668,26.304 L34.668,36 L32.832,36 L32.712,35.352 L32.664,35.352 C32.292,35.844 31.74,36.108 31.08,36.108 Z M31.824,34.692 C32.484,34.692 32.664,34.164 32.664,32.16 L32.664,30.864 C32.496,30.78 32.292,30.732 32.04,30.732 C31.284,30.732 31.056,31.14 31.056,32.736 C31.056,34.272 31.236,34.692 31.824,34.692 Z M36.768,28.668 C37.56,28.668 37.884,28.344 37.884,27.6 C37.884,26.844 37.548,26.532 36.768,26.532 C36,26.532 35.676,26.844 35.676,27.6 C35.676,28.356 36.012,28.668 36.768,28.668 Z M35.772,36 L37.776,36 L37.776,29.52 L35.772,29.52 L35.772,36 Z M38.892,36 L40.896,36 L40.896,31.464 C41.208,31.284 41.52,31.14 41.784,31.14 C42.096,31.14 42.3,31.344 42.3,31.86 L42.3,36 L44.304,36 L44.304,31.128 C44.304,30.06 43.74,29.4 42.828,29.4 C42.168,29.4 41.784,29.556 40.74,30.216 L40.692,30.216 L40.584,29.52 L38.892,29.52 L38.892,36 Z M47.58,38.64 C46.98,38.64 46.296,38.544 45.588,38.364 L45.732,36.9 C46.428,37.056 46.944,37.128 47.4,37.128 C48.468,37.128 48.876,36.66 48.876,35.46 L48.876,35.112 L48.828,35.112 C48.456,35.568 47.928,35.82 47.292,35.82 C45.864,35.82 45.168,34.896 45.168,32.976 C45.168,30.636 46.212,29.412 48.264,29.412 C49.008,29.412 49.8,29.532 50.832,29.808 L50.832,35.088 C50.832,37.44 49.728,38.64 47.58,38.64 Z M47.988,34.488 C48.66,34.488 48.828,33.948 48.828,32.16 L48.828,30.864 C48.66,30.78 48.444,30.732 48.204,30.732 C47.436,30.732 47.22,31.14 47.22,32.736 C47.22,34.104 47.388,34.488 47.988,34.488 Z" id="Heading" fill="#FFFFFF"></path>
                </g>
                <text id="大标题导航栏" font-family="PingFangSC-Regular, PingFang SC" font-size="12" font-weight="normal" fill="#767676">
                    <tspan x="53" y="110">大标题导航栏</tspan>
                </text>
            </g>
        </g>
    </g>
</svg>