<?xml version="1.0" encoding="UTF-8"?>
<svg width="178px" height="140px" viewBox="0 0 178 140" version="1.1" xmlns="http://www.w3.org/2000/svg" xmlns:xlink="http://www.w3.org/1999/xlink">
    <!-- Generator: Sketch 47.1 (45422) - http://www.bohemiancoding.com/sketch -->
    <title>N7</title>
    <desc>Created with Sketch.</desc>
    <defs></defs>
    <g id="Atomframer" stroke="none" stroke-width="1" fill="none" fill-rule="evenodd">
        <g id="导航栏-copy-2" transform="translate(-15.000000, -613.000000)">
            <g id="N7" transform="translate(15.000000, 613.000000)">
                <rect id="Rectangle-13-Copy-5" fill="#FFFFFF" x="0" y="0" width="178" height="140" rx="3"></rect>
                <path d="M39.8,44 L138.2,44 L138.2,44 C140.850967,44 143,46.1490332 143,48.8 L143,63.2 C143,65.8509668 140.850967,68 138.2,68 L39.8,68 L39.8,68 C37.1490332,68 35,65.8509668 35,63.2 L35,48.8 L35,48.8 C35,46.1490332 37.1490332,44 39.8,44 L39.8,44 Z M47,50 C44.3490332,50 42.2,52.1490332 42.2,54.8 L42.2,54.8 L42.2,57.2 C42.2,59.8509668 44.3490332,62 47,62 L131,62 C133.650967,62 135.8,59.8509668 135.8,57.2 L135.8,54.8 C135.8,52.1490332 133.650967,50 131,50 L47,50 Z" id="Combined-Shape-Copy-5" fill="#404040"></path>
                <text id="搜索框导航栏" font-family="PingFangSC-Regular, PingFang SC" font-size="12" font-weight="normal" fill="#767676">
                    <tspan x="53" y="110">搜索框导航栏</tspan>
                </text>
            </g>
        </g>
    </g>
</svg>