<?xml version="1.0" encoding="UTF-8"?>
<svg width="178px" height="140px" viewBox="0 0 178 140" version="1.1" xmlns="http://www.w3.org/2000/svg" xmlns:xlink="http://www.w3.org/1999/xlink">
    <!-- Generator: Sketch 47.1 (45422) - http://www.bohemiancoding.com/sketch -->
    <title>S7</title>
    <desc>Created with Sketch.</desc>
    <defs></defs>
    <g id="Atomframer" stroke="none" stroke-width="1" fill="none" fill-rule="evenodd">
        <g id="筛选栏-copy-2" transform="translate(-15.000000, -613.000000)">
            <g id="S7" transform="translate(15.000000, 613.000000)">
                <rect id="Rectangle-13-Copy-5" fill="#FFFFFF" x="0" y="0" width="178" height="140" rx="3"></rect>
                <text id="4x-顶部标签范围栏" font-family="PingFangSC-Regular, PingFang SC" font-size="12" font-weight="normal" fill="#767676">
                    <tspan x="38.348" y="110">4x 顶部标签范围栏</tspan>
                </text>
                <path d="M67.0971298,68 L67.0971298,65.6 L55.6,65.6 L55.6,68 L39.8,68 L39.8,68 C37.1490332,68 35,65.8509668 35,63.2 L35,48.8 L35,48.8 C35,46.1490332 37.1490332,44 39.8,44 L39.8,44 L138.2,44 L138.2,44 C140.850967,44 143,46.1490332 143,48.8 L143,63.2 C143,65.8509668 140.850967,68 138.2,68 L67.0971298,68 Z M55.6,53.6 L55.6,59.6 L67.0971298,59.6 L67.0971298,53.6 L55.6,53.6 Z M74.5999985,53.6 L74.5999985,59.6 L86.0971283,59.6 L86.0971283,53.6 L74.5999985,53.6 Z M93.0999985,53.6 L93.0999985,59.6 L104.599998,59.6 L104.599998,53.6 L93.0999985,53.6 Z M112.10287,53.6 L112.10287,59.6 L123.6,59.6 L123.6,53.6 L112.10287,53.6 Z" id="Combined-Shape-Copy-9" fill="#404040"></path>
            </g>
        </g>
    </g>
</svg>