<?xml version="1.0" encoding="UTF-8"?>
<svg width="178px" height="140px" viewBox="0 0 178 140" version="1.1" xmlns="http://www.w3.org/2000/svg" xmlns:xlink="http://www.w3.org/1999/xlink">
    <!-- Generator: Sketch 47.1 (45422) - http://www.bohemiancoding.com/sketch -->
    <title>S8</title>
    <desc>Created with Sketch.</desc>
    <defs></defs>
    <g id="Atomframer" stroke="none" stroke-width="1" fill="none" fill-rule="evenodd">
        <g id="筛选栏-copy-2" transform="translate(-206.000000, -613.000000)">
            <g id="S8" transform="translate(206.000000, 613.000000)">
                <rect id="Rectangle-13-Copy-7" fill="#FFFFFF" x="0" y="0" width="178" height="140" rx="3"></rect>
                <text id="顶部滚动标签范围栏" font-family="PingFangSC-Regular, PingFang SC" font-size="12" font-weight="normal" fill="#767676">
                    <tspan x="35" y="110">顶部滚动标签范围栏</tspan>
                </text>
                <path d="M143,59.6 L143,63.2 C143,65.8509668 140.850967,68 138.2,68 L57.0971298,68 L57.0971298,65.6 L45.6,65.6 L45.6,68 L39.8,68 L39.8,68 C37.1490332,68 35,65.8509668 35,63.2 L35,48.8 L35,48.8 C35,46.1490332 37.1490332,44 39.8,44 L39.8,44 L138.2,44 L138.2,44 C140.850967,44 143,46.1490332 143,48.8 L143,53.6 L140.10287,53.6 L140.10287,59.6 L143,59.6 Z M45.6,53.6 L45.6,59.6 L57.0971298,59.6 L57.0971298,53.6 L45.6,53.6 Z M64.5999985,53.6 L64.5999985,59.6 L76.0971283,59.6 L76.0971283,53.6 L64.5999985,53.6 Z M83.0999985,53.6 L83.0999985,59.6 L94.5999985,59.6 L94.5999985,53.6 L83.0999985,53.6 Z M102.10287,53.6 L102.10287,59.6 L113.6,59.6 L113.6,53.6 L102.10287,53.6 Z M121.10287,53.6 L121.10287,59.6 L132.6,59.6 L132.6,53.6 L121.10287,53.6 Z" id="Combined-Shape-Copy-10" fill="#404040"></path>
            </g>
        </g>
    </g>
</svg>