<?xml version="1.0" encoding="UTF-8"?>
<svg width="28px" height="28px" viewBox="0 0 28 28" version="1.1" xmlns="http://www.w3.org/2000/svg" xmlns:xlink="http://www.w3.org/1999/xlink">
    <!-- Generator: Sketch 47.1 (45422) - http://www.bohemiancoding.com/sketch -->
    <title>Artboard</title>
    <desc>Created with Sketch.</desc>
    <defs></defs>
    <g id="Atomframer" stroke="none" stroke-width="1" fill="none" fill-rule="evenodd">
        <g id="Artboard" fill="#BFBFBF">
            <path d="M13.1999998,15.9933898 L8.72115472,11.5145447 L8.72115472,11.5145447 C8.48371596,11.2771059 8.09875168,11.2771059 7.86131293,11.5145447 L7.86131293,11.5145447 L7.29499648,12.0808611 C7.05755772,12.3182999 7.05755772,12.7032642 7.29499648,12.9407029 L7.29499648,12.9407029 L12.6397481,18.2854545 C12.7918218,18.4375283 13.0044119,18.4922025 13.1999998,18.4494772 C13.3955877,18.4922025 13.6081778,18.4375283 13.7602515,18.2854545 L19.1050031,12.9407029 C19.3424419,12.7032642 19.3424419,12.3182999 19.1050031,12.0808611 L18.5386867,11.5145447 C18.3012479,11.2771059 17.9162837,11.2771059 17.6788449,11.5145447 L17.6788449,11.5145447 L13.1999998,15.9933898 Z" id="Combined-Shape"></path>
        </g>
    </g>
</svg>