<?xml version="1.0" encoding="UTF-8"?>
<svg width="834px" height="897px" viewBox="0 0 834 897" version="1.1" xmlns="http://www.w3.org/2000/svg" xmlns:xlink="http://www.w3.org/1999/xlink">
    <!-- Generator: Sketch 47.1 (45422) - http://www.bohemiancoding.com/sketch -->
    <title>Atom</title>
    <desc>Created with Sketch.</desc>
    <defs></defs>
    <g id="Atomframer" stroke="none" stroke-width="1" fill="none" fill-rule="evenodd">
        <g id="Atom" fill="#404040">
            <path d="M417,64.8 C477.659087,64.8 545.162103,214.636436 551.080697,419.642825 C551.357889,429.244113 560.304088,448.8 584.533657,448.8 C608.763226,448.8 615.355829,428.986783 615.068432,419.060948 C609.045736,211.054927 540.124619,0.8 417,0.8 C294.552713,0.8 225.714201,208.747984 219.036673,415.627936 C218.679328,426.699027 225.948857,448.8 250.747004,448.8 C275.545152,448.8 282.691954,426.680706 283.050474,415.849046 C289.771563,212.790519 356.810654,64.8 417,64.8 Z M417,832.8 C392.246898,832.8 364.537841,805.121498 341.306471,758.574741 C336.194428,748.332167 321.447469,729.627672 297.520402,736.441721 C273.593335,743.25577 276.244493,770.981162 281.218564,781.389819 C316.930905,856.120859 364.423006,896.8 417,896.8 C470.939185,896.8 519.607668,853.985681 555.557566,775.585872 C559.530386,766.921915 558.708037,747.261853 539.138156,737.630498 C519.568275,727.999143 499.644464,744.063261 495.618241,752.557932 C471.863457,802.676639 442.823199,832.8 417,832.8 Z" id="Shape" fill-rule="nonzero" opacity="0.799999952"></path>
            <path d="M746.575047,559.708467 C767.86196,594.353223 774.53127,623.467732 764.4,640.3 C736.3,687.1 564.8,679 349.4,559.4 C179.3,465 84.2,356 67.8,294.7 C63.6,278.9 64.2,266.4 69.7,257.2 C79.4262773,240.937664 106.770946,231.577379 145.421313,230.815091 C156.443557,230.597704 182.34871,228.525555 183.961946,201.352182 C185.575181,174.178809 158.159312,166.61396 145.470082,166.824365 C66.4752988,168.134209 30.9257271,197.590455 14.9,224.3 C0.4,248.5 -2.7,278.6 6.1,311.2 C31.1,404.5 153.7,523.9 318.4,615.3 C440.2,682.9 580.4,730.5 684.1,730.5 C746.2,730.5 795.3,713.4 819.4,673.2 C836.408482,644.794082 845.192427,597.018228 800.466173,525.087791 C794.177331,514.973841 774.374268,499.678891 753.550479,512.386909 C732.726689,525.094927 741.177863,550.924472 746.575047,559.708467 Z" id="Shape" fill-rule="nonzero"></path>
            <path d="M277.425371,646.551579 C157.725991,680.224975 86.2650847,667.970169 69.7,640.3 C58.4847949,621.636529 67.7187771,588.387437 94.389988,549.086606 C98.8722745,542.481823 101.695442,521.257803 83.8019987,508.726027 C65.9085552,496.19425 44.7123807,508.08505 38.8174535,516.990908 C-11.6990316,593.309512 -3.02047304,643.569362 14.8,673.3 C37.6,711.3 85.8,730.6 152.1,730.6 C193.332004,730.6 241.6575,723.155345 295.310737,708.089461 C305.679109,705.178012 324.006885,691.53511 317.256813,668.330742 C310.506742,645.126374 287.071476,643.837972 277.425371,646.551579 Z" id="Path" opacity="0.899999976"></path>
            <path d="M766.5,294 C752.094496,349.682815 675.781335,441.521066 536.773089,528.72591 C525.24661,535.956883 503.341641,552.984307 516.418411,577.166249 C529.495181,601.348191 557.343332,591.295657 569.130682,583.918779 C708.79241,496.51427 806.829016,393.725212 828.5,309.9 C836.8,277.7 833.6,248.1 819.3,224.3 C803.489829,198.034716 768.677496,169.023872 691.893981,166.930669 C678.344927,166.561308 647.681894,172.257813 650.273408,201.734478 C652.864921,231.211143 683.540124,230.491809 696.689911,231.211143 C731.018732,233.089036 755.289726,242.188513 764.4,257.3 C769.8,266.3 770.5,278.6 766.5,294 Z" id="Shape" fill-rule="nonzero" opacity="0.900000036"></path>
            <path d="M350.4,448.8 C350.399999,471.664998 363.093887,492.793128 383.699999,504.225627 C404.306111,515.658127 429.693889,515.658127 450.300001,504.225627 C470.906113,492.793128 483.600001,471.664998 483.6,448.8 C483.600001,425.935002 470.906113,404.806872 450.300001,393.374373 C429.693889,381.941873 404.306111,381.941873 383.699999,393.374373 C363.093887,404.806872 350.399999,425.935002 350.4,448.8 L350.4,448.8 Z" id="Shape" fill-rule="nonzero"></path>
        </g>
    </g>
</svg>