<?xml version="1.0" encoding="UTF-8"?>
<svg width="402px" height="51px" viewBox="0 0 402 51" version="1.1" xmlns="http://www.w3.org/2000/svg" xmlns:xlink="http://www.w3.org/1999/xlink">
    <!-- Generator: Sketch 47.1 (45422) - http://www.bohemiancoding.com/sketch -->
    <title>Atomframer</title>
    <desc>Created with Sketch.</desc>
    <defs></defs>
    <g id="WireframeKit---Components---Controls" stroke="none" stroke-width="1" fill="none" fill-rule="evenodd">
        <path d="M12.968,6.664 C13.7840041,6.1839976 15.0199917,5.72800216 16.676,5.296 C18.3320083,4.86399784 19.9999916,4.648 21.68,4.648 C24.080012,4.648 26.2039908,4.99599652 28.052,5.692 C29.9000092,6.38800348 31.0879974,7.47999256 31.616,8.968 C32.4800043,11.4640125 33.415995,14.3679834 34.424,17.68 C35.432005,20.9920166 36.439995,24.4119824 37.448,27.94 C38.456005,31.4680176 39.4399952,34.9479828 40.4,38.38 C41.3600048,41.8120172 42.1999964,44.8479868 42.92,47.488 C42.3439971,48.1600034 41.4800058,48.699998 40.328,49.108 C39.1759942,49.516002 37.8080079,49.72 36.224,49.72 C35.0719942,49.72 34.100004,49.624001 33.308,49.432 C32.515996,49.239999 31.8680025,48.9520019 31.364,48.568 C30.8599975,48.1839981 30.4520016,47.6800031 30.14,47.056 C29.8279984,46.4319969 29.5520012,45.7120041 29.312,44.896 L28.016,39.928 L14.984,39.928 C14.5999981,41.3680072 14.2160019,42.8559923 13.832,44.392 C13.4479981,45.9280077 13.0640019,47.4159928 12.68,48.856 C12.0079966,49.0960012 11.3000037,49.2999992 10.556,49.468 C9.81199628,49.6360008 8.91200528,49.72 7.856,49.72 C5.40798776,49.72 3.59600588,49.3000042 2.42,48.46 C1.24399412,47.6199958 0.656,46.4560074 0.656,44.968 C0.656,44.2959966 0.75199904,43.6240034 0.944,42.952 C1.13600096,42.2799966 1.3519988,41.4880046 1.592,40.576 C1.92800168,39.2799935 2.395997,37.6720096 2.996,35.752 C3.596003,33.8319904 4.2559964,31.7560112 4.976,29.524 C5.6960036,27.2919888 6.46399592,25.0000118 7.28,22.648 C8.09600408,20.2959882 8.8639964,18.0760104 9.584,15.988 C10.3040036,13.8999896 10.963997,12.0400082 11.564,10.408 C12.164003,8.77599184 12.6319983,7.52800432 12.968,6.664 Z M21.608,15.952 C20.9359966,17.9680101 20.1800042,20.2119876 19.34,22.684 C18.4999958,25.1560124 17.7440034,27.6639873 17.072,30.208 L26,30.208 C25.3279966,27.615987 24.6440035,25.0840124 23.948,22.612 C23.2519965,20.1399876 22.6160029,17.9200098 22.04,15.952 L21.608,15.952 Z M60.128,36.976 C60.128,38.2240062 60.523996,39.1119974 61.316,39.64 C62.108004,40.1680026 63.2239928,40.432 64.664,40.432 C65.3840036,40.432 66.1279962,40.3720006 66.896,40.252 C67.6640038,40.1319994 68.3359971,39.976001 68.912,39.784 C69.3440022,40.3120026 69.7159984,40.8999968 70.028,41.548 C70.3400016,42.1960032 70.496,42.9759954 70.496,43.888 C70.496,45.7120091 69.8120068,47.1999942 68.444,48.352 C67.0759932,49.5040058 64.6640173,50.08 61.208,50.08 C56.9839789,50.08 53.7320114,49.1200096 51.452,47.2 C49.1719886,45.2799904 48.032,42.1600216 48.032,37.84 L48.032,7.024 C48.5600026,6.87999928 49.3159951,6.72400084 50.3,6.556 C51.2840049,6.38799916 52.3279945,6.304 53.432,6.304 C55.5440106,6.304 57.1879941,6.67599628 58.364,7.42 C59.5400059,8.16400372 60.128,9.735988 60.128,12.136 L60.128,16.744 L69.56,16.744 C69.8480014,17.2720026 70.1239987,17.931996 70.388,18.724 C70.6520013,19.516004 70.784,20.3919952 70.784,21.352 C70.784,23.0320084 70.4120037,24.2439963 69.668,24.988 C68.9239963,25.7320037 67.9280062,26.104 66.68,26.104 L60.128,26.104 L60.128,36.976 Z M112.472,31.504 C112.472,34.4800149 112.016005,37.1319884 111.104,39.46 C110.191995,41.7880116 108.908008,43.7439921 107.252,45.328 C105.595992,46.9120079 103.616012,48.1119959 101.312,48.928 C99.0079885,49.7440041 96.4400142,50.152 93.608,50.152 C90.7759858,50.152 88.2080115,49.7200043 85.904,48.856 C83.5999885,47.9919957 81.6200083,46.756008 79.964,45.148 C78.3079917,43.539992 77.0240046,41.5840115 76.112,39.28 C75.1999954,36.9759885 74.744,34.3840144 74.744,31.504 C74.744,28.6719858 75.1999954,26.1040115 76.112,23.8 C77.0240046,21.4959885 78.3079917,19.540008 79.964,17.932 C81.6200083,16.323992 83.5999885,15.0880043 85.904,14.224 C88.2080115,13.3599957 90.7759858,12.928 93.608,12.928 C96.4400142,12.928 99.0079885,13.3719956 101.312,14.26 C103.616012,15.1480044 105.595992,16.395992 107.252,18.004 C108.908008,19.612008 110.191995,21.5679885 111.104,23.872 C112.016005,26.1760115 112.472,28.7199861 112.472,31.504 Z M87.272,31.504 C87.272,34.4320146 87.8359944,36.6759922 88.964,38.236 C90.0920056,39.7960078 91.6639899,40.576 93.68,40.576 C95.6960101,40.576 97.2439946,39.7840079 98.324,38.2 C99.4040054,36.6159921 99.944,34.3840144 99.944,31.504 C99.944,28.6239856 99.3920055,26.4040078 98.288,24.844 C97.1839945,23.2839922 95.6240101,22.504 93.608,22.504 C91.5919899,22.504 90.0320055,23.2839922 88.928,24.844 C87.8239945,26.4040078 87.272,28.6239856 87.272,31.504 Z M135.224,12.928 C137.19201,12.928 139.123991,13.2039972 141.02,13.756 C142.916009,14.3080028 144.559993,15.1359945 145.952,16.24 C147.392007,15.2799952 149.011991,14.4880031 150.812,13.864 C152.612009,13.2399969 154.783987,12.928 157.328,12.928 C159.152009,12.928 160.939991,13.1679976 162.692,13.648 C164.444009,14.1280024 166.003993,14.8839948 167.372,15.916 C168.740007,16.9480052 169.831996,18.3159915 170.648,20.02 C171.464004,21.7240085 171.872,23.7999878 171.872,26.248 L171.872,48.928 C171.391998,49.0720007 170.636005,49.2159993 169.604,49.36 C168.571995,49.5040007 167.504006,49.576 166.4,49.576 C165.343995,49.576 164.396004,49.5040007 163.556,49.36 C162.715996,49.2159993 162.008003,48.9280022 161.432,48.496 C160.855997,48.0639978 160.412002,47.4760037 160.1,46.732 C159.787998,45.9879963 159.632,45.016006 159.632,43.816 L159.632,26.608 C159.632,25.1679928 159.224004,24.1240032 158.408,23.476 C157.591996,22.8279968 156.488007,22.504 155.096,22.504 C154.423997,22.504 153.704004,22.6599984 152.936,22.972 C152.167996,23.2840016 151.592002,23.6079983 151.208,23.944 C151.256,24.136001 151.28,24.3159992 151.28,24.484 L151.28,48.928 C150.751997,49.0720007 149.972005,49.2159993 148.94,49.36 C147.907995,49.5040007 146.864005,49.576 145.808,49.576 C144.751995,49.576 143.804004,49.5040007 142.964,49.36 C142.123996,49.2159993 141.416003,48.9280022 140.84,48.496 C140.263997,48.0639978 139.820002,47.4760037 139.508,46.732 C139.195998,45.9879963 139.04,45.016006 139.04,43.816 L139.04,26.608 C139.04,25.1679928 138.596004,24.1240032 137.708,23.476 C136.819996,22.8279968 135.752006,22.504 134.504,22.504 C133.639996,22.504 132.896003,22.6359987 132.272,22.9 C131.647997,23.1640013 131.120002,23.4159988 130.688,23.656 L130.688,48.928 C130.207998,49.0720007 129.452005,49.2159993 128.42,49.36 C127.387995,49.5040007 126.320006,49.576 125.216,49.576 C124.159995,49.576 123.212004,49.5040007 122.372,49.36 C121.531996,49.2159993 120.824003,48.9280022 120.248,48.496 C119.671997,48.0639978 119.228002,47.4760037 118.916,46.732 C118.603998,45.9879963 118.448,45.016006 118.448,43.816 L118.448,22.072 C118.448,20.7759935 118.723997,19.7440038 119.276,18.976 C119.828003,18.2079962 120.583995,17.4880034 121.544,16.816 C123.176008,15.6639942 125.203988,14.7280036 127.628,14.008 C130.052012,13.2879964 132.583987,12.928 135.224,12.928 Z M179.504,14.008 C179.504,11.5599878 179.923996,9.46000876 180.764,7.708 C181.604004,5.95599124 182.743993,4.51600564 184.184,3.388 C185.624007,2.25999436 187.31599,1.43200264 189.26,0.904 C191.20401,0.37599736 193.279989,0.112 195.488,0.112 C199.040018,0.112 201.655992,0.57999532 203.336,1.516 C205.016008,2.45200468 205.856,4.04798872 205.856,6.304 C205.856,7.2640048 205.652002,8.12799616 205.244,8.896 C204.835998,9.66400384 204.392002,10.2399981 203.912,10.624 C202.999995,10.3839988 202.052005,10.1800008 201.068,10.012 C200.083995,9.84399916 198.944006,9.76 197.648,9.76 C195.58399,9.76 193.976006,10.1079965 192.824,10.804 C191.671994,11.5000035 191.096,12.7119914 191.096,14.44 L191.096,16.744 L202.904,16.744 C203.192001,17.2720026 203.467999,17.931996 203.732,18.724 C203.996001,19.516004 204.128,20.3919952 204.128,21.352 C204.128,23.0320084 203.756004,24.2439963 203.012,24.988 C202.267996,25.7320037 201.272006,26.104 200.024,26.104 L191.744,26.104 L191.744,48.928 C191.263998,49.0720007 190.508005,49.2159993 189.476,49.36 C188.443995,49.5040007 187.376006,49.576 186.272,49.576 C185.215995,49.576 184.268004,49.5040007 183.428,49.36 C182.587996,49.2159993 181.880003,48.9280022 181.304,48.496 C180.727997,48.0639978 180.284002,47.4760037 179.972,46.732 C179.659998,45.9879963 179.504,45.016006 179.504,43.816 L179.504,14.008 Z M221.12,48.928 C220.639998,49.0720007 219.884005,49.2159993 218.852,49.36 C217.819995,49.5040007 216.752006,49.576 215.648,49.576 C214.591995,49.576 213.644004,49.5040007 212.804,49.36 C211.963996,49.2159993 211.256003,48.9280022 210.68,48.496 C210.103997,48.0639978 209.660002,47.4760037 209.348,46.732 C209.035998,45.9879963 208.88,45.016006 208.88,43.816 L208.88,22.216 C208.88,21.1119945 209.083998,20.164004 209.492,19.372 C209.900002,18.579996 210.487996,17.8720031 211.256,17.248 C212.024004,16.6239969 212.971994,16.0600025 214.1,15.556 C215.228006,15.0519975 216.439994,14.6080019 217.736,14.224 C219.032006,13.8399981 220.375993,13.5400011 221.768,13.324 C223.160007,13.1079989 224.551993,13 225.944,13 C228.248012,13 230.071993,13.4439956 231.416,14.332 C232.760007,15.2200044 233.432,16.6719899 233.432,18.688 C233.432,19.3600034 233.336001,20.0199968 233.144,20.668 C232.951999,21.3160032 232.712001,21.9039974 232.424,22.432 C231.415995,22.432 230.384005,22.4799995 229.328,22.576 C228.271995,22.6720005 227.240005,22.815999 226.232,23.008 C225.223995,23.200001 224.276004,23.4039989 223.388,23.62 C222.499996,23.8360011 221.744003,24.0879986 221.12,24.376 L221.12,48.928 Z M252.368,41.224 C253.184004,41.224 254.083995,41.1400008 255.068,40.972 C256.052005,40.8039992 256.783998,40.5760014 257.264,40.288 L257.264,34.528 L252.08,34.96 C250.735993,35.0560005 249.632004,35.3439976 248.768,35.824 C247.903996,36.3040024 247.472,37.0239952 247.472,37.984 C247.472,38.9440048 247.843996,39.723997 248.588,40.324 C249.332004,40.924003 250.591991,41.224 252.368,41.224 Z M251.792,12.928 C254.384013,12.928 256.747989,13.1919974 258.884,13.72 C261.020011,14.2480026 262.843992,15.0519946 264.356,16.132 C265.868008,17.2120054 267.031996,18.5799917 267.848,20.236 C268.664004,21.8920083 269.072,23.8479887 269.072,26.104 L269.072,42.232 C269.072,43.4800062 268.724003,44.499996 268.028,45.292 C267.331997,46.084004 266.504005,46.7679971 265.544,47.344 C262.423984,49.2160094 258.032028,50.152 252.368,50.152 C249.823987,50.152 247.53201,49.9120024 245.492,49.432 C243.45199,48.9519976 241.700007,48.2320048 240.236,47.272 C238.771993,46.3119952 237.644004,45.0880074 236.852,43.6 C236.059996,42.1119926 235.664,40.3840098 235.664,38.416 C235.664,35.1039834 236.64799,32.5600089 238.616,30.784 C240.58401,29.0079911 243.631979,27.9040022 247.76,27.472 L257.192,26.464 L257.192,25.96 C257.192,24.567993 256.580006,23.572003 255.356,22.972 C254.131994,22.371997 252.368012,22.072 250.064,22.072 C248.239991,22.072 246.464009,22.2639981 244.736,22.648 C243.007991,23.0320019 241.448007,23.5119971 240.056,24.088 C239.431997,23.6559978 238.904002,22.9960044 238.472,22.108 C238.039998,21.2199956 237.824,20.2960048 237.824,19.336 C237.824,18.0879938 238.123997,17.0920037 238.724,16.348 C239.324003,15.6039963 240.247994,14.9680026 241.496,14.44 C242.888007,13.9119974 244.531991,13.5280012 246.428,13.288 C248.324009,13.0479988 250.111992,12.928 251.792,12.928 Z M293.336,12.928 C295.30401,12.928 297.235991,13.2039972 299.132,13.756 C301.028009,14.3080028 302.671993,15.1359945 304.064,16.24 C305.504007,15.2799952 307.123991,14.4880031 308.924,13.864 C310.724009,13.2399969 312.895987,12.928 315.44,12.928 C317.264009,12.928 319.051991,13.1679976 320.804,13.648 C322.556009,14.1280024 324.115993,14.8839948 325.484,15.916 C326.852007,16.9480052 327.943996,18.3159915 328.76,20.02 C329.576004,21.7240085 329.984,23.7999878 329.984,26.248 L329.984,48.928 C329.503998,49.0720007 328.748005,49.2159993 327.716,49.36 C326.683995,49.5040007 325.616006,49.576 324.512,49.576 C323.455995,49.576 322.508004,49.5040007 321.668,49.36 C320.827996,49.2159993 320.120003,48.9280022 319.544,48.496 C318.967997,48.0639978 318.524002,47.4760037 318.212,46.732 C317.899998,45.9879963 317.744,45.016006 317.744,43.816 L317.744,26.608 C317.744,25.1679928 317.336004,24.1240032 316.52,23.476 C315.703996,22.8279968 314.600007,22.504 313.208,22.504 C312.535997,22.504 311.816004,22.6599984 311.048,22.972 C310.279996,23.2840016 309.704002,23.6079983 309.32,23.944 C309.368,24.136001 309.392,24.3159992 309.392,24.484 L309.392,48.928 C308.863997,49.0720007 308.084005,49.2159993 307.052,49.36 C306.019995,49.5040007 304.976005,49.576 303.92,49.576 C302.863995,49.576 301.916004,49.5040007 301.076,49.36 C300.235996,49.2159993 299.528003,48.9280022 298.952,48.496 C298.375997,48.0639978 297.932002,47.4760037 297.62,46.732 C297.307998,45.9879963 297.152,45.016006 297.152,43.816 L297.152,26.608 C297.152,25.1679928 296.708004,24.1240032 295.82,23.476 C294.931996,22.8279968 293.864006,22.504 292.616,22.504 C291.751996,22.504 291.008003,22.6359987 290.384,22.9 C289.759997,23.1640013 289.232002,23.4159988 288.8,23.656 L288.8,48.928 C288.319998,49.0720007 287.564005,49.2159993 286.532,49.36 C285.499995,49.5040007 284.432006,49.576 283.328,49.576 C282.271995,49.576 281.324004,49.5040007 280.484,49.36 C279.643996,49.2159993 278.936003,48.9280022 278.36,48.496 C277.783997,48.0639978 277.340002,47.4760037 277.028,46.732 C276.715998,45.9879963 276.56,45.016006 276.56,43.816 L276.56,22.072 C276.56,20.7759935 276.835997,19.7440038 277.388,18.976 C277.940003,18.2079962 278.695995,17.4880034 279.656,16.816 C281.288008,15.6639942 283.315988,14.7280036 285.74,14.008 C288.164012,13.2879964 290.695987,12.928 293.336,12.928 Z M355.976,50.152 C353.143986,50.152 350.516012,49.756004 348.092,48.964 C345.667988,48.171996 343.556009,46.9840079 341.756,45.4 C339.955991,43.8159921 338.540005,41.824012 337.508,39.424 C336.475995,37.023988 335.96,34.2160161 335.96,31 C335.96,27.8319842 336.475995,25.1080114 337.508,22.828 C338.540005,20.5479886 339.895992,18.6760073 341.576,17.212 C343.256008,15.7479927 345.175989,14.6680035 347.336,13.972 C349.496011,13.2759965 351.703989,12.928 353.96,12.928 C356.504013,12.928 358.81999,13.3119962 360.908,14.08 C362.99601,14.8480038 364.795992,15.9039933 366.308,17.248 C367.820008,18.5920067 368.995996,20.1999906 369.836,22.072 C370.676004,23.9440094 371.096,25.983989 371.096,28.192 C371.096,29.8240082 370.640005,31.0719957 369.728,31.936 C368.815995,32.8000043 367.544008,33.3519988 365.912,33.592 L348.128,36.256 C348.656003,37.8400079 349.735992,39.027996 351.368,39.82 C353.000008,40.612004 354.871989,41.008 356.984,41.008 C358.95201,41.008 360.811991,40.7560025 362.564,40.252 C364.316009,39.7479975 365.743994,39.1600034 366.848,38.488 C367.616004,38.9680024 368.263997,39.6399957 368.792,40.504 C369.320003,41.3680043 369.584,42.2799952 369.584,43.24 C369.584,45.4000108 368.57601,47.0079947 366.56,48.064 C365.023992,48.8800041 363.29601,49.4319986 361.376,49.72 C359.45599,50.0080014 357.656008,50.152 355.976,50.152 Z M353.96,21.856 C352.807994,21.856 351.812004,22.0479981 350.972,22.432 C350.131996,22.8160019 349.448003,23.307997 348.92,23.908 C348.391997,24.508003 347.996001,25.1799963 347.732,25.924 C347.467999,26.6680037 347.312,27.4239962 347.264,28.192 L359.576,26.176 C359.431999,25.2159952 358.904005,24.2560048 357.992,23.296 C357.079995,22.3359952 355.736009,21.856 353.96,21.856 Z M389.24,48.928 C388.759998,49.0720007 388.004005,49.2159993 386.972,49.36 C385.939995,49.5040007 384.872006,49.576 383.768,49.576 C382.711995,49.576 381.764004,49.5040007 380.924,49.36 C380.083996,49.2159993 379.376003,48.9280022 378.8,48.496 C378.223997,48.0639978 377.780002,47.4760037 377.468,46.732 C377.155998,45.9879963 377,45.016006 377,43.816 L377,22.216 C377,21.1119945 377.203998,20.164004 377.612,19.372 C378.020002,18.579996 378.607996,17.8720031 379.376,17.248 C380.144004,16.6239969 381.091994,16.0600025 382.22,15.556 C383.348006,15.0519975 384.559994,14.6080019 385.856,14.224 C387.152006,13.8399981 388.495993,13.5400011 389.888,13.324 C391.280007,13.1079989 392.671993,13 394.064,13 C396.368012,13 398.191993,13.4439956 399.536,14.332 C400.880007,15.2200044 401.552,16.6719899 401.552,18.688 C401.552,19.3600034 401.456001,20.0199968 401.264,20.668 C401.071999,21.3160032 400.832001,21.9039974 400.544,22.432 C399.535995,22.432 398.504005,22.4799995 397.448,22.576 C396.391995,22.6720005 395.360005,22.815999 394.352,23.008 C393.343995,23.200001 392.396004,23.4039989 391.508,23.62 C390.619996,23.8360011 389.864003,24.0879986 389.24,24.376 L389.24,48.928 Z" id="Atomframer" fill="#007AFF"></path>
    </g>
</svg>