<?xml version="1.0" encoding="UTF-8"?>
<svg width="29px" height="29px" viewBox="0 0 29 29" version="1.1" xmlns="http://www.w3.org/2000/svg" xmlns:xlink="http://www.w3.org/1999/xlink">
    <!-- Generator: Sketch 47.1 (45422) - http://www.bohemiancoding.com/sketch -->
    <title>bookmark</title>
    <desc>Created with Sketch.</desc>
    <defs></defs>
    <g id="Atomframer" stroke="none" stroke-width="1" fill="none" fill-rule="evenodd">
        <g id="Artboard" transform="translate(-10.000000, -10.000000)" fill-rule="nonzero">
            <g id="bookmark" transform="translate(10.000000, 10.000000)">
                <rect id="Rectangle" fill="#FFFFFF" x="0" y="0" width="29" height="29" rx="4"></rect>
                <path d="M19.5,5 L9.5,5 C7.8,5 6.5,6.3 6.5,8 L6.5,24 C6.5,24.4 6.7,24.7 7,24.9 C7.3,25.1 7.7,25 8,24.8 L14.4,20.2 L20.8,24.8 C21,24.9 21.2,25 21.4,25 C21.6,25 21.7,25 21.9,24.9 C22.2,24.7 22.4,24.4 22.4,24 L22.4,8 C22.5,6.3 21.2,5 19.5,5 L19.5,5 Z M20.5,22.1 L15.1,18.2 C14.9,18.1 14.7,18 14.5,18 C14.3,18 14.1,18.1 13.9,18.2 L8.5,22.1 L8.5,8 C8.5,7.4 8.9,7 9.5,7 L19.5,7 C20.1,7 20.5,7.4 20.5,8 L20.5,22.1 Z" id="Shape" fill="#ABB4BD"></path>
            </g>
        </g>
    </g>
</svg>