<?xml version="1.0" encoding="UTF-8"?>
<svg width="29px" height="29px" viewBox="0 0 29 29" version="1.1" xmlns="http://www.w3.org/2000/svg" xmlns:xlink="http://www.w3.org/1999/xlink">
    <!-- Generator: Sketch 47.1 (45422) - http://www.bohemiancoding.com/sketch -->
    <title>briefcase</title>
    <desc>Created with Sketch.</desc>
    <defs></defs>
    <g id="Atomframer" stroke="none" stroke-width="1" fill="none" fill-rule="evenodd">
        <g id="Artboard" transform="translate(-168.000000, -10.000000)" fill-rule="nonzero">
            <g id="briefcase" transform="translate(168.000000, 10.000000)">
                <rect id="Rectangle" fill="#FFFFFF" x="0.483333333" y="0" width="28.0333333" height="29" rx="4"></rect>
                <path d="M22.2333333,9 L19.3333333,9 L19.3333333,8 C19.3333333,6.3 18.0766667,5 16.4333333,5 L12.5666667,5 C10.9233333,5 9.66666667,6.3 9.66666667,8 L9.66666667,9 L6.76666667,9 C5.12333333,9 3.86666667,10.3 3.86666667,12 L3.86666667,22 C3.86666667,23.7 5.12333333,25 6.76666667,25 L22.2333333,25 C23.8766667,25 25.1333333,23.7 25.1333333,22 L25.1333333,12 C25.1333333,10.3 23.8766667,9 22.2333333,9 Z M11.6,8 C11.6,7.4 11.9866667,7 12.5666667,7 L16.4333333,7 C17.0133333,7 17.4,7.4 17.4,8 L17.4,9 L11.6,9 L11.6,8 Z M17.4,11 L17.4,23 L11.6,23 L11.6,11 L17.4,11 Z M5.8,22 L5.8,12 C5.8,11.4 6.18666667,11 6.76666667,11 L9.66666667,11 L9.66666667,23 L6.76666667,23 C6.18666667,23 5.8,22.6 5.8,22 Z M23.2,22 C23.2,22.6 22.8133333,23 22.2333333,23 L19.3333333,23 L19.3333333,11 L22.2333333,11 C22.8133333,11 23.2,11.4 23.2,12 L23.2,22 Z" id="Shape" fill="#ABB4BD"></path>
            </g>
        </g>
    </g>
</svg>