<?xml version="1.0" encoding="UTF-8"?>
<svg width="178px" height="140px" viewBox="0 0 178 140" version="1.1" xmlns="http://www.w3.org/2000/svg" xmlns:xlink="http://www.w3.org/1999/xlink">
    <!-- Generator: Sketch 47.1 (45422) - http://www.bohemiancoding.com/sketch -->
    <title>C14</title>
    <desc>Created with Sketch.</desc>
    <defs></defs>
    <g id="Atomframer" stroke="none" stroke-width="1" fill="none" fill-rule="evenodd">
        <g id="内容容器-copy" transform="translate(-206.000000, -1192.000000)">
            <g id="C14" transform="translate(206.000000, 1192.000000)">
                <g>
                    <rect id="Rectangle-13-Copy-13" fill="#FFFFFF" x="0" y="0" width="178" height="140" rx="3"></rect>
                    <text id="小尺寸水平滚动卡片辑" font-family="PingFangSC-Regular, PingFang SC" font-size="12" font-weight="normal" fill="#767676">
                        <tspan x="29" y="110">小尺寸水平滚动卡片辑</tspan>
                    </text>
                    <rect id="Rectangle" fill="#404040" opacity="0.249999985" x="32" y="71" width="29" height="3"></rect>
                    <rect id="Rectangle-Copy-3" fill="#404040" opacity="0.249999985" x="32" y="76" width="19" height="3"></rect>
                    <rect id="Rectangle-Copy" fill="#404040" opacity="0.249999985" x="69" y="71" width="29" height="3"></rect>
                    <rect id="Rectangle-Copy-4" fill="#404040" opacity="0.249999985" x="69" y="76" width="19" height="3"></rect>
                    <rect id="Rectangle-Copy-2" fill="#404040" opacity="0.249999985" x="107" y="71" width="29" height="3"></rect>
                    <rect id="Rectangle-Copy-5" fill="#404040" opacity="0.249999985" x="107" y="76" width="19" height="3"></rect>
                    <rect id="Combined-Shape" fill="#404040" x="30.3802817" y="33" width="32.7042254" height="33" rx="3.65070437"></rect>
                    <rect id="Combined-Shape-Copy" fill="#404040" x="67.6478873" y="33" width="32.7042254" height="33" rx="3.65070437"></rect>
                    <rect id="Combined-Shape-Copy-3" fill="#404040" x="104.915493" y="33" width="32.7042254" height="33" rx="3.65070437"></rect>
                    <path d="M145.666667,33 L148,33 L148,66 L145.666667,66 L145.666667,66 C143.641623,66 142,64.3583774 142,62.3333333 L142,36.6666667 L142,36.6666667 C142,34.6416226 143.641623,33 145.666667,33 Z" id="Combined-Shape-Copy-11" fill="#404040"></path>
                </g>
                <g id="Group-11-Copy" transform="translate(30.000000, 38.000000)">
                    <g id="Group-8-Copy">
                        <g id="Group-4-Copy-5">
                            <g id="Group-5" transform="translate(0.380282, 0.000000)"></g>
                        </g>
                    </g>
                </g>
            </g>
        </g>
    </g>
</svg>