<?xml version="1.0" encoding="UTF-8"?>
<svg width="178px" height="140px" viewBox="0 0 178 140" version="1.1" xmlns="http://www.w3.org/2000/svg" xmlns:xlink="http://www.w3.org/1999/xlink">
    <!-- Generator: Sketch 47.1 (45422) - http://www.bohemiancoding.com/sketch -->
    <title>C15</title>
    <desc>Created with Sketch.</desc>
    <defs></defs>
    <g id="Atomframer" stroke="none" stroke-width="1" fill="none" fill-rule="evenodd">
        <g id="内容容器-copy" transform="translate(-15.000000, -1385.000000)">
            <g id="C15" transform="translate(15.000000, 1385.000000)">
                <g id="Group-11" transform="translate(29.000000, 39.000000)"></g>
                <g>
                    <rect id="Rectangle-13-Copy-11" fill="#FFFFFF" x="0" y="0" width="178" height="140" rx="3"></rect>
                    <text id="水平滚动缩略图列表" font-family="PingFangSC-Regular, PingFang SC" font-size="12" font-weight="normal" fill="#767676">
                        <tspan x="35" y="110">水平滚动缩略图列表</tspan>
                    </text>
                    <path d="M145.8,34 L149,34 L149,77.2 L145.8,77.2 L145.8,77.2 C143.149033,77.2 141,75.0509668 141,72.4 L141,38.8 L141,38.8 C141,36.1490332 143.149033,34 145.8,34 Z" id="Combined-Shape-Copy-10" fill="#404040"></path>
                    <path d="M33.8,34 L132.2,34 C134.850967,34 137,36.1490332 137,38.8 L137,72.4 C137,75.0509668 134.850967,77.2 132.2,77.2 L33.8,77.2 C31.1490332,77.2 29,75.0509668 29,72.4 L29,38.8 L29,38.8 C29,36.1490332 31.1490332,34 33.8,34 L33.8,34 Z M39,42 C37.8954305,42 37,42.8954305 37,44 L37,67 C37,68.1045695 37.8954305,69 39,69 L62,69 C63.1045695,69 64,68.1045695 64,67 L64,44 C64,42.8954305 63.1045695,42 62,42 L39,42 Z M72,43 L72,47 L93,47 L93,43 L72,43 Z M72,57 L72,61 L114,61 L114,57 L72,57 Z M72,64 L72,68 L114,68 L114,64 L72,64 Z" id="Combined-Shape" fill="#404040"></path>
                </g>
            </g>
        </g>
    </g>
</svg>