<?xml version="1.0" encoding="UTF-8"?>
<svg width="178px" height="140px" viewBox="0 0 178 140" version="1.1" xmlns="http://www.w3.org/2000/svg" xmlns:xlink="http://www.w3.org/1999/xlink">
    <!-- Generator: Sketch 47.1 (45422) - http://www.bohemiancoding.com/sketch -->
    <title>C5</title>
    <desc>Created with Sketch.</desc>
    <defs></defs>
    <g id="Atomframer" stroke="none" stroke-width="1" fill="none" fill-rule="evenodd">
        <g id="内容容器-copy" transform="translate(-15.000000, -420.000000)">
            <g id="C5" transform="translate(15.000000, 420.000000)">
                <rect id="Rectangle-13-Copy-4" fill="#FFFFFF" x="0" y="0" width="178" height="140" rx="3"></rect>
                <text id="2x-专辑" font-family="PingFangSC-Regular, PingFang SC" font-size="12" font-weight="normal" fill="#767676">
                    <tspan x="68.348" y="110">2x 专辑</tspan>
                </text>
                <g id="Group-4" transform="translate(43.000000, 34.000000)" fill="#404040">
                    <path d="M4.80000019,0 L38.1999998,0 C40.8509667,-4.8697472e-16 43,2.14903329 43,4.80000019 L43,38.1999998 C43,40.8509667 40.8509667,43 38.1999998,43 L4.80000019,43 C2.14903329,43 3.24649813e-16,40.8509667 0,38.1999998 L0,4.80000019 L0,4.80000019 C-3.24649813e-16,2.14903329 2.14903329,4.8697472e-16 4.80000019,0 L4.80000019,0 Z M10.0999985,18.6 L10.0999985,24.6 L32.8999985,24.6 L32.8999985,18.6 L10.0999985,18.6 Z" id="Combined-Shape"></path>
                    <path d="M53.8000002,0 L87.1999998,0 C89.8509667,-4.8697472e-16 92,2.14903329 92,4.80000019 L92,38.1999998 C92,40.8509667 89.8509667,43 87.1999998,43 L53.8000002,43 C51.1490333,43 49,40.8509667 49,38.1999998 L49,4.80000019 L49,4.80000019 C49,2.14903329 51.1490333,4.8697472e-16 53.8000002,0 L53.8000002,0 Z M59.0999985,18.6 L59.0999985,24.6 L81.8999985,24.6 L81.8999985,18.6 L59.0999985,18.6 Z" id="Combined-Shape-Copy"></path>
                </g>
            </g>
        </g>
    </g>
</svg>