<?xml version="1.0" encoding="UTF-8"?>
<svg width="178px" height="140px" viewBox="0 0 178 140" version="1.1" xmlns="http://www.w3.org/2000/svg" xmlns:xlink="http://www.w3.org/1999/xlink">
    <!-- Generator: Sketch 47.1 (45422) - http://www.bohemiancoding.com/sketch -->
    <title>C7</title>
    <desc>Created with Sketch.</desc>
    <defs></defs>
    <g id="Atomframer" stroke="none" stroke-width="1" fill="none" fill-rule="evenodd">
        <g id="内容容器-copy" transform="translate(-15.000000, -613.000000)">
            <g id="C7" transform="translate(15.000000, 613.000000)">
                <g>
                    <rect id="Rectangle-13-Copy-5" fill="#FFFFFF" x="0" y="0" width="178" height="140" rx="3"></rect>
                    <text id="大尺寸水平滚动专辑" font-family="PingFangSC-Regular, PingFang SC" font-size="12" font-weight="normal" fill="#767676">
                        <tspan x="35" y="110">大尺寸水平滚动专辑</tspan>
                    </text>
                    <path d="M45.8,34 L120.2,34 C122.850967,34 125,36.1490332 125,38.8 L125,72.4 C125,75.0509668 122.850967,77.2 120.2,77.2 L45.8,77.2 L45.8,77.2 C43.1490332,77.2 41,75.0509668 41,72.4 L41,38.8 L41,38.8 C41,36.1490332 43.1490332,34 45.8,34 L45.8,34 Z M50.6,62.6 L50.6,68.6 L73.4,68.6 L73.4,62.6 L50.6,62.6 Z" id="Combined-Shape" fill="#404040"></path>
                    <path d="M133.8,34 L137,34 L137,77.2 L133.8,77.2 L133.8,77.2 C131.149033,77.2 129,75.0509668 129,72.4 L129,38.8 L129,38.8 C129,36.1490332 131.149033,34 133.8,34 Z" id="Combined-Shape-Copy-10" fill="#404040"></path>
                </g>
                <g id="Group-Copy" transform="translate(41.000000, 39.000000)"></g>
            </g>
        </g>
    </g>
</svg>