<?xml version="1.0" encoding="UTF-8"?>
<svg width="178px" height="140px" viewBox="0 0 178 140" version="1.1" xmlns="http://www.w3.org/2000/svg" xmlns:xlink="http://www.w3.org/1999/xlink">
    <!-- Generator: Sketch 47.1 (45422) - http://www.bohemiancoding.com/sketch -->
    <title>C8</title>
    <desc>Created with Sketch.</desc>
    <defs></defs>
    <g id="Atomframer" stroke="none" stroke-width="1" fill="none" fill-rule="evenodd">
        <g id="内容容器-copy" transform="translate(-206.000000, -613.000000)">
            <g id="C8" transform="translate(206.000000, 613.000000)">
                <g>
                    <rect id="Rectangle-13-Copy-7" fill="#FFFFFF" x="0" y="0" width="178" height="140" rx="3"></rect>
                    <text id="中尺寸水平滚动专辑" font-family="PingFangSC-Regular, PingFang SC" font-size="12" font-weight="normal" fill="#767676">
                        <tspan x="35" y="110">中尺寸水平滚动专辑</tspan>
                    </text>
                    <path d="M137.8,34 L141,34 L141,77.2 L137.8,77.2 L137.8,77.2 C135.149033,77.2 133,75.0509668 133,72.4 L133,38.8 L133,38.8 C133,36.1490332 135.149033,34 137.8,34 Z" id="Combined-Shape-Copy-10" fill="#404040"></path>
                    <path d="M41.8000002,34 L75.1999998,34 C77.8509667,34 80,36.1490333 80,38.8000002 L80,72.1999998 C80,74.8509667 77.8509667,77 75.1999998,77 L41.8000002,77 C39.1490333,77 37,74.8509667 37,72.1999998 L37,38.8000002 L37,38.8000002 C37,36.1490333 39.1490333,34 41.8000002,34 L41.8000002,34 Z M47.0999985,52.6 L47.0999985,58.6 L69.8999985,58.6 L69.8999985,52.6 L47.0999985,52.6 Z" id="Combined-Shape" fill="#404040"></path>
                    <path d="M90.8000002,34 L124.2,34 C126.850967,34 129,36.1490333 129,38.8000002 L129,72.1999998 C129,74.8509667 126.850967,77 124.2,77 L90.8000002,77 C88.1490333,77 86,74.8509667 86,72.1999998 L86,38.8000002 L86,38.8000002 C86,36.1490333 88.1490333,34 90.8000002,34 L90.8000002,34 Z M96.0999985,52.6 L96.0999985,58.6 L118.899998,58.6 L118.899998,52.6 L96.0999985,52.6 Z" id="Combined-Shape-Copy" fill="#404040"></path>
                </g>
                <g id="Group-2" transform="translate(37.000000, 39.000000)">
                    <g id="Group-Copy-2" transform="translate(96.000000, 0.000000)"></g>
                    <g id="Group-4-Copy-2"></g>
                </g>
            </g>
        </g>
    </g>
</svg>