<?xml version="1.0" encoding="UTF-8"?>
<svg width="178px" height="140px" viewBox="0 0 178 140" version="1.1" xmlns="http://www.w3.org/2000/svg" xmlns:xlink="http://www.w3.org/1999/xlink">
    <!-- Generator: Sketch 47.1 (45422) - http://www.bohemiancoding.com/sketch -->
    <title>C9</title>
    <desc>Created with Sketch.</desc>
    <defs></defs>
    <g id="Atomframer" stroke="none" stroke-width="1" fill="none" fill-rule="evenodd">
        <g id="内容容器-copy" transform="translate(-15.000000, -806.000000)">
            <g id="C9" transform="translate(15.000000, 806.000000)">
                <rect id="Rectangle-13-Copy-8" fill="#FFFFFF" x="0" y="0" width="178" height="140" rx="3"></rect>
                <text id="小尺寸水平滚动专辑" font-family="PingFangSC-Regular, PingFang SC" font-size="12" font-weight="normal" fill="#767676">
                    <tspan x="35" y="110">小尺寸水平滚动专辑</tspan>
                </text>
                <polygon id="Triangle-2" fill="#FFFFFF" transform="translate(90.000000, 61.000000) rotate(90.000000) translate(-90.000000, -61.000000) " points="90 56 96 66 84 66"></polygon>
                <g id="Group-6" transform="translate(30.000000, 40.000000)" fill="#404040">
                    <g id="Group-4-Copy-3">
                        <g id="Group-5" transform="translate(0.380282, 0.000000)">
                            <path d="M3.65070437,0 L29.053521,0 L29.053521,8.8817842e-16 C31.0697493,5.1780328e-16 32.7042254,1.63447602 32.7042254,3.65070437 L32.7042254,29.3492956 C32.7042254,31.365524 31.0697493,33 29.053521,33 L3.65070437,33 L3.65070437,33 C1.63447602,33 -1.08535087e-15,31.365524 -1.33226763e-15,29.3492956 L0,3.65070437 L0,3.65070437 C-2.4691676e-16,1.63447602 1.63447602,1.25855356e-15 3.65070437,8.8817842e-16 L3.65070437,0 Z M7.68168898,14.2744186 L7.68168898,18.8790698 L25.0225341,18.8790698 L25.0225341,14.2744186 L7.68168898,14.2744186 Z" id="Combined-Shape"></path>
                            <path d="M40.91831,0 L66.3211266,0 L66.3211266,8.8817842e-16 C68.337355,5.1780328e-16 69.971831,1.63447602 69.971831,3.65070437 L69.971831,29.3492956 C69.971831,31.365524 68.337355,33 66.3211266,33 L40.91831,33 L40.91831,33 C38.9020817,33 37.2676056,31.365524 37.2676056,29.3492956 L37.2676056,3.65070437 L37.2676056,3.65070437 C37.2676056,1.63447602 38.9020817,1.25855356e-15 40.91831,8.8817842e-16 L40.91831,0 Z M44.9492946,14.2744186 L44.9492946,18.8790698 L62.2901397,18.8790698 L62.2901397,14.2744186 L44.9492946,14.2744186 Z" id="Combined-Shape-Copy"></path>
                            <path d="M78.1859156,0 L103.588732,0 L103.588732,8.8817842e-16 C105.604961,5.1780328e-16 107.239437,1.63447602 107.239437,3.65070437 L107.239437,29.3492956 C107.239437,31.365524 105.604961,33 103.588732,33 L78.1859156,33 L78.1859156,33 C76.1696873,33 74.5352113,31.365524 74.5352113,29.3492956 L74.5352113,3.65070437 L74.5352113,3.65070437 C74.5352113,1.63447602 76.1696873,1.25855356e-15 78.1859156,8.8817842e-16 L78.1859156,0 Z M82.2169002,14.2744186 L82.2169002,18.8790698 L99.5577453,18.8790698 L99.5577453,14.2744186 L82.2169002,14.2744186 Z" id="Combined-Shape-Copy-3"></path>
                        </g>
                    </g>
                    <path d="M115.666667,0 L118,0 L118,33 L115.666667,33 L115.666667,33 C113.641623,33 112,31.3583774 112,29.3333333 L112,3.66666667 L112,3.66666667 C112,1.64162258 113.641623,3.71994563e-16 115.666667,0 Z" id="Combined-Shape-Copy-11"></path>
                </g>
            </g>
        </g>
    </g>
</svg>