<?xml version="1.0" encoding="UTF-8"?>
<svg width="29px" height="29px" viewBox="0 0 29 29" version="1.1" xmlns="http://www.w3.org/2000/svg" xmlns:xlink="http://www.w3.org/1999/xlink">
    <!-- Generator: Sketch 47.1 (45422) - http://www.bohemiancoding.com/sketch -->
    <title>camera</title>
    <desc>Created with Sketch.</desc>
    <defs></defs>
    <g id="Atomframer" stroke="none" stroke-width="1" fill="none" fill-rule="evenodd">
        <g id="Artboard" transform="translate(-88.000000, -10.000000)" fill-rule="nonzero">
            <g id="camera" transform="translate(88.000000, 10.000000)">
                <rect id="Rectangle" fill="#FFFFFF" x="0.483333333" y="0" width="28.0333333" height="29" rx="4"></rect>
                <path d="M23.2,8 L19.8166667,8 L18.1733333,5.4 C17.98,5.2 17.69,5 17.4,5 L11.6,5 C11.31,5 11.02,5.2 10.8266667,5.4 L9.18333333,8 L5.8,8 C4.15666667,8 2.9,9.3 2.9,11 L2.9,22 C2.9,23.7 4.15666667,25 5.8,25 L23.2,25 C24.8433333,25 26.1,23.7 26.1,22 L26.1,11 C26.1,9.3 24.8433333,8 23.2,8 Z M24.1666667,22 C24.1666667,22.6 23.78,23 23.2,23 L5.8,23 C5.22,23 4.83333333,22.6 4.83333333,22 L4.83333333,11 C4.83333333,10.4 5.22,10 5.8,10 L9.66666667,10 C9.95666667,10 10.2466667,9.8 10.44,9.6 L12.0833333,7 L16.82,7 L18.4633333,9.6 C18.7533333,9.8 19.0433333,10 19.3333333,10 L23.2,10 C23.78,10 24.1666667,10.4 24.1666667,11 L24.1666667,22 Z" id="Shape" fill="#ABB4BD"></path>
                <path d="M14.5,11 C11.7933333,11 9.66666667,13.2 9.66666667,16 C9.66666667,18.8 11.7933333,21 14.5,21 C17.2066667,21 19.3333333,18.8 19.3333333,16 C19.3333333,13.2 17.2066667,11 14.5,11 Z M14.5,19 C12.8566667,19 11.6,17.7 11.6,16 C11.6,14.3 12.8566667,13 14.5,13 C16.1433333,13 17.4,14.3 17.4,16 C17.4,17.7 16.1433333,19 14.5,19 Z" id="Shape" fill="#ABB4BD"></path>
            </g>
        </g>
    </g>
</svg>