<?xml version="1.0" encoding="UTF-8"?>
<svg width="29px" height="29px" viewBox="0 0 29 29" version="1.1" xmlns="http://www.w3.org/2000/svg" xmlns:xlink="http://www.w3.org/1999/xlink">
    <!-- Generator: Sketch 47.1 (45422) - http://www.bohemiancoding.com/sketch -->
    <title>clock</title>
    <desc>Created with Sketch.</desc>
    <defs></defs>
    <g id="Atomframer" stroke="none" stroke-width="1" fill="none" fill-rule="evenodd">
        <g id="Artboard" transform="translate(-128.000000, -10.000000)" fill-rule="nonzero">
            <g id="clock" transform="translate(128.000000, 10.000000)">
                <rect id="Rectangle" fill="#FFFFFF" x="0.483333333" y="0" width="28.0333333" height="29" rx="4"></rect>
                <g id="Group" transform="translate(3.866667, 3.500000)" fill="#ABB4BD">
                    <path d="M10.6333333,0 C4.73666667,0 0,4.9 0,11 C0,17.1 4.73666667,22 10.6333333,22 C16.53,22 21.2666667,17.1 21.2666667,11 C21.2666667,4.9 16.53,0 10.6333333,0 Z M10.6333333,20 C5.8,20 1.93333333,16 1.93333333,11 C1.93333333,6 5.8,2 10.6333333,2 C15.4666667,2 19.3333333,6 19.3333333,11 C19.3333333,16 15.4666667,20 10.6333333,20 Z" id="Shape"></path>
                    <path d="M14.8866667,12.1 L11.6,10.4 L11.6,5 C11.6,4.4 11.2133333,4 10.6333333,4 C10.0533333,4 9.66666667,4.4 9.66666667,5 L9.66666667,11 C9.66666667,11.4 9.86,11.7 10.2466667,11.9 L14.1133333,13.9 C14.21,14 14.3066667,14 14.5,14 C14.8866667,14 15.1766667,13.8 15.37,13.4 C15.5633333,13 15.37,12.4 14.8866667,12.1 Z" id="Shape"></path>
                </g>
            </g>
        </g>
    </g>
</svg>