<?xml version="1.0" encoding="UTF-8"?>
<svg width="178px" height="140px" viewBox="0 0 178 140" version="1.1" xmlns="http://www.w3.org/2000/svg" xmlns:xlink="http://www.w3.org/1999/xlink">
    <!-- Generator: Sketch 47.1 (45422) - http://www.bohemiancoding.com/sketch -->
    <title>CN1</title>
    <desc>Created with Sketch.</desc>
    <defs></defs>
    <g id="Atomframer" stroke="none" stroke-width="1" fill="none" fill-rule="evenodd">
        <g id="页内导航-copy" transform="translate(-15.000000, -34.000000)">
            <g id="CN1" transform="translate(15.000000, 34.000000)">
                <rect id="Rectangle-13" fill="#FFFFFF" x="0" y="0" width="178" height="140" rx="3"></rect>
                <text id="3x-图标组" font-family="PingFangSC-Regular, PingFang SC" font-size="12" font-weight="normal" fill="#767676">
                    <tspan x="62.348" y="110">3x 图标组</tspan>
                </text>
                <path d="M39.8,44 L138.2,44 L138.2,44 C140.850967,44 143,46.1490332 143,48.8 L143,63.2 C143,65.8509668 140.850967,68 138.2,68 L39.8,68 L39.8,68 C37.1490332,68 35,65.8509668 35,63.2 L35,48.8 L35,48.8 C35,46.1490332 37.1490332,44 39.8,44 L39.8,44 Z M46.8,50 L46.8,50 C44.1490332,50 42,52.1490332 42,54.8 L42,54.8 L42,57.2 C42,59.8509668 44.1490332,62 46.8,62 L49.2,62 C51.8509668,62 54,59.8509668 54,57.2 L54,54.8 C54,52.1490332 51.8509668,50 49.2,50 L49.2,50 L46.8,50 Z M87.8,50 L87.8,50 C85.1490332,50 83,52.1490332 83,54.8 L83,57.2 C83,59.8509668 85.1490332,62 87.8,62 L90.2,62 C92.8509668,62 95,59.8509668 95,57.2 L95,54.8 C95,52.1490332 92.8509668,50 90.2,50 L90.2,50 L87.8,50 Z M128.8,50 L128.8,50 C126.149033,50 124,52.1490332 124,54.8 L124,57.2 C124,59.8509668 126.149033,62 128.8,62 L131.2,62 C133.850967,62 136,59.8509668 136,57.2 L136,54.8 C136,52.1490332 133.850967,50 131.2,50 L131.2,50 L128.8,50 Z" id="Combined-Shape-Copy-10" fill="#404040"></path>
            </g>
        </g>
    </g>
</svg>