<?xml version="1.0" encoding="UTF-8"?>
<svg width="178px" height="140px" viewBox="0 0 178 140" version="1.1" xmlns="http://www.w3.org/2000/svg" xmlns:xlink="http://www.w3.org/1999/xlink">
    <!-- Generator: Sketch 47.1 (45422) - http://www.bohemiancoding.com/sketch -->
    <title>CN4</title>
    <desc>Created with Sketch.</desc>
    <defs></defs>
    <g id="Atomframer" stroke="none" stroke-width="1" fill="none" fill-rule="evenodd">
        <g id="页内导航-copy" transform="translate(-206.000000, -227.000000)">
            <g id="CN4" transform="translate(206.000000, 227.000000)">
                <rect id="Rectangle-13-Copy-3" fill="#FFFFFF" x="0" y="0" width="178" height="140" rx="3"></rect>
                <text id="4x-宫格" font-family="PingFangSC-Regular, PingFang SC" font-size="12" font-weight="normal" fill="#767676">
                    <tspan x="68.348" y="110">4x 宫格</tspan>
                </text>
                <path d="M39.8,34 L138.2,34 C140.850967,34 143,36.1490332 143,38.8 L143,72.4 C143,75.0509668 140.850967,77.2 138.2,77.2 L39.8,77.2 C37.1490332,77.2 35,75.0509668 35,72.4 L35,38.8 L35,38.8 C35,36.1490332 37.1490332,34 39.8,34 L39.8,34 Z M51.8,47 L51.8,47 C49.1490332,47 47,49.1490332 47,51.8 L47,54.2 C47,56.8509668 49.1490332,59 51.8,59 L54.2,59 C56.8509668,59 59,56.8509668 59,54.2 L59,51.8 C59,49.1490332 56.8509668,47 54.2,47 L51.8,47 Z M75.8,47 C73.1490332,47 71,49.1490332 71,51.8 L71,54.2 C71,56.8509668 73.1490332,59 75.8,59 L78.2,59 C80.8509668,59 83,56.8509668 83,54.2 L83,51.8 C83,49.1490332 80.8509668,47 78.2,47 L75.8,47 Z M99.8,47 C97.1490332,47 95,49.1490332 95,51.8 L95,54.2 C95,56.8509668 97.1490332,59 99.8,59 L102.2,59 C104.850967,59 107,56.8509668 107,54.2 L107,51.8 C107,49.1490332 104.850967,47 102.2,47 L99.8,47 Z M123.8,47 C121.149033,47 119,49.1490332 119,51.8 L119,54.2 C119,56.8509668 121.149033,59 123.8,59 L126.2,59 C128.850967,59 131,56.8509668 131,54.2 L131,51.8 C131,49.1490332 128.850967,47 126.2,47 L123.8,47 Z M47,63 L47,66 L58.4971298,66 L58.4971298,63 L47,63 Z M71,63 L71,66 L82.4971298,66 L82.4971298,63 L71,63 Z M95,63 L95,66 L106.49713,66 L106.49713,63 L95,63 Z M119,63 L119,66 L130.49713,66 L130.49713,63 L119,63 Z" id="Combined-Shape" fill="#404040"></path>
            </g>
        </g>
    </g>
</svg>