<?xml version="1.0" encoding="UTF-8"?>
<svg width="178px" height="140px" viewBox="0 0 178 140" version="1.1" xmlns="http://www.w3.org/2000/svg" xmlns:xlink="http://www.w3.org/1999/xlink">
    <!-- Generator: Sketch 47.1 (45422) - http://www.bohemiancoding.com/sketch -->
    <title>CN5</title>
    <desc>Created with Sketch.</desc>
    <defs></defs>
    <g id="Atomframer" stroke="none" stroke-width="1" fill="none" fill-rule="evenodd">
        <g id="页内导航-copy" transform="translate(-15.000000, -420.000000)">
            <g id="CN5" transform="translate(15.000000, 420.000000)">
                <rect id="Rectangle-13-Copy-4" fill="#FFFFFF" x="0" y="0" width="178" height="140" rx="3"></rect>
                <text id="5x-宫格" font-family="PingFangSC-Regular, PingFang SC" font-size="12" font-weight="normal" fill="#767676">
                    <tspan x="68.348" y="110">5x 宫格</tspan>
                </text>
                <g id="Group-2-Copy" transform="translate(35.000000, 34.000000)" fill="#404040">
                    <path d="M4.8,0 L103.2,0 C105.850967,-4.86974701e-16 108,2.1490332 108,4.8 L108,38.4 C108,41.0509668 105.850967,43.2 103.2,43.2 L4.8,43.2 C2.1490332,43.2 4.7655419e-15,41.0509668 4.4408921e-15,38.4 L0,4.8 L0,4.8 C-3.24649801e-16,2.1490332 2.1490332,1.37515312e-15 4.8,8.8817842e-16 L4.8,0 Z M11.8,13 L11.8,13 C9.1490332,13 7,15.1490332 7,17.8 L7,20.2 C7,22.8509668 9.1490332,25 11.8,25 L14.2,25 C16.8509668,25 19,22.8509668 19,20.2 L19,17.8 C19,15.1490332 16.8509668,13 14.2,13 L11.8,13 Z M52.8,13 C50.1490332,13 48,15.1490332 48,17.8 L48,20.2 C48,22.8509668 50.1490332,25 52.8,25 L55.2,25 C57.8509668,25 60,22.8509668 60,20.2 L60,17.8 C60,15.1490332 57.8509668,13 55.2,13 L52.8,13 Z M32.3,13 C29.6490332,13 27.5,15.1490332 27.5,17.8 L27.5,20.2 C27.5,22.8509668 29.6490332,25 32.3,25 L34.7,25 C37.3509668,25 39.5,22.8509668 39.5,20.2 L39.5,17.8 C39.5,15.1490332 37.3509668,13 34.7,13 L32.3,13 Z M73.8,13 C71.1490332,13 69,15.1490332 69,17.8 L69,20.2 C69,22.8509668 71.1490332,25 73.8,25 L76.2,25 C78.8509668,25 81,22.8509668 81,20.2 L81,17.8 C81,15.1490332 78.8509668,13 76.2,13 L73.8,13 Z M93.8,13 C91.1490332,13 89,15.1490332 89,17.8 L89,20.2 C89,22.8509668 91.1490332,25 93.8,25 L96.2,25 C98.8509668,25 101,22.8509668 101,20.2 L101,17.8 C101,15.1490332 98.8509668,13 96.2,13 L93.8,13 Z M7,29 L7,32 L18.4971298,32 L18.4971298,29 L7,29 Z M27.5,29 L27.5,32 L38.9971298,32 L38.9971298,29 L27.5,29 Z M48,29 L48,32 L59.4971298,32 L59.4971298,29 L48,29 Z M69,29 L69,32 L80.4971298,32 L80.4971298,29 L69,29 Z M89,29 L89,32 L100.49713,32 L100.49713,29 L89,29 Z" id="Combined-Shape"></path>
                </g>
            </g>
        </g>
    </g>
</svg>