<?xml version="1.0" encoding="UTF-8"?>
<svg width="335px" height="161px" viewBox="0 0 335 161" version="1.1" xmlns="http://www.w3.org/2000/svg" xmlns:xlink="http://www.w3.org/1999/xlink">
    <!-- Generator: Sketch 47.1 (45422) - http://www.bohemiancoding.com/sketch -->
    <title>Group 10</title>
    <desc>Created with Sketch.</desc>
    <defs></defs>
    <g id="Atomframer" stroke="none" stroke-width="1" fill="none" fill-rule="evenodd">
        <g id="Artboard" transform="translate(-1117.000000, -38.000000)">
            <g id="Group-10" transform="translate(1117.000000, 38.000000)">
                <rect id="Rectangle-3" fill="#F1F1F3" x="0" y="0" width="335" height="160.563021"></rect>
                <g id="图片" transform="translate(152.161172, 65.137108)" fill-rule="nonzero" fill="#787879" opacity="0.299999982">
                    <path d="M0,0 L0,28.8894447 L30.6776557,28.8894447 L30.6776557,0 L0,0 Z M27.6108104,25.5885674 L3.06715201,25.5885674 L3.06715201,3.30087732 L27.6109638,3.30087732 L27.6109638,25.5885674 L27.6108104,25.5885674 Z" id="Shape"></path>
                    <path d="M25.7692308,23.3866934 L4.90842491,23.3866934 L4.90842491,18.6678482 L11.4767915,8.84339313 L19.4131557,18.6678482 L25.7692308,14.7379404 L25.7692308,23.3866934 Z M19.9730861,9.82571286 C19.9730861,11.4542128 21.272174,12.7729865 22.8694589,12.7729865 C24.4698338,12.7729865 25.7689218,11.4542128 25.7689218,9.82571286 C25.7689218,8.1972129 24.4698338,6.87843922 22.8694589,6.87843922 C21.272483,6.87843922 19.9730861,8.1972129 19.9730861,9.82571286 Z" id="Shape"></path>
                </g>
            </g>
        </g>
    </g>
</svg>