<?xml version="1.0" encoding="UTF-8"?>
<svg width="29px" height="29px" viewBox="0 0 29 29" version="1.1" xmlns="http://www.w3.org/2000/svg" xmlns:xlink="http://www.w3.org/1999/xlink">
    <!-- Generator: Sketch 47.1 (45422) - http://www.bohemiancoding.com/sketch -->
    <title>download</title>
    <desc>Created with Sketch.</desc>
    <defs></defs>
    <g id="Atomframer" stroke="none" stroke-width="1" fill="none" fill-rule="evenodd">
        <g id="Artboard" transform="translate(-49.000000, -49.000000)" fill-rule="nonzero">
            <g id="download" transform="translate(49.000000, 49.000000)">
                <rect id="Rectangle" fill="#FFFFFF" x="0.483333333" y="0" width="28.0333333" height="29" rx="4"></rect>
                <path d="M23.2,17 C22.62,17 22.2333333,17.4 22.2333333,18 L22.2333333,22 C22.2333333,22.6 21.8466667,23 21.2666667,23 L7.73333333,23 C7.15333333,23 6.76666667,22.6 6.76666667,22 L6.76666667,18 C6.76666667,17.4 6.38,17 5.8,17 C5.22,17 4.83333333,17.4 4.83333333,18 L4.83333333,22 C4.83333333,23.7 6.09,25 7.73333333,25 L21.2666667,25 C22.91,25 24.1666667,23.7 24.1666667,22 L24.1666667,18 C24.1666667,17.4 23.78,17 23.2,17 Z" id="Shape" fill="#ABB4BD"></path>
                <path d="M13.8233333,18.7 C13.92,18.8 14.0166667,18.9 14.1133333,18.9 C14.21,19 14.4033333,19 14.5,19 C14.5966667,19 14.79,19 14.8866667,18.9 C14.9833333,18.8 15.08,18.8 15.1766667,18.7 L20.01,13.7 C20.3966667,13.3 20.3966667,12.7 20.01,12.3 C19.6233333,11.9 19.0433333,11.9 18.6566667,12.3 L15.4666667,15.6 L15.4666667,6 C15.4666667,5.4 15.08,5 14.5,5 C13.92,5 13.5333333,5.4 13.5333333,6 L13.5333333,15.6 L10.3433333,12.3 C9.95666667,11.9 9.37666667,11.9 8.99,12.3 C8.60333333,12.7 8.60333333,13.3 8.99,13.7 L13.8233333,18.7 L13.8233333,18.7 Z" id="Shape" fill="#ABB4BD"></path>
            </g>
        </g>
    </g>
</svg>