<?xml version="1.0" encoding="UTF-8"?>
<svg width="29px" height="29px" viewBox="0 0 29 29" version="1.1" xmlns="http://www.w3.org/2000/svg" xmlns:xlink="http://www.w3.org/1999/xlink">
    <!-- Generator: Sketch 47.1 (45422) - http://www.bohemiancoding.com/sketch -->
    <title>edit</title>
    <desc>Created with Sketch.</desc>
    <defs></defs>
    <g id="Atomframer" stroke="none" stroke-width="1" fill="none" fill-rule="evenodd">
        <g id="Artboard" transform="translate(-88.000000, -49.000000)" fill-rule="nonzero">
            <g id="edit" transform="translate(88.000000, 49.000000)">
                <rect id="Rectangle" fill="#FFFFFF" x="0.483333333" y="0" width="28.0333333" height="29" rx="4"></rect>
                <path d="M23.2,15.7 C22.62,15.7 22.2333333,16.1 22.2333333,16.7 L22.2333333,22 C22.2333333,22.6 21.8466667,23 21.2666667,23 L7.73333333,23 C7.15333333,23 6.76666667,22.6 6.76666667,22 L6.76666667,8 C6.76666667,7.4 7.15333333,7 7.73333333,7 L12.8566667,7 C13.4366667,7 13.8233333,6.6 13.8233333,6 C13.8233333,5.4 13.4366667,5 12.8566667,5 L7.73333333,5 C6.09,5 4.83333333,6.3 4.83333333,8 L4.83333333,22 C4.83333333,23.7 6.09,25 7.73333333,25 L21.2666667,25 C22.91,25 24.1666667,23.7 24.1666667,22 L24.1666667,16.7 C24.1666667,16.1 23.78,15.7 23.2,15.7 Z" id="Shape" fill="#ABB4BD"></path>
                <path d="M25.81,7.3 L21.9433333,3.3 C21.5566667,2.9 20.9766667,2.9 20.59,3.3 L10.9233333,13.3 C10.73,13.5 10.6333333,13.7 10.6333333,14 L10.6333333,18 C10.6333333,18.6 11.02,19 11.6,19 L15.4666667,19 C15.7566667,19 15.95,18.9 16.1433333,18.7 L25.81,8.7 C26.1966667,8.3 26.1966667,7.7 25.81,7.3 Z M15.08,17 L12.5666667,17 L12.5666667,14.4 L21.2666667,5.4 L23.78,8 L15.08,17 Z" id="Shape" fill="#ABB4BD"></path>
            </g>
        </g>
    </g>
</svg>