<?xml version="1.0" encoding="UTF-8"?>
<svg width="178px" height="140px" viewBox="0 0 178 140" version="1.1" xmlns="http://www.w3.org/2000/svg" xmlns:xlink="http://www.w3.org/1999/xlink">
    <!-- Generator: Sketch 47.1 (45422) - http://www.bohemiancoding.com/sketch -->
    <title>G1</title>
    <desc>Created with Sketch.</desc>
    <defs></defs>
    <g id="Atomframer" stroke="none" stroke-width="1" fill="none" fill-rule="evenodd">
        <g id="常规元素-copy" transform="translate(-15.000000, -34.000000)">
            <g id="G1" transform="translate(15.000000, 34.000000)">
                <rect id="Rectangle-13" fill="#FFFFFF" x="0" y="0" width="178" height="140" rx="3"></rect>
                <text id="大标题" font-family="PingFangSC-Regular, PingFang SC" font-size="12" font-weight="normal" fill="#767676">
                    <tspan x="71" y="110">大标题</tspan>
                </text>
                <g id="Group" transform="translate(35.000000, 44.000000)">
                    <rect id="Combined-Shape" fill="#404040" x="0" y="0" width="108" height="24" rx="4.8"></rect>
                    <path d="M8.648,17 L10.712,17 L10.712,13.328 L13.412,13.328 L13.412,17 L15.476,17 L15.476,8.12 L13.412,8.12 L13.412,11.6 L10.712,11.6 L10.712,8.12 L8.648,8.12 L8.648,17 Z M19.388,17.108 C17.444,17.108 16.436,15.98 16.436,13.832 C16.436,11.576 17.432,10.412 19.376,10.412 C21.056,10.412 21.824,11.384 21.824,13.508 C21.824,13.988 21.812,14.168 21.764,14.432 L18.464,14.432 C18.524,15.368 18.776,15.608 19.496,15.608 C19.952,15.608 20.732,15.476 21.548,15.272 L21.608,16.736 C21.008,16.952 20.096,17.108 19.388,17.108 Z M19.328,11.9 C18.764,11.9 18.512,12.236 18.452,13.208 L20.06,13.208 C20.036,12.248 19.832,11.9 19.328,11.9 Z M24.152,17.06 C23.072,17.06 22.34,16.268 22.34,15.116 C22.34,13.856 23.12,13.196 24.668,13.088 L25.76,13.016 C25.748,12.092 25.58,11.912 24.74,11.912 C24.392,11.912 23.384,11.996 22.988,12.08 L22.856,10.64 C23.588,10.52 24.368,10.424 25.064,10.424 C26.96,10.424 27.764,11.048 27.764,12.488 L27.764,17 L26.096,17 L25.952,16.22 L25.856,16.22 C25.46,16.724 24.824,17.06 24.152,17.06 Z M24.908,15.608 C25.16,15.608 25.496,15.416 25.76,15.26 L25.76,14.216 L25.112,14.276 C24.548,14.324 24.332,14.516 24.332,14.936 C24.332,15.356 24.536,15.608 24.908,15.608 Z M30.68,17.108 C29.288,17.108 28.604,16.076 28.604,13.976 C28.604,11.6 29.624,10.412 31.7,10.412 C31.844,10.412 31.988,10.424 32.264,10.46 L32.264,7.304 L34.268,7.304 L34.268,17 L32.432,17 L32.312,16.352 L32.264,16.352 C31.892,16.844 31.34,17.108 30.68,17.108 Z M31.424,15.692 C32.084,15.692 32.264,15.164 32.264,13.16 L32.264,11.864 C32.096,11.78 31.892,11.732 31.64,11.732 C30.884,11.732 30.656,12.14 30.656,13.736 C30.656,15.272 30.836,15.692 31.424,15.692 Z M36.368,9.668 C37.16,9.668 37.484,9.344 37.484,8.6 C37.484,7.844 37.148,7.532 36.368,7.532 C35.6,7.532 35.276,7.844 35.276,8.6 C35.276,9.356 35.612,9.668 36.368,9.668 Z M35.372,17 L37.376,17 L37.376,10.52 L35.372,10.52 L35.372,17 Z M38.492,17 L40.496,17 L40.496,12.464 C40.808,12.284 41.12,12.14 41.384,12.14 C41.696,12.14 41.9,12.344 41.9,12.86 L41.9,17 L43.904,17 L43.904,12.128 C43.904,11.06 43.34,10.4 42.428,10.4 C41.768,10.4 41.384,10.556 40.34,11.216 L40.292,11.216 L40.184,10.52 L38.492,10.52 L38.492,17 Z M47.18,19.64 C46.58,19.64 45.896,19.544 45.188,19.364 L45.332,17.9 C46.028,18.056 46.544,18.128 47,18.128 C48.068,18.128 48.476,17.66 48.476,16.46 L48.476,16.112 L48.428,16.112 C48.056,16.568 47.528,16.82 46.892,16.82 C45.464,16.82 44.768,15.896 44.768,13.976 C44.768,11.636 45.812,10.412 47.864,10.412 C48.608,10.412 49.4,10.532 50.432,10.808 L50.432,16.088 C50.432,18.44 49.328,19.64 47.18,19.64 Z M47.588,15.488 C48.26,15.488 48.428,14.948 48.428,13.16 L48.428,11.864 C48.26,11.78 48.044,11.732 47.804,11.732 C47.036,11.732 46.82,12.14 46.82,13.736 C46.82,15.104 46.988,15.488 47.588,15.488 Z" id="Heading" fill="#FFFFFF"></path>
                </g>
            </g>
        </g>
    </g>
</svg>