<?xml version="1.0" encoding="UTF-8"?>
<svg width="178px" height="140px" viewBox="0 0 178 140" version="1.1" xmlns="http://www.w3.org/2000/svg" xmlns:xlink="http://www.w3.org/1999/xlink">
    <!-- Generator: Sketch 47.1 (45422) - http://www.bohemiancoding.com/sketch -->
    <title>G11</title>
    <desc>Created with Sketch.</desc>
    <defs></defs>
    <g id="Atomframer" stroke="none" stroke-width="1" fill="none" fill-rule="evenodd">
        <g id="常规元素-copy" transform="translate(-15.000000, -999.000000)">
            <g id="G11" transform="translate(15.000000, 999.000000)">
                <rect id="Rectangle-13-Copy-10" fill="#FFFFFF" x="0" y="0" width="178" height="140" rx="3"></rect>
                <path d="M39.8,44 L138.2,44 L138.2,44 C140.850967,44 143,46.1490332 143,48.8 L143,63.2 C143,65.8509668 140.850967,68 138.2,68 L39.8,68 L39.8,68 C37.1490332,68 35,65.8509668 35,63.2 L35,48.8 L35,48.8 C35,46.1490332 37.1490332,44 39.8,44 L39.8,44 Z M46.8,50 L46.8,50 C44.1490332,50 42,52.1490332 42,54.8 L42,57.2 C42,59.8509668 44.1490332,62 46.8,62 L63.2,62 C65.8509668,62 68,59.8509668 68,57.2 L68,54.8 C68,52.1490332 65.8509668,50 63.2,50 L46.8,50 Z M55,58 C53.8954305,58 53,57.1045695 53,56 C53,54.8954305 53.8954305,54 55,54 C56.1045695,54 57,54.8954305 57,56 C57,57.1045695 56.1045695,58 55,58 Z M61,58 C59.8954305,58 59,57.1045695 59,56 C59,54.8954305 59.8954305,54 61,54 C62.1045695,54 63,54.8954305 63,56 C63,57.1045695 62.1045695,58 61,58 Z M49,58 C47.8954305,58 47,57.1045695 47,56 C47,54.8954305 47.8954305,54 49,54 C50.1045695,54 51,54.8954305 51,56 C51,57.1045695 50.1045695,58 49,58 Z" id="Combined-Shape-Copy-4" fill="#404040"></path>
                <text id="左对齐按钮" font-family="PingFangSC-Regular, PingFang SC" font-size="12" font-weight="normal" fill="#767676">
                    <tspan x="59" y="110">左对齐按钮</tspan>
                </text>
            </g>
        </g>
    </g>
</svg>