<?xml version="1.0" encoding="UTF-8"?>
<svg width="178px" height="140px" viewBox="0 0 178 140" version="1.1" xmlns="http://www.w3.org/2000/svg" xmlns:xlink="http://www.w3.org/1999/xlink">
    <!-- Generator: Sketch 47.1 (45422) - http://www.bohemiancoding.com/sketch -->
    <title>G13</title>
    <desc>Created with Sketch.</desc>
    <defs></defs>
    <g id="Atomframer" stroke="none" stroke-width="1" fill="none" fill-rule="evenodd">
        <g id="常规元素-copy" transform="translate(-15.000000, -1192.000000)">
            <g id="G13" transform="translate(15.000000, 1192.000000)">
                <rect id="Rectangle-13-Copy-9" fill="#FFFFFF" x="0" y="0" width="178" height="140" rx="3"></rect>
                <path d="M39.8,44 L138.2,44 L138.2,44 C140.850967,44 143,46.1490332 143,48.8 L143,63.2 C143,65.8509668 140.850967,68 138.2,68 L39.8,68 L39.8,68 C37.1490332,68 35,65.8509668 35,63.2 L35,48.8 L35,48.8 C35,46.1490332 37.1490332,44 39.8,44 L39.8,44 Z M114.8,50 C112.149033,50 110,52.1490332 110,54.8 L110,57.2 C110,59.8509668 112.149033,62 114.8,62 L131.2,62 C133.850967,62 136,59.8509668 136,57.2 L136,54.8 C136,52.1490332 133.850967,50 131.2,50 L114.8,50 Z M123,58 C121.895431,58 121,57.1045695 121,56 C121,54.8954305 121.895431,54 123,54 C124.104569,54 125,54.8954305 125,56 C125,57.1045695 124.104569,58 123,58 Z M129,58 C127.895431,58 127,57.1045695 127,56 C127,54.8954305 127.895431,54 129,54 C130.104569,54 131,54.8954305 131,56 C131,57.1045695 130.104569,58 129,58 Z M117,58 C115.895431,58 115,57.1045695 115,56 C115,54.8954305 115.895431,54 117,54 C118.104569,54 119,54.8954305 119,56 C119,57.1045695 118.104569,58 117,58 Z" id="Combined-Shape-Copy-6" fill="#404040"></path>
                <text id="右对齐按钮" font-family="PingFangSC-Regular, PingFang SC" font-size="12" font-weight="normal" fill="#767676">
                    <tspan x="59" y="110">右对齐按钮</tspan>
                </text>
            </g>
        </g>
    </g>
</svg>