<?xml version="1.0" encoding="UTF-8"?>
<svg width="178px" height="140px" viewBox="0 0 178 140" version="1.1" xmlns="http://www.w3.org/2000/svg" xmlns:xlink="http://www.w3.org/1999/xlink">
    <!-- Generator: Sketch 47.1 (45422) - http://www.bohemiancoding.com/sketch -->
    <title>G15</title>
    <desc>Created with Sketch.</desc>
    <defs></defs>
    <g id="Atomframer" stroke="none" stroke-width="1" fill="none" fill-rule="evenodd">
        <g id="常规元素-copy" transform="translate(-15.000000, -1385.000000)">
            <g id="G15" transform="translate(15.000000, 1385.000000)">
                <rect id="Rectangle-13-Copy-11" fill="#FFFFFF" x="0" y="0" width="178" height="140" rx="3"></rect>
                <path d="M39.8,44 L138.2,44 L138.2,44 C140.850967,44 143,46.1490332 143,48.8 L143,63.2 C143,65.8509668 140.850967,68 138.2,68 L39.8,68 L39.8,68 C37.1490332,68 35,65.8509668 35,63.2 L35,48.8 L35,48.8 C35,46.1490332 37.1490332,44 39.8,44 L39.8,44 Z M46.8,50 L46.8,50 C44.1490332,50 42,52.1490332 42,54.8 L42,57.2 C42,59.8509668 44.1490332,62 46.8,62 L81.2,62 C83.8509668,62 86,59.8509668 86,57.2 L86,54.8 C86,52.1490332 83.8509668,50 81.2,50 L46.8,50 Z M64,58 C62.8954305,58 62,57.1045695 62,56 C62,54.8954305 62.8954305,54 64,54 C65.1045695,54 66,54.8954305 66,56 C66,57.1045695 65.1045695,58 64,58 Z M70,58 C68.8954305,58 68,57.1045695 68,56 C68,54.8954305 68.8954305,54 70,54 C71.1045695,54 72,54.8954305 72,56 C72,57.1045695 71.1045695,58 70,58 Z M58,58 C56.8954305,58 56,57.1045695 56,56 C56,54.8954305 56.8954305,54 58,54 C59.1045695,54 60,54.8954305 60,56 C60,57.1045695 59.1045695,58 58,58 Z M96.8,50 C94.1490332,50 92,52.1490332 92,54.8 L92,57.2 C92,59.8509668 94.1490332,62 96.8,62 L131.2,62 C133.850967,62 136,59.8509668 136,57.2 L136,54.8 C136,52.1490332 133.850967,50 131.2,50 L96.8,50 Z M114,58 C112.895431,58 112,57.1045695 112,56 C112,54.8954305 112.895431,54 114,54 C115.104569,54 116,54.8954305 116,56 C116,57.1045695 115.104569,58 114,58 Z M120,58 C118.895431,58 118,57.1045695 118,56 C118,54.8954305 118.895431,54 120,54 C121.104569,54 122,54.8954305 122,56 C122,57.1045695 121.104569,58 120,58 Z M108,58 C106.895431,58 106,57.1045695 106,56 C106,54.8954305 106.895431,54 108,54 C109.104569,54 110,54.8954305 110,56 C110,57.1045695 109.104569,58 108,58 Z" id="Combined-Shape-Copy-9" fill="#404040"></path>
                <text id="按钮组" font-family="PingFangSC-Regular, PingFang SC" font-size="12" font-weight="normal" fill="#767676">
                    <tspan x="71" y="110">按钮组</tspan>
                </text>
            </g>
        </g>
    </g>
</svg>