<?xml version="1.0" encoding="UTF-8"?>
<svg width="178px" height="140px" viewBox="0 0 178 140" version="1.1" xmlns="http://www.w3.org/2000/svg" xmlns:xlink="http://www.w3.org/1999/xlink">
    <!-- Generator: Sketch 47.1 (45422) - http://www.bohemiancoding.com/sketch -->
    <title>G16</title>
    <desc>Created with Sketch.</desc>
    <defs></defs>
    <g id="Atomframer" stroke="none" stroke-width="1" fill="none" fill-rule="evenodd">
        <g id="常规元素-copy" transform="translate(-206.000000, -1385.000000)">
            <g id="G16" transform="translate(206.000000, 1385.000000)">
                <rect id="Rectangle-13-Copy-15" fill="#FFFFFF" x="0" y="0" width="178" height="140" rx="3"></rect>
                <text id="注释专用占位符" font-family="PingFangSC-Regular, PingFang SC" font-size="12" font-weight="normal" fill="#767676">
                    <tspan x="47" y="110">注释专用占位符</tspan>
                </text>
                <rect id="Combined-Shape-Copy-17" fill="#404040" opacity="0.0800000057" x="35" y="35" width="108" height="43" rx="4.80000019"></rect>
                <path d="M59.976,61 L59.976,60.916 L62.196,52.12 L65.316,52.12 L67.536,60.916 L67.536,61 L65.592,61 L65.064,58.936 L62.424,58.936 L61.908,61 L59.976,61 Z M62.82,57.292 L64.68,57.292 L63.816,53.656 L63.684,53.656 L63.384,54.964 L62.82,57.292 Z M68.064,61 L70.068,61 L70.068,56.464 C70.38,56.284 70.692,56.14 70.956,56.14 C71.268,56.14 71.472,56.344 71.472,56.86 L71.472,61 L73.476,61 L73.476,56.128 C73.476,55.06 72.912,54.4 72,54.4 C71.34,54.4 70.956,54.556 69.912,55.216 L69.864,55.216 L69.756,54.52 L68.064,54.52 L68.064,61 Z M74.556,61 L76.56,61 L76.56,56.464 C76.872,56.284 77.184,56.14 77.448,56.14 C77.76,56.14 77.964,56.344 77.964,56.86 L77.964,61 L79.968,61 L79.968,56.128 C79.968,55.06 79.404,54.4 78.492,54.4 C77.832,54.4 77.448,54.556 76.404,55.216 L76.356,55.216 L76.248,54.52 L74.556,54.52 L74.556,61 Z M83.712,61.12 C81.804,61.12 80.808,59.956 80.808,57.76 C80.808,55.552 81.804,54.4 83.712,54.4 C85.62,54.4 86.616,55.552 86.616,57.76 C86.616,59.968 85.62,61.12 83.712,61.12 Z M83.712,59.596 C84.432,59.596 84.6,59.272 84.6,57.76 C84.6,56.248 84.432,55.924 83.712,55.924 C82.98,55.924 82.812,56.248 82.812,57.76 C82.812,59.272 82.98,59.596 83.712,59.596 Z M90.108,61.072 C90.492,61.072 90.888,61.036 91.212,60.952 L91.212,59.512 C90.996,59.572 90.792,59.596 90.636,59.596 C90.204,59.596 90,59.368 90,58.708 L90,56.2 L91.2,56.2 L91.2,54.52 L89.988,54.52 L89.988,52.444 L88.368,52.636 L88.104,54.52 L87.06,54.52 L87.06,56.2 L87.984,56.2 L87.984,59.212 C87.984,60.424 88.716,61.072 90.108,61.072 Z M93.456,61.06 C92.376,61.06 91.644,60.268 91.644,59.116 C91.644,57.856 92.424,57.196 93.972,57.088 L95.064,57.016 C95.052,56.092 94.884,55.912 94.044,55.912 C93.696,55.912 92.688,55.996 92.292,56.08 L92.16,54.64 C92.892,54.52 93.672,54.424 94.368,54.424 C96.264,54.424 97.068,55.048 97.068,56.488 L97.068,61 L95.4,61 L95.256,60.22 L95.16,60.22 C94.764,60.724 94.128,61.06 93.456,61.06 Z M94.212,59.608 C94.464,59.608 94.8,59.416 95.064,59.26 L95.064,58.216 L94.416,58.276 C93.852,58.324 93.636,58.516 93.636,58.936 C93.636,59.356 93.84,59.608 94.212,59.608 Z M100.752,61.072 C101.136,61.072 101.532,61.036 101.856,60.952 L101.856,59.512 C101.64,59.572 101.436,59.596 101.28,59.596 C100.848,59.596 100.644,59.368 100.644,58.708 L100.644,56.2 L101.844,56.2 L101.844,54.52 L100.632,54.52 L100.632,52.444 L99.012,52.636 L98.748,54.52 L97.704,54.52 L97.704,56.2 L98.628,56.2 L98.628,59.212 C98.628,60.424 99.36,61.072 100.752,61.072 Z M103.632,53.668 C104.424,53.668 104.748,53.344 104.748,52.6 C104.748,51.844 104.412,51.532 103.632,51.532 C102.864,51.532 102.54,51.844 102.54,52.6 C102.54,53.356 102.876,53.668 103.632,53.668 Z M102.636,61 L104.64,61 L104.64,54.52 L102.636,54.52 L102.636,61 Z M108.42,61.12 C106.512,61.12 105.516,59.956 105.516,57.76 C105.516,55.552 106.512,54.4 108.42,54.4 C110.328,54.4 111.324,55.552 111.324,57.76 C111.324,59.968 110.328,61.12 108.42,61.12 Z M108.42,59.596 C109.14,59.596 109.308,59.272 109.308,57.76 C109.308,56.248 109.14,55.924 108.42,55.924 C107.688,55.924 107.52,56.248 107.52,57.76 C107.52,59.272 107.688,59.596 108.42,59.596 Z M112.2,61 L114.204,61 L114.204,56.464 C114.516,56.284 114.828,56.14 115.092,56.14 C115.404,56.14 115.608,56.344 115.608,56.86 L115.608,61 L117.612,61 L117.612,56.128 C117.612,55.06 117.048,54.4 116.136,54.4 C115.476,54.4 115.092,54.556 114.048,55.216 L114,55.216 L113.892,54.52 L112.2,54.52 L112.2,61 Z" id="Annotation" fill="#404040"></path>
            </g>
        </g>
    </g>
</svg>