<?xml version="1.0" encoding="UTF-8"?>
<svg width="178px" height="140px" viewBox="0 0 178 140" version="1.1" xmlns="http://www.w3.org/2000/svg" xmlns:xlink="http://www.w3.org/1999/xlink">
    <!-- Generator: Sketch 47.1 (45422) - http://www.bohemiancoding.com/sketch -->
    <title>G2</title>
    <desc>Created with Sketch.</desc>
    <defs></defs>
    <g id="Atomframer" stroke="none" stroke-width="1" fill="none" fill-rule="evenodd">
        <g id="常规元素-copy" transform="translate(-206.000000, -34.000000)">
            <g id="G2" transform="translate(206.000000, 34.000000)">
                <rect id="Rectangle-13-Copy" fill="#FFFFFF" x="0" y="0" width="178" height="140" rx="3"></rect>
                <text id="中标题" font-family="PingFangSC-Regular, PingFang SC" font-size="12" font-weight="normal" fill="#767676">
                    <tspan x="71" y="110">中标题</tspan>
                </text>
                <g id="Group-Copy" transform="translate(35.000000, 44.000000)">
                    <rect id="Combined-Shape" fill="#404040" x="0" y="0" width="108" height="24" rx="4.8"></rect>
                    <path d="M8.54,17 L10.26,17 L10.26,13.94 L12.51,13.94 L12.51,17 L14.23,17 L14.23,9.6 L12.51,9.6 L12.51,12.5 L10.26,12.5 L10.26,9.6 L8.54,9.6 L8.54,17 Z M17.49,17.09 C15.87,17.09 15.03,16.15 15.03,14.36 C15.03,12.48 15.86,11.51 17.48,11.51 C18.88,11.51 19.52,12.32 19.52,14.09 C19.52,14.49 19.51,14.64 19.47,14.86 L16.72,14.86 C16.77,15.64 16.98,15.84 17.58,15.84 C17.96,15.84 18.61,15.73 19.29,15.56 L19.34,16.78 C18.84,16.96 18.08,17.09 17.49,17.09 Z M17.44,12.75 C16.97,12.75 16.76,13.03 16.71,13.84 L18.05,13.84 C18.03,13.04 17.86,12.75 17.44,12.75 Z M21.46,17.05 C20.56,17.05 19.95,16.39 19.95,15.43 C19.95,14.38 20.6,13.83 21.89,13.74 L22.8,13.68 C22.79,12.91 22.65,12.76 21.95,12.76 C21.66,12.76 20.82,12.83 20.49,12.9 L20.38,11.7 C20.99,11.6 21.64,11.52 22.22,11.52 C23.8,11.52 24.47,12.04 24.47,13.24 L24.47,17 L23.08,17 L22.96,16.35 L22.88,16.35 C22.55,16.77 22.02,17.05 21.46,17.05 Z M22.09,15.84 C22.3,15.84 22.58,15.68 22.8,15.55 L22.8,14.68 L22.26,14.73 C21.79,14.77 21.61,14.93 21.61,15.28 C21.61,15.63 21.78,15.84 22.09,15.84 Z M26.9,17.09 C25.74,17.09 25.17,16.23 25.17,14.48 C25.17,12.5 26.02,11.51 27.75,11.51 C27.87,11.51 27.99,11.52 28.22,11.55 L28.22,8.92 L29.89,8.92 L29.89,17 L28.36,17 L28.26,16.46 L28.22,16.46 C27.91,16.87 27.45,17.09 26.9,17.09 Z M27.52,15.91 C28.07,15.91 28.22,15.47 28.22,13.8 L28.22,12.72 C28.08,12.65 27.91,12.61 27.7,12.61 C27.07,12.61 26.88,12.95 26.88,14.28 C26.88,15.56 27.03,15.91 27.52,15.91 Z M31.64,10.89 C32.3,10.89 32.57,10.62 32.57,10 C32.57,9.37 32.29,9.11 31.64,9.11 C31,9.11 30.73,9.37 30.73,10 C30.73,10.63 31.01,10.89 31.64,10.89 Z M30.81,17 L32.48,17 L32.48,11.6 L30.81,11.6 L30.81,17 Z M33.41,17 L35.08,17 L35.08,13.22 C35.34,13.07 35.6,12.95 35.82,12.95 C36.08,12.95 36.25,13.12 36.25,13.55 L36.25,17 L37.92,17 L37.92,12.94 C37.92,12.05 37.45,11.5 36.69,11.5 C36.14,11.5 35.82,11.63 34.95,12.18 L34.91,12.18 L34.82,11.6 L33.41,11.6 L33.41,17 Z M40.65,19.2 C40.15,19.2 39.58,19.12 38.99,18.97 L39.11,17.75 C39.69,17.88 40.12,17.94 40.5,17.94 C41.39,17.94 41.73,17.55 41.73,16.55 L41.73,16.26 L41.69,16.26 C41.38,16.64 40.94,16.85 40.41,16.85 C39.22,16.85 38.64,16.08 38.64,14.48 C38.64,12.53 39.51,11.51 41.22,11.51 C41.84,11.51 42.5,11.61 43.36,11.84 L43.36,16.24 C43.36,18.2 42.44,19.2 40.65,19.2 Z M40.99,15.74 C41.55,15.74 41.69,15.29 41.69,13.8 L41.69,12.72 C41.55,12.65 41.37,12.61 41.17,12.61 C40.53,12.61 40.35,12.95 40.35,14.28 C40.35,15.42 40.49,15.74 40.99,15.74 Z" id="Heading" fill="#FFFFFF"></path>
                </g>
            </g>
        </g>
    </g>
</svg>