<?xml version="1.0" encoding="UTF-8"?>
<svg width="178px" height="140px" viewBox="0 0 178 140" version="1.1" xmlns="http://www.w3.org/2000/svg" xmlns:xlink="http://www.w3.org/1999/xlink">
    <!-- Generator: Sketch 47.1 (45422) - http://www.bohemiancoding.com/sketch -->
    <title>G3</title>
    <desc>Created with Sketch.</desc>
    <defs></defs>
    <g id="Atomframer" stroke="none" stroke-width="1" fill="none" fill-rule="evenodd">
        <g id="常规元素-copy" transform="translate(-15.000000, -227.000000)">
            <g id="G3" transform="translate(15.000000, 227.000000)">
                <rect id="Rectangle-13-Copy-2" fill="#FFFFFF" x="0" y="0" width="178" height="140" rx="3"></rect>
                <text id="小标题" font-family="PingFangSC-Regular, PingFang SC" font-size="12" font-weight="normal" fill="#767676">
                    <tspan x="71" y="110">小标题</tspan>
                </text>
                <g id="Group-Copy-2" transform="translate(35.000000, 44.000000)">
                    <rect id="Combined-Shape" fill="#404040" x="0" y="0" width="108" height="24" rx="4.8"></rect>
                    <path d="M8.486,17 L10.034,17 L10.034,14.246 L12.059,14.246 L12.059,17 L13.607,17 L13.607,10.34 L12.059,10.34 L12.059,12.95 L10.034,12.95 L10.034,10.34 L8.486,10.34 L8.486,17 Z M16.541,17.081 C15.083,17.081 14.327,16.235 14.327,14.624 C14.327,12.932 15.074,12.059 16.532,12.059 C17.792,12.059 18.368,12.788 18.368,14.381 C18.368,14.741 18.359,14.876 18.323,15.074 L15.848,15.074 C15.893,15.776 16.082,15.956 16.622,15.956 C16.964,15.956 17.549,15.857 18.161,15.704 L18.206,16.802 C17.756,16.964 17.072,17.081 16.541,17.081 Z M16.496,13.175 C16.073,13.175 15.884,13.427 15.839,14.156 L17.045,14.156 C17.027,13.436 16.874,13.175 16.496,13.175 Z M20.114,17.045 C19.304,17.045 18.755,16.451 18.755,15.587 C18.755,14.642 19.34,14.147 20.501,14.066 L21.32,14.012 C21.311,13.319 21.185,13.184 20.555,13.184 C20.294,13.184 19.538,13.247 19.241,13.31 L19.142,12.23 C19.691,12.14 20.276,12.068 20.798,12.068 C22.22,12.068 22.823,12.536 22.823,13.616 L22.823,17 L21.572,17 L21.464,16.415 L21.392,16.415 C21.095,16.793 20.618,17.045 20.114,17.045 Z M20.681,15.956 C20.87,15.956 21.122,15.812 21.32,15.695 L21.32,14.912 L20.834,14.957 C20.411,14.993 20.249,15.137 20.249,15.452 C20.249,15.767 20.402,15.956 20.681,15.956 Z M25.01,17.081 C23.966,17.081 23.453,16.307 23.453,14.732 C23.453,12.95 24.218,12.059 25.775,12.059 C25.883,12.059 25.991,12.068 26.198,12.095 L26.198,9.728 L27.701,9.728 L27.701,17 L26.324,17 L26.234,16.514 L26.198,16.514 C25.919,16.883 25.505,17.081 25.01,17.081 Z M25.568,16.019 C26.063,16.019 26.198,15.623 26.198,14.12 L26.198,13.148 C26.072,13.085 25.919,13.049 25.73,13.049 C25.163,13.049 24.992,13.355 24.992,14.552 C24.992,15.704 25.127,16.019 25.568,16.019 Z M29.276,11.501 C29.87,11.501 30.113,11.258 30.113,10.7 C30.113,10.133 29.861,9.899 29.276,9.899 C28.7,9.899 28.457,10.133 28.457,10.7 C28.457,11.267 28.709,11.501 29.276,11.501 Z M28.529,17 L30.032,17 L30.032,12.14 L28.529,12.14 L28.529,17 Z M30.869,17 L32.372,17 L32.372,13.598 C32.606,13.463 32.84,13.355 33.038,13.355 C33.272,13.355 33.425,13.508 33.425,13.895 L33.425,17 L34.928,17 L34.928,13.346 C34.928,12.545 34.505,12.05 33.821,12.05 C33.326,12.05 33.038,12.167 32.255,12.662 L32.219,12.662 L32.138,12.14 L30.869,12.14 L30.869,17 Z M37.385,18.98 C36.935,18.98 36.422,18.908 35.891,18.773 L35.999,17.675 C36.521,17.792 36.908,17.846 37.25,17.846 C38.051,17.846 38.357,17.495 38.357,16.595 L38.357,16.334 L38.321,16.334 C38.042,16.676 37.646,16.865 37.169,16.865 C36.098,16.865 35.576,16.172 35.576,14.732 C35.576,12.977 36.359,12.059 37.898,12.059 C38.456,12.059 39.05,12.149 39.824,12.356 L39.824,16.316 C39.824,18.08 38.996,18.98 37.385,18.98 Z M37.691,15.866 C38.195,15.866 38.321,15.461 38.321,14.12 L38.321,13.148 C38.195,13.085 38.033,13.049 37.853,13.049 C37.277,13.049 37.115,13.355 37.115,14.552 C37.115,15.578 37.241,15.866 37.691,15.866 Z" id="Heading" fill="#FFFFFF"></path>
                </g>
            </g>
        </g>
    </g>
</svg>