<?xml version="1.0" encoding="UTF-8"?>
<svg width="178px" height="140px" viewBox="0 0 178 140" version="1.1" xmlns="http://www.w3.org/2000/svg" xmlns:xlink="http://www.w3.org/1999/xlink">
    <!-- Generator: Sketch 47.1 (45422) - http://www.bohemiancoding.com/sketch -->
    <title>G5</title>
    <desc>Created with Sketch.</desc>
    <defs></defs>
    <g id="Atomframer" stroke="none" stroke-width="1" fill="none" fill-rule="evenodd">
        <g id="常规元素-copy" transform="translate(-15.000000, -420.000000)">
            <g id="G5" transform="translate(15.000000, 420.000000)">
                <rect id="Rectangle-13-Copy-4" fill="#FFFFFF" x="0" y="0" width="178" height="140" rx="3"></rect>
                <text id="分隔线" font-family="PingFangSC-Regular, PingFang SC" font-size="12" font-weight="normal" fill="#767676">
                    <tspan x="71" y="110">分隔线</tspan>
                </text>
                <path d="M35,34 L143,34 L143,42.2 L143,42.2 C143,44.8509668 140.850967,47 138.2,47 L39.8,47 L39.8,47 C37.1490332,47 35,44.8509668 35,42.2 L35,34 Z" id="Combined-Shape-Copy-7" fill="#404040" opacity="0.0800000057"></path>
                <path d="M39.8,64 L138.2,64 L138.2,64 C140.850967,64 143,66.1490332 143,68.8 L143,77 L35,77 L35,68.8 L35,68.8 C35,66.1490332 37.1490332,64 39.8,64 Z" id="Combined-Shape-Copy-11" fill="#404040" opacity="0.0800000057"></path>
                <rect id="Rectangle-16" fill="#404040" x="36" y="54" width="106" height="3"></rect>
            </g>
        </g>
    </g>
</svg>