<?xml version="1.0" encoding="UTF-8"?>
<svg width="29px" height="29px" viewBox="0 0 29 29" version="1.1" xmlns="http://www.w3.org/2000/svg" xmlns:xlink="http://www.w3.org/1999/xlink">
    <!-- Generator: Sketch 47.1 (45422) - http://www.bohemiancoding.com/sketch -->
    <title>heart</title>
    <desc>Created with Sketch.</desc>
    <defs></defs>
    <g id="Atomframer" stroke="none" stroke-width="1" fill="none" fill-rule="evenodd">
        <g id="Artboard" transform="translate(-88.000000, -88.000000)" fill-rule="nonzero">
            <g id="heart" transform="translate(88.000000, 88.000000)">
                <rect id="Rectangle" fill="#FFFFFF" x="0.483333333" y="0" width="28.0333333" height="29" rx="4"></rect>
                <path d="M23.6833333,6.9 L23.6833333,6.9 C22.5233333,5.7 20.9766667,5 19.3333333,5 L19.3333333,5 C17.69,5 16.0466667,5.7 14.8866667,6.9 C14.8866667,6.9 14.8866667,6.9 14.8866667,6.9 L14.5,7.3 L14.1133333,6.9 C12.9533333,5.7 11.4066667,5 9.66666667,5 C8.02333333,5 6.47666667,5.7 5.31666667,6.9 C4.15666667,8.1 3.38333333,9.8 3.38333333,11.5 C3.38333333,13.2 4.06,14.9 5.22,16.1 L13.7266667,24.9 C13.92,25.1 14.1133333,25.2 14.4033333,25.2 C14.6933333,25.2 14.8866667,25.1 15.08,24.9 L23.5866667,16.1 C26.1966667,13.6 26.1966667,9.4 23.6833333,6.9 Z M22.33,14.7 L14.5,22.8 L6.67,14.7 C4.93,12.9 4.93,10.1 6.67,8.3 C7.44333333,7.4 8.60333333,7 9.66666667,7 C10.8266667,7 11.89,7.4 12.76,8.3 L13.8233333,9.4 C14.21,9.8 14.79,9.8 15.1766667,9.4 L16.1433333,8.3 C16.1433333,8.3 16.1433333,8.3 16.1433333,8.3 C17.0133333,7.5 18.0766667,7 19.3333333,7 C19.3333333,7 19.3333333,7 19.3333333,7 C20.4933333,7 21.5566667,7.5 22.4266667,8.3 L22.4266667,8.3 C23.2,9.2 23.6833333,10.3 23.6833333,11.5 C23.6833333,12.7 23.2,13.8 22.33,14.7 L22.33,14.7 Z" id="Shape" fill="#ABB4BD"></path>
            </g>
        </g>
    </g>
</svg>