<?xml version="1.0" encoding="UTF-8"?>
<svg width="29px" height="29px" viewBox="0 0 29 29" version="1.1" xmlns="http://www.w3.org/2000/svg" xmlns:xlink="http://www.w3.org/1999/xlink">
    <!-- Generator: Sketch 47.1 (45422) - http://www.bohemiancoding.com/sketch -->
    <title>home</title>
    <desc>Created with Sketch.</desc>
    <defs></defs>
    <g id="Atomframer" stroke="none" stroke-width="1" fill="none" fill-rule="evenodd">
        <g id="Artboard" transform="translate(-128.000000, -88.000000)" fill-rule="nonzero">
            <g id="home" transform="translate(128.000000, 88.000000)">
                <rect id="Rectangle" fill="#FFFFFF" x="0.483333333" y="0.483333333" width="28.0333333" height="28.0333333" rx="4"></rect>
                <path d="M23.78,10.8266667 L15.08,4.06 C14.6933333,3.77 14.21,3.77 13.92,4.06 L5.22,10.8266667 C4.93,11.02 4.83333333,11.31 4.83333333,11.6 L4.83333333,22.2333333 C4.83333333,23.8766667 6.09,25.1333333 7.73333333,25.1333333 L21.2666667,25.1333333 C22.91,25.1333333 24.1666667,23.8766667 24.1666667,22.2333333 L24.1666667,11.6 C24.1666667,11.31 24.07,11.02 23.78,10.8266667 Z M16.4333333,23.2 L12.5666667,23.2 L12.5666667,15.4666667 L16.4333333,15.4666667 L16.4333333,23.2 Z M22.2333333,22.2333333 C22.2333333,22.8133333 21.8466667,23.2 21.2666667,23.2 L18.3666667,23.2 L18.3666667,14.5 C18.3666667,13.92 17.98,13.5333333 17.4,13.5333333 L11.6,13.5333333 C11.02,13.5333333 10.6333333,13.92 10.6333333,14.5 L10.6333333,23.2 L7.73333333,23.2 C7.15333333,23.2 6.76666667,22.8133333 6.76666667,22.2333333 L6.76666667,12.0833333 L14.5,6.09 L22.2333333,12.0833333 L22.2333333,22.2333333 Z" id="Shape" fill="#ABB4BD"></path>
            </g>
        </g>
    </g>
</svg>