<?xml version="1.0" encoding="UTF-8"?>
<svg width="29px" height="29px" viewBox="0 0 29 29" version="1.1" xmlns="http://www.w3.org/2000/svg" xmlns:xlink="http://www.w3.org/1999/xlink">
    <!-- Generator: Sketch 47.1 (45422) - http://www.bohemiancoding.com/sketch -->
    <title>image</title>
    <desc>Created with Sketch.</desc>
    <defs></defs>
    <g id="Atomframer" stroke="none" stroke-width="1" fill="none" fill-rule="evenodd">
        <g id="Artboard" transform="translate(-168.000000, -88.000000)" fill-rule="nonzero">
            <g id="image" transform="translate(168.000000, 88.000000)">
                <rect id="Rectangle" fill="#FFFFFF" x="0.483333333" y="0" width="28.0333333" height="29" rx="4"></rect>
                <path d="M21.2666667,5 L7.73333333,5 C6.09,5 4.83333333,6.3 4.83333333,8 L4.83333333,22 C4.83333333,23.7 6.09,25 7.73333333,25 L21.2666667,25 C22.91,25 24.1666667,23.7 24.1666667,22 L24.1666667,8 C24.1666667,6.3 22.91,5 21.2666667,5 Z M6.76666667,8 C6.76666667,7.4 7.15333333,7 7.73333333,7 L21.2666667,7 C21.8466667,7 22.2333333,7.4 22.2333333,8 L22.2333333,15.6 L19.0433333,12.3 C18.6566667,11.9 18.0766667,11.9 17.69,12.3 L7.44333333,22.9 C7.05666667,22.8 6.76666667,22.4 6.76666667,22 L6.76666667,8 Z M21.2666667,23 L10.0533333,23 L18.3666667,14.4 L22.2333333,18.4 L22.2333333,22 C22.2333333,22.6 21.8466667,23 21.2666667,23 Z" id="Shape" fill="#ABB4BD"></path>
                <path d="M11.1166667,14 C12.47,14 13.5333333,12.9 13.5333333,11.5 C13.5333333,10.1 12.47,9 11.1166667,9 C9.76333333,9 8.7,10.1 8.7,11.5 C8.7,12.9 9.76333333,14 11.1166667,14 Z M11.1166667,11 C11.4066667,11 11.6,11.2 11.6,11.5 C11.6,11.8 11.4066667,12 11.1166667,12 C10.8266667,12 10.6333333,11.8 10.6333333,11.5 C10.6333333,11.2 10.8266667,11 11.1166667,11 Z" id="Shape" fill="#ABB4BD"></path>
            </g>
        </g>
    </g>
</svg>