<?xml version="1.0" encoding="UTF-8"?>
<svg width="178px" height="140px" viewBox="0 0 178 140" version="1.1" xmlns="http://www.w3.org/2000/svg" xmlns:xlink="http://www.w3.org/1999/xlink">
    <!-- Generator: Sketch 47.1 (45422) - http://www.bohemiancoding.com/sketch -->
    <title>L16</title>
    <desc>Created with Sketch.</desc>
    <defs></defs>
    <g id="Atomframer" stroke="none" stroke-width="1" fill="none" fill-rule="evenodd">
        <g id="列表及表单-copy" transform="translate(-206.000000, -1385.000000)">
            <g id="L16" transform="translate(206.000000, 1385.000000)">
                <g>
                    <rect id="Rectangle-13-Copy-15" fill="#FFFFFF" x="0" y="0" width="178" height="140" rx="3"></rect>
                    <text id="表单列表项" font-family="PingFangSC-Regular, PingFang SC" font-size="12" font-weight="normal" fill="#767676">
                        <tspan x="59" y="110">表单列表项</tspan>
                    </text>
                    <path d="M39.8,44 L138.2,44 L138.2,44 C140.850967,44 143,46.1490332 143,48.8 L143,63.2 C143,65.8509668 140.850967,68 138.2,68 L39.8,68 L39.8,68 C37.1490332,68 35,65.8509668 35,63.2 L35,48.8 L35,48.8 C35,46.1490332 37.1490332,44 39.8,44 L39.8,44 Z M44.6,53.6 L44.6,59.6 L67.4,59.6 L67.4,53.6 L44.6,53.6 Z" id="Combined-Shape-Copy" fill="#404040"></path>
                    <path d="M78.69,60 L80.62,60 L82.28,54.69 L82.28,54.6 L80.56,54.6 L79.8,57.82 L79.7,58.56 L79.6,58.56 C79.39,57.23 79.05,55.91 78.74,54.6 L77.02,54.6 L77.02,54.69 L78.69,60 Z M83.98,60.05 C83.08,60.05 82.47,59.39 82.47,58.43 C82.47,57.38 83.12,56.83 84.41,56.74 L85.32,56.68 C85.31,55.91 85.17,55.76 84.47,55.76 C84.18,55.76 83.34,55.83 83.01,55.9 L82.9,54.7 C83.51,54.6 84.16,54.52 84.74,54.52 C86.32,54.52 86.99,55.04 86.99,56.24 L86.99,60 L85.6,60 L85.48,59.35 L85.4,59.35 C85.07,59.77 84.54,60.05 83.98,60.05 Z M84.61,58.84 C84.82,58.84 85.1,58.68 85.32,58.55 L85.32,57.68 L84.78,57.73 C84.31,57.77 84.13,57.93 84.13,58.28 C84.13,58.63 84.3,58.84 84.61,58.84 Z M87.88,60 L89.56,60 L89.56,51.92 L87.88,51.92 L87.88,60 Z M91.86,60.1 C92.34,60.1 92.65,59.97 93.42,59.45 L93.46,59.45 L93.55,60 L94.96,60 L94.96,54.6 L93.29,54.6 L93.29,58.41 C92.99,58.61 92.79,58.68 92.59,58.68 C92.28,58.68 92.12,58.5 92.12,58.1 L92.12,54.6 L90.45,54.6 L90.45,58.66 C90.45,59.54 91,60.1 91.86,60.1 Z M98.14,60.09 C96.52,60.09 95.68,59.15 95.68,57.36 C95.68,55.48 96.51,54.51 98.13,54.51 C99.53,54.51 100.17,55.32 100.17,57.09 C100.17,57.49 100.16,57.64 100.12,57.86 L97.37,57.86 C97.42,58.64 97.63,58.84 98.23,58.84 C98.61,58.84 99.26,58.73 99.94,58.56 L99.99,59.78 C99.49,59.96 98.73,60.09 98.14,60.09 Z M98.09,55.75 C97.62,55.75 97.41,56.03 97.36,56.84 L98.7,56.84 C98.68,56.04 98.51,55.75 98.09,55.75 Z" id="value" fill="#FFFFFF" opacity="0.5"></path>
                </g>
                <g id="Group-Copy" transform="translate(35.000000, 49.000000)"></g>
            </g>
        </g>
    </g>
</svg>