<?xml version="1.0" encoding="UTF-8"?>
<svg width="178px" height="140px" viewBox="0 0 178 140" version="1.1" xmlns="http://www.w3.org/2000/svg" xmlns:xlink="http://www.w3.org/1999/xlink">
    <!-- Generator: Sketch 47.1 (45422) - http://www.bohemiancoding.com/sketch -->
    <title>L3</title>
    <desc>Created with Sketch.</desc>
    <defs></defs>
    <g id="Atomframer" stroke="none" stroke-width="1" fill="none" fill-rule="evenodd">
        <g id="列表及表单-copy" transform="translate(-15.000000, -227.000000)">
            <g id="L3" transform="translate(15.000000, 227.000000)">
                <rect id="Rectangle-13-Copy-2" fill="#FFFFFF" x="0" y="0" width="178" height="140" rx="3"></rect>
                <text id="带开关的列表项" font-family="PingFangSC-Regular, PingFang SC" font-size="12" font-weight="normal" fill="#767676">
                    <tspan x="47" y="110">带开关的列表项</tspan>
                </text>
                <path d="M39.8,44 L138.2,44 L138.2,44 C140.850967,44 143,46.1490332 143,48.8 L143,63.2 C143,65.8509668 140.850967,68 138.2,68 L39.8,68 L39.8,68 C37.1490332,68 35,65.8509668 35,63.2 L35,48.8 L35,48.8 C35,46.1490332 37.1490332,44 39.8,44 L39.8,44 Z M44.6,53.6 L44.6,59.6 L67.4,59.6 L67.4,53.6 L44.6,53.6 Z M120.8,50 C118.149033,50 116,52.1490332 116,54.8 L116,57.2 C116,59.8509668 118.149033,62 120.8,62 L131.2,62 C133.850967,62 136,59.8509668 136,57.2 L136,54.8 C136,52.1490332 133.850967,50 131.2,50 L120.8,50 Z M122.1,52.6 L122.5,52.6 L122.5,52.6 C124.432997,52.6 126,54.1670034 126,56.1 L126,56.1 C126,58.0329966 124.432997,59.6 122.5,59.6 L122.1,59.6 L122.1,59.6 C120.167003,59.6 118.6,58.0329966 118.6,56.1 C118.6,54.1670034 120.167003,52.6 122.1,52.6 Z" id="Combined-Shape-Copy-7" fill="#404040"></path>
            </g>
        </g>
    </g>
</svg>