<?xml version="1.0" encoding="UTF-8"?>
<svg width="178px" height="140px" viewBox="0 0 178 140" version="1.1" xmlns="http://www.w3.org/2000/svg" xmlns:xlink="http://www.w3.org/1999/xlink">
    <!-- Generator: Sketch 47.1 (45422) - http://www.bohemiancoding.com/sketch -->
    <title>L7</title>
    <desc>Created with Sketch.</desc>
    <defs></defs>
    <g id="Atomframer" stroke="none" stroke-width="1" fill="none" fill-rule="evenodd">
        <g id="列表及表单-copy" transform="translate(-15.000000, -613.000000)">
            <g id="L7" transform="translate(15.000000, 613.000000)">
                <rect id="Rectangle-13-Copy-5" fill="#FFFFFF" x="0" y="0" width="178" height="140" rx="3"></rect>
                <text id="带值的图标列表项" font-family="PingFangSC-Regular, PingFang SC" font-size="12" font-weight="normal" fill="#767676">
                    <tspan x="41" y="110">带值的图标列表项</tspan>
                </text>
                <g id="Group-4" transform="translate(35.000000, 44.000000)">
                    <path d="M4.8,-2.84217094e-13 L103.2,-2.84217094e-13 L103.2,-2.85105273e-13 C105.850967,-2.78528653e-13 108,2.1490332 108,4.8 L108,19.2 C108,21.8509668 105.850967,24 103.2,24 L4.8,24 L4.8,24 C2.1490332,24 6.23189498e-15,21.8509668 3.55271368e-15,19.2 L0,4.8 L-8.8817842e-16,4.8 C-1.21282822e-15,2.1490332 2.1490332,-2.85506476e-13 4.8,-2.85993451e-13 L4.8,-2.84217094e-13 Z M25.6,9.6 L25.6,15.6 L48.4,15.6 L48.4,9.6 L25.6,9.6 Z M11.8,6 L11.8,6 C9.1490332,6 7,8.1490332 7,10.8 L7,10.8 L7,13.2 C7,15.8509668 9.1490332,18 11.8,18 L14.2,18 C16.8509668,18 19,15.8509668 19,13.2 L19,10.8 C19,8.1490332 16.8509668,6 14.2,6 L14.2,6 L11.8,6 Z" id="Combined-Shape-Copy-12" fill="#404040"></path>
                    <path d="M76.69,16 L78.62,16 L80.28,10.69 L80.28,10.6 L78.56,10.6 L77.8,13.82 L77.7,14.56 L77.6,14.56 C77.39,13.23 77.05,11.91 76.74,10.6 L75.02,10.6 L75.02,10.69 L76.69,16 Z M81.98,16.05 C81.08,16.05 80.47,15.39 80.47,14.43 C80.47,13.38 81.12,12.83 82.41,12.74 L83.32,12.68 C83.31,11.91 83.17,11.76 82.47,11.76 C82.18,11.76 81.34,11.83 81.01,11.9 L80.9,10.7 C81.51,10.6 82.16,10.52 82.74,10.52 C84.32,10.52 84.99,11.04 84.99,12.24 L84.99,16 L83.6,16 L83.48,15.35 L83.4,15.35 C83.07,15.77 82.54,16.05 81.98,16.05 Z M82.61,14.84 C82.82,14.84 83.1,14.68 83.32,14.55 L83.32,13.68 L82.78,13.73 C82.31,13.77 82.13,13.93 82.13,14.28 C82.13,14.63 82.3,14.84 82.61,14.84 Z M85.88,16 L87.56,16 L87.56,7.92 L85.88,7.92 L85.88,16 Z M89.86,16.1 C90.34,16.1 90.65,15.97 91.42,15.45 L91.46,15.45 L91.55,16 L92.96,16 L92.96,10.6 L91.29,10.6 L91.29,14.41 C90.99,14.61 90.79,14.68 90.59,14.68 C90.28,14.68 90.12,14.5 90.12,14.1 L90.12,10.6 L88.45,10.6 L88.45,14.66 C88.45,15.54 89,16.1 89.86,16.1 Z M96.14,16.09 C94.52,16.09 93.68,15.15 93.68,13.36 C93.68,11.48 94.51,10.51 96.13,10.51 C97.53,10.51 98.17,11.32 98.17,13.09 C98.17,13.49 98.16,13.64 98.12,13.86 L95.37,13.86 C95.42,14.64 95.63,14.84 96.23,14.84 C96.61,14.84 97.26,14.73 97.94,14.56 L97.99,15.78 C97.49,15.96 96.73,16.09 96.14,16.09 Z M96.09,11.75 C95.62,11.75 95.41,12.03 95.36,12.84 L96.7,12.84 C96.68,12.04 96.51,11.75 96.09,11.75 Z" id="value" fill="#FFFFFF"></path>
                </g>
            </g>
        </g>
    </g>
</svg>