<?xml version="1.0" encoding="UTF-8"?>
<svg width="178px" height="140px" viewBox="0 0 178 140" version="1.1" xmlns="http://www.w3.org/2000/svg" xmlns:xlink="http://www.w3.org/1999/xlink">
    <!-- Generator: Sketch 47.1 (45422) - http://www.bohemiancoding.com/sketch -->
    <title>L8</title>
    <desc>Created with Sketch.</desc>
    <defs></defs>
    <g id="Atomframer" stroke="none" stroke-width="1" fill="none" fill-rule="evenodd">
        <g id="列表及表单-copy" transform="translate(-206.000000, -613.000000)">
            <g id="L8" transform="translate(206.000000, 613.000000)">
                <rect id="Rectangle-13-Copy-7" fill="#FFFFFF" x="0" y="0" width="178" height="140" rx="3"></rect>
                <text id="深入式图标列表项" font-family="PingFangSC-Regular, PingFang SC" font-size="12" font-weight="normal" fill="#767676">
                    <tspan x="41" y="110">深入式图标列表项</tspan>
                </text>
                <path d="M96.9304029,66.9351449 L81.9304029,66.9351449 L81.9304029,63.5420508 L86.6533987,56.4777587 L92.3600557,63.5420508 L96.9304029,60.7162435 L96.9304029,66.9351449 Z M92.7626747,57.1840975 C92.7626747,58.3550733 93.6967862,59.3033399 94.8453167,59.3033399 C95.9960692,59.3033399 96.9301807,58.3550733 96.9301807,57.1840975 C96.9301807,56.0131217 95.9960692,55.0648551 94.8453167,55.0648551 C93.6970084,55.0648551 92.7626747,56.0131217 92.7626747,57.1840975 Z" id="Shape" fill="#FFFFFF" fill-rule="nonzero"></path>
                <path d="M133.188225,56.7882251 L134.036753,55.939697 L128.097056,50 L126.4,51.6970563 L130.642641,55.939697 L126.4,60.1823376 L128.097056,61.8793939 L133.188225,56.7882251 Z M39.8,44 L138.2,44 L138.2,44 C140.850967,44 143,46.1490332 143,48.8 L143,63.2 C143,65.8509668 140.850967,68 138.2,68 L39.8,68 L39.8,68 C37.1490332,68 35,65.8509668 35,63.2 L35,48.8 L35,48.8 C35,46.1490332 37.1490332,44 39.8,44 L39.8,44 Z M60.6,53.6 L60.6,59.6 L83.4,59.6 L83.4,53.6 L60.6,53.6 Z M46.8,50 L46.8,50 C44.1490332,50 42,52.1490332 42,54.8 L42,54.8 L42,57.2 C42,59.8509668 44.1490332,62 46.8,62 L49.2,62 C51.8509668,62 54,59.8509668 54,57.2 L54,54.8 C54,52.1490332 51.8509668,50 49.2,50 L49.2,50 L46.8,50 Z" id="Combined-Shape-Copy-12" fill="#404040"></path>
            </g>
        </g>
    </g>
</svg>