<?xml version="1.0" encoding="UTF-8"?>
<svg width="178px" height="140px" viewBox="0 0 178 140" version="1.1" xmlns="http://www.w3.org/2000/svg" xmlns:xlink="http://www.w3.org/1999/xlink">
    <!-- Generator: Sketch 47.1 (45422) - http://www.bohemiancoding.com/sketch -->
    <title>L9</title>
    <desc>Created with Sketch.</desc>
    <defs></defs>
    <g id="Atomframer" stroke="none" stroke-width="1" fill="none" fill-rule="evenodd">
        <g id="列表及表单-copy" transform="translate(-15.000000, -806.000000)">
            <g id="L9" transform="translate(15.000000, 806.000000)">
                <rect id="Rectangle-13-Copy-8" fill="#FFFFFF" x="0" y="0" width="178" height="140" rx="3"></rect>
                <text id="带值的深入式图标列表项" font-family="PingFangSC-Regular, PingFang SC" font-size="12" font-weight="normal" fill="#767676">
                    <tspan x="23" y="110">带值的深入式图标列表项</tspan>
                </text>
                <polygon id="Triangle-2" fill="#FFFFFF" transform="translate(90.000000, 61.000000) rotate(90.000000) translate(-90.000000, -61.000000) " points="90 56 96 66 84 66"></polygon>
                <g id="Group-2" transform="translate(35.000000, 44.000000)">
                    <path d="M98.1882251,12.7882251 L99.0367532,11.939697 L93.0970563,6 L91.4,7.69705627 L95.6426407,11.939697 L91.4,16.1823376 L93.0970563,17.8793939 L98.1882251,12.7882251 Z M4.8,-2.84217094e-13 L103.2,-2.84217094e-13 L103.2,-2.85105273e-13 C105.850967,-2.78528653e-13 108,2.1490332 108,4.8 L108,19.2 C108,21.8509668 105.850967,24 103.2,24 L4.8,24 L4.8,24 C2.1490332,24 6.23189498e-15,21.8509668 3.55271368e-15,19.2 L0,4.8 L-8.8817842e-16,4.8 C-1.21282822e-15,2.1490332 2.1490332,-2.85506476e-13 4.8,-2.85993451e-13 L4.8,-2.84217094e-13 Z M25.6,9.6 L25.6,15.6 L48.4,15.6 L48.4,9.6 L25.6,9.6 Z M11.8,6 L11.8,6 C9.1490332,6 7,8.1490332 7,10.8 L7,10.8 L7,13.2 C7,15.8509668 9.1490332,18 11.8,18 L14.2,18 C16.8509668,18 19,15.8509668 19,13.2 L19,10.8 C19,8.1490332 16.8509668,6 14.2,6 L14.2,6 L11.8,6 Z" id="Combined-Shape-Copy-13" fill="#404040"></path>
                    <path d="M65.69,16 L67.62,16 L69.28,10.69 L69.28,10.6 L67.56,10.6 L66.8,13.82 L66.7,14.56 L66.6,14.56 C66.39,13.23 66.05,11.91 65.74,10.6 L64.02,10.6 L64.02,10.69 L65.69,16 Z M70.98,16.05 C70.08,16.05 69.47,15.39 69.47,14.43 C69.47,13.38 70.12,12.83 71.41,12.74 L72.32,12.68 C72.31,11.91 72.17,11.76 71.47,11.76 C71.18,11.76 70.34,11.83 70.01,11.9 L69.9,10.7 C70.51,10.6 71.16,10.52 71.74,10.52 C73.32,10.52 73.99,11.04 73.99,12.24 L73.99,16 L72.6,16 L72.48,15.35 L72.4,15.35 C72.07,15.77 71.54,16.05 70.98,16.05 Z M71.61,14.84 C71.82,14.84 72.1,14.68 72.32,14.55 L72.32,13.68 L71.78,13.73 C71.31,13.77 71.13,13.93 71.13,14.28 C71.13,14.63 71.3,14.84 71.61,14.84 Z M74.88,16 L76.56,16 L76.56,7.92 L74.88,7.92 L74.88,16 Z M78.86,16.1 C79.34,16.1 79.65,15.97 80.42,15.45 L80.46,15.45 L80.55,16 L81.96,16 L81.96,10.6 L80.29,10.6 L80.29,14.41 C79.99,14.61 79.79,14.68 79.59,14.68 C79.28,14.68 79.12,14.5 79.12,14.1 L79.12,10.6 L77.45,10.6 L77.45,14.66 C77.45,15.54 78,16.1 78.86,16.1 Z M85.14,16.09 C83.52,16.09 82.68,15.15 82.68,13.36 C82.68,11.48 83.51,10.51 85.13,10.51 C86.53,10.51 87.17,11.32 87.17,13.09 C87.17,13.49 87.16,13.64 87.12,13.86 L84.37,13.86 C84.42,14.64 84.63,14.84 85.23,14.84 C85.61,14.84 86.26,14.73 86.94,14.56 L86.99,15.78 C86.49,15.96 85.73,16.09 85.14,16.09 Z M85.09,11.75 C84.62,11.75 84.41,12.03 84.36,12.84 L85.7,12.84 C85.68,12.04 85.51,11.75 85.09,11.75 Z" id="value" fill="#FFFFFF"></path>
                </g>
            </g>
        </g>
    </g>
</svg>