<?xml version="1.0" encoding="UTF-8"?>
<svg width="29px" height="29px" viewBox="0 0 29 29" version="1.1" xmlns="http://www.w3.org/2000/svg" xmlns:xlink="http://www.w3.org/1999/xlink">
    <!-- Generator: Sketch 47.1 (45422) - http://www.bohemiancoding.com/sketch -->
    <title>mail</title>
    <desc>Created with Sketch.</desc>
    <defs></defs>
    <g id="Atomframer" stroke="none" stroke-width="1" fill="none" fill-rule="evenodd">
        <g id="Artboard" transform="translate(-10.000000, -49.000000)" fill-rule="nonzero">
            <g id="mail" transform="translate(10.000000, 49.000000)">
                <rect id="Rectangle" fill="#FFFFFF" x="0.483333333" y="0" width="28.0333333" height="29" rx="4"></rect>
                <path d="M22.2333333,6 L6.76666667,6 C5.12333333,6 3.86666667,7.3 3.86666667,9 L3.86666667,21 C3.86666667,22.7 5.12333333,24 6.76666667,24 L22.2333333,24 C23.8766667,24 25.1333333,22.7 25.1333333,21 L25.1333333,9 C25.1333333,7.3 23.8766667,6 22.2333333,6 Z M6.76666667,8 L22.2333333,8 C22.62,8 22.91,8.2 23.1033333,8.6 L14.5,14.8 L5.89666667,8.6 C6.09,8.2 6.38,8 6.76666667,8 Z M22.2333333,22 L6.76666667,22 C6.18666667,22 5.8,21.6 5.8,21 L5.8,10.9 L13.92,16.8 C14.1133333,16.9 14.3066667,17 14.5,17 C14.6933333,17 14.8866667,16.9 15.08,16.8 L23.2,10.9 L23.2,21 C23.2,21.6 22.8133333,22 22.2333333,22 Z" id="Shape" fill="#ABB4BD"></path>
            </g>
        </g>
    </g>
</svg>