<?xml version="1.0" encoding="UTF-8"?>
<svg width="29px" height="29px" viewBox="0 0 29 29" version="1.1" xmlns="http://www.w3.org/2000/svg" xmlns:xlink="http://www.w3.org/1999/xlink">
    <!-- Generator: Sketch 47.1 (45422) - http://www.bohemiancoding.com/sketch -->
    <title>menu</title>
    <desc>Created with Sketch.</desc>
    <defs></defs>
    <g id="Atomframer" stroke="none" stroke-width="1" fill="none" fill-rule="evenodd">
        <g id="Artboard" transform="translate(-49.000000, -127.000000)" fill-rule="nonzero">
            <g id="menu" transform="translate(49.000000, 127.000000)">
                <rect id="Rectangle" fill="#FFFFFF" x="0.483333333" y="0" width="28.0333333" height="29" rx="4"></rect>
                <path d="M23.2,14 L5.8,14 C5.22,14 4.83333333,14.4 4.83333333,15 C4.83333333,15.6 5.22,16 5.8,16 L23.2,16 C23.78,16 24.1666667,15.6 24.1666667,15 C24.1666667,14.4 23.78,14 23.2,14 Z" id="Shape" fill="#ABB4BD"></path>
                <path d="M5.8,10 L23.2,10 C23.78,10 24.1666667,9.6 24.1666667,9 C24.1666667,8.4 23.78,8 23.2,8 L5.8,8 C5.22,8 4.83333333,8.4 4.83333333,9 C4.83333333,9.6 5.22,10 5.8,10 Z" id="Shape" fill="#ABB4BD"></path>
                <path d="M23.2,20 L5.8,20 C5.22,20 4.83333333,20.4 4.83333333,21 C4.83333333,21.6 5.22,22 5.8,22 L23.2,22 C23.78,22 24.1666667,21.6 24.1666667,21 C24.1666667,20.4 23.78,20 23.2,20 Z" id="Shape" fill="#ABB4BD"></path>
            </g>
        </g>
    </g>
</svg>