<?xml version="1.0" encoding="UTF-8"?>
<svg width="29px" height="29px" viewBox="0 0 29 29" version="1.1" xmlns="http://www.w3.org/2000/svg" xmlns:xlink="http://www.w3.org/1999/xlink">
    <!-- Generator: Sketch 47.1 (45422) - http://www.bohemiancoding.com/sketch -->
    <title>message</title>
    <desc>Created with Sketch.</desc>
    <defs></defs>
    <g id="Atomframer" stroke="none" stroke-width="1" fill="none" fill-rule="evenodd">
        <g id="Artboard" transform="translate(-88.000000, -127.000000)" fill-rule="nonzero">
            <g id="message" transform="translate(88.000000, 127.000000)">
                <rect id="Rectangle" fill="#FFFFFF" x="0.483333333" y="0" width="28.0333333" height="29" rx="4"></rect>
                <path d="M21.2666667,5.5 L7.73333333,5.5 C6.09,5.5 4.83333333,6.8 4.83333333,8.5 L4.83333333,24.5 C4.83333333,24.9 5.02666667,25.3 5.41333333,25.4 C5.51,25.5 5.70333333,25.5 5.8,25.5 C6.09,25.5 6.28333333,25.4 6.47666667,25.2 L10.0533333,21.5 L21.2666667,21.5 C22.91,21.5 24.1666667,20.2 24.1666667,18.5 L24.1666667,8.5 C24.1666667,6.8 22.91,5.5 21.2666667,5.5 Z M22.2333333,18.5 C22.2333333,19.1 21.8466667,19.5 21.2666667,19.5 L9.66666667,19.5 C9.37666667,19.5 9.18333333,19.6 8.99,19.8 L6.76666667,22.1 L6.76666667,8.5 C6.76666667,7.9 7.15333333,7.5 7.73333333,7.5 L21.2666667,7.5 C21.8466667,7.5 22.2333333,7.9 22.2333333,8.5 L22.2333333,18.5 Z" id="Shape" fill="#ABB4BD"></path>
            </g>
        </g>
    </g>
</svg>