<?xml version="1.0" encoding="UTF-8"?>
<svg width="29px" height="29px" viewBox="0 0 29 29" version="1.1" xmlns="http://www.w3.org/2000/svg" xmlns:xlink="http://www.w3.org/1999/xlink">
    <!-- Generator: Sketch 47.1 (45422) - http://www.bohemiancoding.com/sketch -->
    <title>more</title>
    <desc>Created with Sketch.</desc>
    <defs></defs>
    <g id="Atomframer" stroke="none" stroke-width="1" fill="none" fill-rule="evenodd">
        <g id="Artboard" transform="translate(-128.000000, -127.000000)" fill-rule="nonzero">
            <g id="more" transform="translate(128.000000, 127.000000)">
                <rect id="Rectangle" fill="#FFFFFF" x="0.483333333" y="0" width="28.0333333" height="29" rx="4"></rect>
                <path d="M16.4333333,15 C16.4333333,16.105 15.5681667,17 14.5,17 C13.4318333,17 12.5666667,16.105 12.5666667,15 C12.5666667,13.895 13.4318333,13 14.5,13 C15.5681667,13 16.4333333,13.895 16.4333333,15 Z" id="Shape" fill="#ABB4BD"></path>
                <path d="M23.2,15 C23.2,16.105 22.3348333,17 21.2666667,17 C20.1985,17 19.3333333,16.105 19.3333333,15 C19.3333333,13.895 20.1985,13 21.2666667,13 C22.3348333,13 23.2,13.895 23.2,15 Z" id="Shape" fill="#ABB4BD"></path>
                <path d="M9.66666667,15 C9.66666667,16.105 8.8015,17 7.73333333,17 C6.66516667,17 5.8,16.105 5.8,15 C5.8,13.895 6.66516667,13 7.73333333,13 C8.8015,13 9.66666667,13.895 9.66666667,15 Z" id="Shape" fill="#ABB4BD"></path>
            </g>
        </g>
    </g>
</svg>