<?xml version="1.0" encoding="UTF-8"?>
<svg width="29px" height="29px" viewBox="0 0 29 29" version="1.1" xmlns="http://www.w3.org/2000/svg" xmlns:xlink="http://www.w3.org/1999/xlink">
    <!-- Generator: Sketch 47.1 (45422) - http://www.bohemiancoding.com/sketch -->
    <title>phone</title>
    <desc>Created with Sketch.</desc>
    <defs></defs>
    <g id="Atomframer" stroke="none" stroke-width="1" fill="none" fill-rule="evenodd">
        <g id="Artboard" transform="translate(-208.000000, -127.000000)" fill-rule="nonzero">
            <g id="phone" transform="translate(208.000000, 127.000000)">
                <rect id="Rectangle" fill="#FFFFFF" x="0" y="0" width="29" height="29" rx="4"></rect>
                <path d="M22.4,16.9 C21.5,16.8 20.6,16.6 19.8,16.3 C18.7,15.9 17.5,16.2 16.6,17 L15.9,17.7 C14.1,16.5 12.5,15 11.3,13.1 L12,12.4 C12.8,11.6 13.1,10.3 12.7,9.2 C12.4,8.4 12.2,7.5 12.1,6.6 C11.9,5.1 10.6,4 9.1,4 C9.1,4 9.1,4 9.1,4 L6.1,4 C6,4 5.9,4 5.8,4 C5,4.1 4.3,4.5 3.8,5.1 C3.3,5.7 3.1,6.5 3.1,7.3 C3.4,10.5 4.6,13.7 6.3,16.4 C7.9,18.9 10.1,21.1 12.6,22.7 C15.3,24.5 18.5,25.6 21.7,25.9 C21.8,25.9 21.9,25.9 22,25.9 C22,25.9 22,25.9 22,25.9 C22.8,25.9 23.6,25.6 24.1,25 C24.6,24.4 25,23.7 25,22.9 L25,19.9 C25,18.4 23.9,17.1 22.4,16.9 L22.4,16.9 Z M23,19.9 L23,22.9 C23,23.2 22.9,23.4 22.7,23.6 C22.5,23.8 22.3,23.9 21.9,23.9 C19,23.6 16.2,22.6 13.7,21 C11.4,19.6 9.5,17.6 8,15.3 C6.4,12.8 5.4,10 5.1,7.1 C5.1,6.8 5.2,6.6 5.3,6.4 C5.5,6.2 5.8,6 6.1,6 L9.1,6 C9.1,6 9.1,6 9.1,6 C9.6,6 10,6.4 10.1,6.9 C10.2,7.9 10.5,9 10.9,9.9 C11,10.3 10.9,10.7 10.7,11 L9.4,12.2 C9.1,12.5 9,13 9.2,13.4 C10.7,16.1 12.9,18.3 15.6,19.8 C16,20 16.5,20 16.8,19.6 L18.1,18.3 C18.4,18 18.8,17.9 19.2,18.1 C20.2,18.5 21.2,18.7 22.2,18.9 C22.6,19 23,19.4 23,19.9 C23,19.9 23,19.9 23,19.9 L23,19.9 Z" id="Shape" fill="#ABB4BD"></path>
            </g>
        </g>
    </g>
</svg>