<?xml version="1.0" encoding="UTF-8"?>
<svg width="29px" height="29px" viewBox="0 0 29 29" version="1.1" xmlns="http://www.w3.org/2000/svg" xmlns:xlink="http://www.w3.org/1999/xlink">
    <!-- Generator: Sketch 47.1 (45422) - http://www.bohemiancoding.com/sketch -->
    <title>pin</title>
    <desc>Created with Sketch.</desc>
    <defs></defs>
    <g id="Atomframer" stroke="none" stroke-width="1" fill="none" fill-rule="evenodd">
        <g id="Artboard" transform="translate(-10.000000, -127.000000)" fill-rule="nonzero">
            <g id="pin" transform="translate(10.000000, 127.000000)">
                <rect id="Rectangle" fill="#FFFFFF" x="0.483333333" y="0" width="28.0333333" height="29" rx="4"></rect>
                <path d="M14.5,3 C9.18333333,3 4.83333333,7.5 4.83333333,13 C4.83333333,20.4 13.63,26.6 13.92,26.8 C14.1133333,26.9 14.3066667,27 14.5,27 C14.6933333,27 14.8866667,26.9 15.08,26.8 C15.37,26.6 24.1666667,20.4 24.1666667,13 C24.1666667,7.5 19.8166667,3 14.5,3 Z M14.5,24.8 C12.6633333,23.4 6.76666667,18.4 6.76666667,13 C6.76666667,8.6 10.2466667,5 14.5,5 C18.7533333,5 22.2333333,8.6 22.2333333,13 C22.2333333,18.4 16.3366667,23.4 14.5,24.8 Z" id="Shape" fill="#ABB4BD"></path>
                <path d="M14.5,9 C12.3733333,9 10.6333333,10.8 10.6333333,13 C10.6333333,15.2 12.3733333,17 14.5,17 C16.6266667,17 18.3666667,15.2 18.3666667,13 C18.3666667,10.8 16.6266667,9 14.5,9 Z M14.5,15 C13.4366667,15 12.5666667,14.1 12.5666667,13 C12.5666667,11.9 13.4366667,11 14.5,11 C15.5633333,11 16.4333333,11.9 16.4333333,13 C16.4333333,14.1 15.5633333,15 14.5,15 Z" id="Shape" fill="#ABB4BD"></path>
            </g>
        </g>
    </g>
</svg>