<?xml version="1.0" encoding="UTF-8"?>
<svg width="29px" height="29px" viewBox="0 0 29 29" version="1.1" xmlns="http://www.w3.org/2000/svg" xmlns:xlink="http://www.w3.org/1999/xlink">
    <!-- Generator: Sketch 47.1 (45422) - http://www.bohemiancoding.com/sketch -->
    <title>play</title>
    <desc>Created with Sketch.</desc>
    <defs></defs>
    <g id="Atomframer" stroke="none" stroke-width="1" fill="none" fill-rule="evenodd">
        <g id="Artboard" transform="translate(-207.000000, -87.000000)" fill-rule="nonzero">
            <g id="play" transform="translate(207.000000, 87.000000)">
                <rect id="Rectangle" fill="#FFFFFF" x="0.483333333" y="0.483333333" width="28.0333333" height="28.0333333" rx="4"></rect>
                <path d="M14.5,3.86666667 C8.60333333,3.86666667 3.86666667,8.60333333 3.86666667,14.5 C3.86666667,20.3966667 8.60333333,25.1333333 14.5,25.1333333 C20.3966667,25.1333333 25.1333333,20.3966667 25.1333333,14.5 C25.1333333,8.60333333 20.3966667,3.86666667 14.5,3.86666667 Z M14.5,23.2 C9.66666667,23.2 5.8,19.3333333 5.8,14.5 C5.8,9.66666667 9.66666667,5.8 14.5,5.8 C19.3333333,5.8 23.2,9.66666667 23.2,14.5 C23.2,19.3333333 19.3333333,23.2 14.5,23.2 Z" id="Shape" fill="#ABB4BD"></path>
                <path d="M18.9466667,13.7266667 L13.1466667,9.86 C12.8566667,9.66666667 12.47,9.66666667 12.18,9.86 C11.7933333,9.95666667 11.6,10.2466667 11.6,10.6333333 L11.6,18.3666667 C11.6,18.7533333 11.7933333,19.0433333 12.0833333,19.2366667 C12.2766667,19.3333333 12.3733333,19.3333333 12.5666667,19.3333333 C12.76,19.3333333 12.9533333,19.2366667 13.1466667,19.14 L18.9466667,15.2733333 C19.2366667,15.08 19.3333333,14.79 19.3333333,14.5 C19.3333333,14.21 19.14,13.92 18.9466667,13.7266667 Z M13.5333333,16.53 L13.5333333,12.47 L16.6266667,14.5 L13.5333333,16.53 L13.5333333,16.53 Z" id="Shape" fill="#ABB4BD"></path>
            </g>
        </g>
    </g>
</svg>