<?xml version="1.0" encoding="UTF-8"?>
<svg width="29px" height="29px" viewBox="0 0 29 29" version="1.1" xmlns="http://www.w3.org/2000/svg" xmlns:xlink="http://www.w3.org/1999/xlink">
    <!-- Generator: Sketch 47.1 (45422) - http://www.bohemiancoding.com/sketch -->
    <title>plus</title>
    <desc>Created with Sketch.</desc>
    <defs></defs>
    <g id="Atomframer" stroke="none" stroke-width="1" fill="none" fill-rule="evenodd">
        <g id="Artboard" transform="translate(-247.000000, -88.000000)" fill-rule="nonzero">
            <g id="plus" transform="translate(247.000000, 88.000000)">
                <rect id="Rectangle" fill="#FFFFFF" x="0.483333333" y="0.483333333" width="28.0333333" height="28.0333333" rx="4"></rect>
                <path d="M14.5,3.86666667 C8.60333333,3.86666667 3.86666667,8.60333333 3.86666667,14.5 C3.86666667,20.3966667 8.60333333,25.1333333 14.5,25.1333333 C20.3966667,25.1333333 25.1333333,20.3966667 25.1333333,14.5 C25.1333333,8.60333333 20.3966667,3.86666667 14.5,3.86666667 Z M14.5,23.2 C9.66666667,23.2 5.8,19.3333333 5.8,14.5 C5.8,9.66666667 9.66666667,5.8 14.5,5.8 C19.3333333,5.8 23.2,9.66666667 23.2,14.5 C23.2,19.3333333 19.3333333,23.2 14.5,23.2 Z" id="Shape" fill="#ABB4BD"></path>
                <path d="M18.3666667,13.5333333 L15.4666667,13.5333333 L15.4666667,10.6333333 C15.4666667,10.0533333 15.08,9.66666667 14.5,9.66666667 C13.92,9.66666667 13.5333333,10.0533333 13.5333333,10.6333333 L13.5333333,13.5333333 L10.6333333,13.5333333 C10.0533333,13.5333333 9.66666667,13.92 9.66666667,14.5 C9.66666667,15.08 10.0533333,15.4666667 10.6333333,15.4666667 L13.5333333,15.4666667 L13.5333333,18.3666667 C13.5333333,18.9466667 13.92,19.3333333 14.5,19.3333333 C15.08,19.3333333 15.4666667,18.9466667 15.4666667,18.3666667 L15.4666667,15.4666667 L18.3666667,15.4666667 C18.9466667,15.4666667 19.3333333,15.08 19.3333333,14.5 C19.3333333,13.92 18.9466667,13.5333333 18.3666667,13.5333333 Z" id="Shape" fill="#ABB4BD"></path>
            </g>
        </g>
    </g>
</svg>