<?xml version="1.0" encoding="UTF-8"?>
<svg width="29px" height="29px" viewBox="0 0 29 29" version="1.1" xmlns="http://www.w3.org/2000/svg" xmlns:xlink="http://www.w3.org/1999/xlink">
    <!-- Generator: Sketch 47.1 (45422) - http://www.bohemiancoding.com/sketch -->
    <title>save</title>
    <desc>Created with Sketch.</desc>
    <defs></defs>
    <g id="Atomframer" stroke="none" stroke-width="1" fill="none" fill-rule="evenodd">
        <g id="Artboard" transform="translate(-10.000000, -166.000000)" fill-rule="nonzero">
            <g id="save" transform="translate(10.000000, 166.000000)">
                <rect id="Rectangle-Copy" fill="#FFFFFF" x="0.483333333" y="0" width="28.0333333" height="29" rx="4"></rect>
                <path d="M23.8766667,10.3 L19.0433333,5.3 C18.85,5.1 18.6566667,5 18.3666667,5 L7.73333333,5 C6.09,5 4.83333333,6.3 4.83333333,8 L4.83333333,22 C4.83333333,23.7 6.09,25 7.73333333,25 L21.2666667,25 C22.91,25 24.1666667,23.7 24.1666667,22 L24.1666667,11 C24.1666667,10.7 24.07,10.5 23.8766667,10.3 Z M18.3666667,23 L10.6333333,23 L10.6333333,17 L18.3666667,17 L18.3666667,23 Z M22.2333333,22 C22.2333333,22.6 21.8466667,23 21.2666667,23 L20.3,23 L20.3,16 C20.3,15.4 19.9133333,15 19.3333333,15 L9.66666667,15 C9.08666667,15 8.7,15.4 8.7,16 L8.7,23 L7.73333333,23 C7.15333333,23 6.76666667,22.6 6.76666667,22 L6.76666667,8 C6.76666667,7.4 7.15333333,7 7.73333333,7 L8.7,7 L8.7,11 C8.7,11.6 9.08666667,12 9.66666667,12 L17.4,12 C17.98,12 18.3666667,11.6 18.3666667,11 C18.3666667,10.4 17.98,10 17.4,10 L10.6333333,10 L10.6333333,7 L17.98,7 L22.2333333,11.4 L22.2333333,22 Z" id="Shape" fill="#ABB4BD"></path>
            </g>
        </g>
    </g>
</svg>