<?xml version="1.0" encoding="UTF-8"?>
<svg width="29px" height="29px" viewBox="0 0 29 29" version="1.1" xmlns="http://www.w3.org/2000/svg" xmlns:xlink="http://www.w3.org/1999/xlink">
    <!-- Generator: Sketch 47.1 (45422) - http://www.bohemiancoding.com/sketch -->
    <title>search</title>
    <desc>Created with Sketch.</desc>
    <defs></defs>
    <g id="Atomframer" stroke="none" stroke-width="1" fill="none" fill-rule="evenodd">
        <g id="Artboard" transform="translate(-49.000000, -166.000000)" fill-rule="nonzero">
            <g id="search" transform="translate(49.000000, 166.000000)">
                <rect id="Rectangle-Copy-9" fill="#FFFFFF" x="0" y="0" width="29" height="29" rx="4"></rect>
                <path d="M24.7,23.3 L21,19.6 C22.2,18.1 23,16.1 23,14 C23,9 19,5 14,5 C9,5 5,9 5,14 C5,19 9,23 14,23 C16.1,23 18.1,22.3 19.6,21 L23.3,24.7 C23.5,24.9 23.8,25 24,25 C24.2,25 24.5,24.9 24.7,24.7 C25.1,24.3 25.1,23.7 24.7,23.3 Z M7,14 C7,10.1 10.1,7 14,7 C17.9,7 21,10.1 21,14 C21,15.9 20.2,17.7 19,18.9 C19,18.9 19,18.9 19,18.9 C19,18.9 19,18.9 19,18.9 C17.7,20.2 16,20.9 14.1,20.9 C10.1,21 7,17.9 7,14 Z" id="Shape" fill="#ABB4BD"></path>
            </g>
        </g>
    </g>
</svg>