<?xml version="1.0" encoding="UTF-8"?>
<svg width="29px" height="29px" viewBox="0 0 29 29" version="1.1" xmlns="http://www.w3.org/2000/svg" xmlns:xlink="http://www.w3.org/1999/xlink">
    <!-- Generator: Sketch 47.1 (45422) - http://www.bohemiancoding.com/sketch -->
    <title>settings</title>
    <desc>Created with Sketch.</desc>
    <defs></defs>
    <g id="Atomframer" stroke="none" stroke-width="1" fill="none" fill-rule="evenodd">
        <g id="Artboard" transform="translate(-128.000000, -166.000000)" fill-rule="nonzero">
            <g id="settings" transform="translate(128.000000, 166.000000)">
                <rect id="Rectangle-Copy-11" fill="#FFFFFF" x="0.483333333" y="0.483333333" width="28.0333333" height="28.0333333" rx="4"></rect>
                <path d="M14.5,10.6333333 C12.3733333,10.6333333 10.6333333,12.3733333 10.6333333,14.5 C10.6333333,16.6266667 12.3733333,18.3666667 14.5,18.3666667 C16.6266667,18.3666667 18.3666667,16.6266667 18.3666667,14.5 C18.3666667,12.3733333 16.6266667,10.6333333 14.5,10.6333333 Z M14.5,16.4333333 C13.4366667,16.4333333 12.5666667,15.5633333 12.5666667,14.5 C12.5666667,13.4366667 13.4366667,12.5666667 14.5,12.5666667 C15.5633333,12.5666667 16.4333333,13.4366667 16.4333333,14.5 C16.4333333,15.5633333 15.5633333,16.4333333 14.5,16.4333333 Z" id="Shape" fill="#ABB4BD"></path>
                <path d="M22.5233333,17.7866667 C22.62,17.5933333 22.8133333,17.4 23.2,17.4 C24.8433333,17.4 26.1,16.1433333 26.1,14.5 C26.1,12.8566667 24.8433333,11.6 23.2,11.6 L23.0066667,11.6 C22.8133333,11.6 22.62,11.5033333 22.5233333,11.31 C22.5233333,11.2133333 22.5233333,11.2133333 22.4266667,11.1166667 C22.33,10.9233333 22.33,10.6333333 22.62,10.3433333 C23.78,9.18333333 23.78,7.34666667 22.62,6.28333333 L22.62,6.28333333 C22.62,6.28333333 22.62,6.28333333 22.62,6.28333333 C22.04,5.70333333 21.3633333,5.41333333 20.59,5.41333333 C20.59,5.41333333 20.59,5.41333333 20.59,5.41333333 C19.8166667,5.41333333 19.0433333,5.70333333 18.4633333,6.28333333 C18.27,6.47666667 17.98,6.47666667 17.7866667,6.38 C17.5933333,6.38 17.4,6.09 17.4,5.8 C17.4,4.15666667 16.1433333,2.9 14.5,2.9 C12.8566667,2.9 11.6,4.15666667 11.6,5.8 L11.6,5.99333333 C11.6,6.18666667 11.5033333,6.38 11.31,6.47666667 C11.2133333,6.47666667 11.2133333,6.47666667 11.1166667,6.57333333 C10.9233333,6.67 10.6333333,6.57333333 10.3433333,6.38 C9.18333333,5.22 7.34666667,5.22 6.28333333,6.38 C5.12333333,7.54 5.12333333,9.37666667 6.38,10.5366667 C6.57333333,10.73 6.57333333,11.02 6.47666667,11.31 C6.38,11.5033333 6.09,11.6966667 5.8,11.6966667 C4.15666667,11.6966667 2.9,12.9533333 2.9,14.5966667 C2.9,16.24 4.15666667,17.4966667 5.8,17.4966667 L5.99333333,17.4966667 C6.28333333,17.4966667 6.47666667,17.69 6.57333333,17.8833333 C6.67,18.0766667 6.67,18.3666667 6.38,18.6566667 C5.8,19.2366667 5.51,19.9133333 5.51,20.6866667 C5.51,21.46 5.8,22.1366667 6.38,22.7166667 C6.38,22.7166667 6.38,22.7166667 6.38,22.7166667 C7.54,23.8766667 9.37666667,23.8766667 10.5366667,22.62 C10.73,22.4266667 11.02,22.4266667 11.31,22.5233333 C11.6,22.62 11.6966667,22.8133333 11.6966667,23.2 C11.6966667,24.8433333 12.9533333,26.1 14.5966667,26.1 C16.24,26.1 17.4966667,24.8433333 17.4966667,23.2 L17.4966667,23.0066667 C17.4966667,22.7166667 17.69,22.5233333 17.8833333,22.4266667 C18.0766667,22.33 18.3666667,22.33 18.6566667,22.62 C19.8166667,23.78 21.6533333,23.78 22.7166667,22.62 C23.8766667,21.46 23.8766667,19.6233333 22.62,18.4633333 C22.5233333,18.27 22.4266667,17.98 22.5233333,17.7866667 C22.5233333,17.7866667 22.5233333,17.7866667 22.5233333,17.7866667 L22.5233333,17.7866667 Z M20.7833333,17.0133333 C20.3966667,17.98 20.59,19.0433333 21.3633333,19.9133333 C21.5566667,20.1066667 21.6533333,20.3 21.6533333,20.59 C21.6533333,20.88 21.5566667,21.0733333 21.3633333,21.2666667 C21.17,21.46 20.9766667,21.5566667 20.6866667,21.5566667 C20.6866667,21.5566667 20.6866667,21.5566667 20.6866667,21.5566667 C20.3966667,21.5566667 20.2033333,21.46 19.9133333,21.17 C19.14,20.3966667 18.0766667,20.2033333 17.11,20.6866667 C16.1433333,21.0733333 15.5633333,22.04 15.5633333,23.0066667 L15.5633333,23.2 C15.5633333,23.78 15.1766667,24.1666667 14.5966667,24.1666667 C14.0166667,24.1666667 13.63,23.78 13.63,23.2 C13.63,23.2 13.63,23.1033333 13.63,23.1033333 C13.63,22.04 12.9533333,21.17 11.9866667,20.7833333 C11.6966667,20.59 11.31,20.59 10.9233333,20.59 C10.2466667,20.59 9.57,20.88 9.08666667,21.3633333 C8.7,21.75 8.12,21.75 7.73333333,21.3633333 C7.73333333,21.3633333 7.73333333,21.3633333 7.73333333,21.3633333 L7.73333333,21.3633333 C7.54,21.17 7.44333333,20.9766667 7.44333333,20.6866667 C7.44333333,20.3966667 7.54,20.2033333 7.83,19.9133333 C8.60333333,19.14 8.79666667,18.0766667 8.31333333,17.11 C7.92666667,16.1433333 6.96,15.5633333 5.99333333,15.5633333 L5.8,15.5633333 C5.22,15.5633333 4.83333333,15.1766667 4.83333333,14.5966667 C4.83333333,14.0166667 5.22,13.63 5.8,13.63 C5.8,13.63 5.89666667,13.63 5.89666667,13.63 C6.96,13.63 7.83,12.9533333 8.21666667,11.9866667 C8.60333333,11.02 8.41,9.95666667 7.63666667,9.08666667 C7.25,8.7 7.25,8.12 7.63666667,7.73333333 C8.02333333,7.34666667 8.60333333,7.34666667 9.08666667,7.83 C9.76333333,8.50666667 10.8266667,8.7 11.6966667,8.41 C11.7933333,8.41 11.89,8.41 11.9866667,8.31333333 C12.9533333,7.92666667 13.5333333,6.96 13.5333333,5.99333333 L13.5333333,5.8 C13.5333333,5.22 13.92,4.83333333 14.5,4.83333333 C15.08,4.83333333 15.4666667,5.22 15.4666667,5.89666667 C15.4666667,6.96 16.0466667,7.83 17.0133333,8.21666667 C17.98,8.60333333 19.0433333,8.41 19.9133333,7.63666667 C20.1066667,7.44333333 20.3,7.34666667 20.59,7.34666667 L20.59,7.34666667 C20.88,7.34666667 21.0733333,7.44333333 21.2666667,7.63666667 C21.2666667,7.63666667 21.2666667,7.63666667 21.2666667,7.63666667 C21.6533333,8.02333333 21.6533333,8.60333333 21.17,9.08666667 C20.4933333,9.76333333 20.3,10.8266667 20.59,11.6966667 C20.59,11.7933333 20.59,11.89 20.6866667,11.9866667 C21.0733333,12.9533333 22.04,13.5333333 23.0066667,13.5333333 L23.2,13.5333333 C23.78,13.5333333 24.1666667,13.92 24.1666667,14.5 C24.1666667,15.08 23.78,15.4666667 23.1033333,15.4666667 C22.1366667,15.4666667 21.17,16.0466667 20.7833333,17.0133333 Z" id="Shape" fill="#ABB4BD"></path>
            </g>
        </g>
    </g>
</svg>