<?xml version="1.0" encoding="UTF-8"?>
<svg width="29px" height="29px" viewBox="0 0 29 29" version="1.1" xmlns="http://www.w3.org/2000/svg" xmlns:xlink="http://www.w3.org/1999/xlink">
    <!-- Generator: Sketch 47.1 (45422) - http://www.bohemiancoding.com/sketch -->
    <title>share</title>
    <desc>Created with Sketch.</desc>
    <defs></defs>
    <g id="Atomframer" stroke="none" stroke-width="1" fill="none" fill-rule="evenodd">
        <g id="Artboard" transform="translate(-168.000000, -166.000000)" fill-rule="nonzero">
            <g id="share" transform="translate(168.000000, 166.000000)">
                <rect id="Rectangle-Copy-5" fill="#FFFFFF" x="0.483333333" y="0" width="28.0333333" height="29" rx="4"></rect>
                <path d="M22.2333333,13 C21.6533333,13 21.2666667,13.4 21.2666667,14 L21.2666667,22 C21.2666667,22.6 20.88,23 20.3,23 L8.7,23 C8.12,23 7.73333333,22.6 7.73333333,22 L7.73333333,14 C7.73333333,13.4 7.34666667,13 6.76666667,13 C6.18666667,13 5.8,13.4 5.8,14 L5.8,22 C5.8,23.7 7.05666667,25 8.7,25 L20.3,25 C21.9433333,25 23.2,23.7 23.2,22 L23.2,14 C23.2,13.4 22.8133333,13 22.2333333,13 Z" id="Shape" fill="#ABB4BD"></path>
                <path d="M11.31,8.7 L13.5333333,6.4 L13.5333333,17 C13.5333333,17.6 13.92,18 14.5,18 C15.08,18 15.4666667,17.6 15.4666667,17 L15.4666667,6.4 L17.69,8.7 C17.8833333,8.9 18.0766667,9 18.3666667,9 C18.6566667,9 18.85,8.9 19.0433333,8.7 C19.43,8.3 19.43,7.7 19.0433333,7.3 L15.1766667,3.3 C15.08,3.2 14.9833333,3.1 14.8866667,3.1 C14.6933333,3 14.4033333,3 14.1133333,3.1 C14.0166667,3.2 13.92,3.2 13.8233333,3.3 L9.95666667,7.3 C9.57,7.7 9.57,8.3 9.95666667,8.7 C10.3433333,9.1 10.9233333,9.1 11.31,8.7 Z" id="Shape" fill="#ABB4BD"></path>
            </g>
        </g>
    </g>
</svg>