<?xml version="1.0" encoding="UTF-8"?>
<svg width="29px" height="29px" viewBox="0 0 29 29" version="1.1" xmlns="http://www.w3.org/2000/svg" xmlns:xlink="http://www.w3.org/1999/xlink">
    <!-- Generator: Sketch 47.1 (45422) - http://www.bohemiancoding.com/sketch -->
    <title>star</title>
    <desc>Created with Sketch.</desc>
    <defs></defs>
    <g id="Atomframer" stroke="none" stroke-width="1" fill="none" fill-rule="evenodd">
        <g id="Artboard" transform="translate(-128.000000, -49.000000)" fill-rule="nonzero">
            <g id="star" transform="translate(128.000000, 49.000000)">
                <rect id="Rectangle-Copy-2" fill="#FFFFFF" x="0.483333333" y="0.483333333" width="28.0333333" height="28.0333333" rx="4"></rect>
                <path d="M25.1333333,11.6 C25.0366667,11.2133333 24.7466667,11.02 24.36,10.9233333 L18.1733333,10.0533333 L15.37,4.44666667 C15.08,3.77 13.92,3.77 13.63,4.44666667 L10.8266667,9.95666667 L4.73666667,10.9233333 C4.35,10.9233333 4.06,11.2133333 3.86666667,11.6 C3.77,11.9866667 3.86666667,12.3733333 4.15666667,12.5666667 L8.60333333,16.9166667 L7.54,23.1033333 C7.44333333,23.49 7.63666667,23.8766667 7.92666667,24.07 C8.21666667,24.2633333 8.60333333,24.36 8.99,24.1666667 L14.5,21.2666667 L20.01,24.1666667 C20.2033333,24.1666667 20.3,24.1666667 20.4933333,24.1666667 C20.6866667,24.1666667 20.88,24.07 21.0733333,23.9733333 C21.3633333,23.78 21.5566667,23.3933333 21.46,23.0066667 L20.3966667,16.82 L24.8433333,12.47 C25.1333333,12.2766667 25.23,11.89 25.1333333,11.6 Z M18.6566667,15.8533333 C18.4633333,16.1433333 18.3666667,16.4333333 18.3666667,16.7233333 L19.14,21.46 L14.8866667,19.2366667 C14.5966667,19.0433333 14.3066667,19.0433333 14.0166667,19.2366667 L9.76333333,21.46 L10.6333333,16.7233333 C10.6333333,16.4333333 10.5366667,16.1433333 10.3433333,15.8533333 L6.86333333,12.5666667 L11.6,11.89 C11.89,11.89 12.18,11.6 12.3733333,11.4066667 L14.5,7.05666667 L16.6266667,11.31 C16.7233333,11.6 17.0133333,11.7933333 17.4,11.7933333 L22.1366667,12.47 L18.6566667,15.8533333 L18.6566667,15.8533333 Z" id="Shape" fill="#ABB4BD"></path>
            </g>
        </g>
    </g>
</svg>