<?xml version="1.0" encoding="UTF-8"?>
<svg width="375px" height="20px" viewBox="0 0 375 20" version="1.1" xmlns="http://www.w3.org/2000/svg" xmlns:xlink="http://www.w3.org/1999/xlink">
    <!-- Generator: Sketch 47.1 (45422) - http://www.bohemiancoding.com/sketch -->
    <title>Status Bar / Black</title>
    <desc>Created with Sketch.</desc>
    <defs></defs>
    <g id="Atomframer" stroke="none" stroke-width="1" fill="none" fill-rule="evenodd">
        <g id="Artboard-2" transform="translate(-33.000000, -26.000000)">
            <g id="Status-Bar-/-Black" transform="translate(33.000000, 26.000000)">
                <rect id="Background" fill="#FFFFFF" x="0" y="0" width="375" height="20"></rect>
                <g id="Charge" transform="translate(306.000000, 3.000000)">
                    <g id="Battery" transform="translate(37.000000, 1.000000)">
                        <rect id="Shape" stroke="#000000" opacity="0.5" x="0.5" y="1" width="23" height="10.5" rx="2"></rect>
                        <path d="M2,2.99209595 C2,2.72031886 2.22460938,2.5 2.49438477,2.5 L22,2.5 L22,10 L2.49438477,10 C2.2213436,10 2,9.78362799 2,9.50790405 L2,2.99209595 Z" id="Shape" fill="#000000"></path>
                        <path d="M25,4.5 L25.75,4.5 C26.1642136,4.5 26.5,4.83559471 26.5,5.24225998 L26.5,7.25774002 C26.5,7.66767889 26.1671014,8 25.75,8 L25,8 L25,4.5 Z" id="Shape" fill="#000000" opacity="0.5"></path>
                    </g>
                    <text id="100-%" font-family="SFUIText-Regular, SF UI Text" font-size="12" font-weight="normal" fill="#000000">
                        <tspan x="0" y="11">100 %</tspan>
                    </text>
                </g>
                <text id="9:41" font-family="SFUIText-Semibold, SF UI Text" font-size="12" font-weight="500" fill="#000000">
                    <tspan x="164" y="14.5">9:41 AM</tspan>
                </text>
                <path d="M68.5939648,12.2681206 C68.0396726,11.8142533 67.3259403,11.5 66.5457329,11.5 C65.7670249,11.5 65.0542921,11.8137668 64.5,12.2656883 L66.5457329,14.5 L68.5939648,12.2681206 L68.5939648,12.2681206 Z M66.5344871,10.0198904 C67.6970511,10.0198904 68.7591528,10.4420274 69.5783456,11.1373699 L70.5739723,10.0376438 C69.4903786,9.10756164 68.0809072,8.5 66.5344871,8.5 C64.9910659,8.5 63.582594,9.10608219 62.5,10.0332055 L63.4941272,11.134411 C64.3128202,10.4405479 65.3734225,10.0198904 66.5344871,10.0198904 L66.5344871,10.0198904 Z M66.4957516,7.02087671 C68.4355242,7.02087671 70.2033612,7.73545205 71.5588529,8.90717808 L72.5,7.86810959 C70.894602,6.47446575 68.7978883,5.5 66.4957516,5.5 C64.1971136,5.5 62.1033987,6.47150685 60.5,7.86071233 L61.4391478,8.90126027 C62.7936399,7.7329863 64.5584781,7.02087671 66.4957516,7.02087671 L66.4957516,7.02087671 Z" id="Wifi" fill="#000000"></path>
                <text id="Atom" font-family="SFUIText-Regular, SF UI Text" font-size="12" font-weight="normal" fill="#000000">
                    <tspan x="26" y="14.5">Atom</tspan>
                </text>
                <path d="M19.5,5.50964952 C19.5,5.22817786 19.7157526,5 19.995389,5 L22.004611,5 C22.2782068,5 22.5,5.22765279 22.5,5.50964952 L22.5,14.4903505 C22.5,14.7718221 22.2842474,15 22.004611,15 L19.995389,15 C19.7217932,15 19.5,14.7723472 19.5,14.4903505 L19.5,5.50964952 Z M15,7.50043583 C15,7.22405275 15.2157526,7 15.495389,7 L17.504611,7 C17.7782068,7 18,7.23079681 18,7.50043583 L18,14.4995642 C18,14.7759472 17.7842474,15 17.504611,15 L15.495389,15 C15.2217932,15 15,14.7692032 15,14.4995642 L15,7.50043583 Z M10.5,9.49100518 C10.5,9.21983051 10.7157526,9 10.995389,9 L13.004611,9 C13.2782068,9 13.5,9.22788048 13.5,9.49100518 L13.5,14.5089948 C13.5,14.7801695 13.2842474,15 13.004611,15 L10.995389,15 C10.7217932,15 10.5,14.7721195 10.5,14.5089948 L10.5,9.49100518 Z M6,10.9987723 C6,10.723308 6.2157526,10.5 6.49538898,10.5 L8.50461102,10.5 C8.7782068,10.5 9,10.7170444 9,10.9987723 L9,14.5012277 C9,14.776692 8.7842474,15 8.50461102,15 L6.49538898,15 C6.2217932,15 6,14.7829556 6,14.5012277 L6,10.9987723 Z" id="Signal-Icon" fill="#000000"></path>
            </g>
        </g>
    </g>
</svg>