<?xml version="1.0" encoding="UTF-8"?>
<svg width="29px" height="29px" viewBox="0 0 29 29" version="1.1" xmlns="http://www.w3.org/2000/svg" xmlns:xlink="http://www.w3.org/1999/xlink">
    <!-- Generator: Sketch 47.1 (45422) - http://www.bohemiancoding.com/sketch -->
    <title>user</title>
    <desc>Created with Sketch.</desc>
    <defs></defs>
    <g id="Atomframer" stroke="none" stroke-width="1" fill="none" fill-rule="evenodd">
        <g id="Artboard" transform="translate(-168.000000, -49.000000)" fill-rule="nonzero">
            <g id="user" transform="translate(168.000000, 49.000000)">
                <rect id="Rectangle-Copy-14" fill="#FFFFFF" x="0.483333333" y="0" width="28.0333333" height="29" rx="4"></rect>
                <path d="M18.3666667,17 L10.6333333,17 C7.92666667,17 5.8,19.2 5.8,22 L5.8,24 C5.8,24.6 6.18666667,25 6.76666667,25 C7.34666667,25 7.73333333,24.6 7.73333333,24 L7.73333333,22 C7.73333333,20.3 8.99,19 10.6333333,19 L18.3666667,19 C20.01,19 21.2666667,20.3 21.2666667,22 L21.2666667,24 C21.2666667,24.6 21.6533333,25 22.2333333,25 C22.8133333,25 23.2,24.6 23.2,24 L23.2,22 C23.2,19.2 21.0733333,17 18.3666667,17 Z" id="Shape" fill="#ABB4BD"></path>
                <path d="M14.5,15 C17.2066667,15 19.3333333,12.8 19.3333333,10 C19.3333333,7.2 17.2066667,5 14.5,5 C11.7933333,5 9.66666667,7.2 9.66666667,10 C9.66666667,12.8 11.7933333,15 14.5,15 Z M14.5,7 C16.1433333,7 17.4,8.3 17.4,10 C17.4,11.7 16.1433333,13 14.5,13 C12.8566667,13 11.6,11.7 11.6,10 C11.6,8.3 12.8566667,7 14.5,7 Z" id="Shape" fill="#ABB4BD"></path>
            </g>
        </g>
    </g>
</svg>